<?xml version="1.0" encoding="UTF-8"?>
<svg version="1.1" xmlns="http://www.w3.org/2000/svg" width="512" height="512">
<path d="M0 0 C7.92035267 5.53723771 11.97555448 11.92666344 15 21 C15 28.92 15 36.84 15 45 C58.56 45 102.12 45 147 45 C147 50.94 147 56.88 147 63 C141.72 63 136.44 63 131 63 C131 198.96 131 334.92 131 475 C125.06 475 119.12 475 113 475 C113 466.42 113 457.84 113 449 C110.03 448.01 107.06 447.02 104 446 C97.08217491 441.6488202 92.80116524 435.28848866 89.6875 427.875 C87.54426664 415.79495744 88.83837962 405.96849091 95.625 395.75 C99.78216476 390.50835748 105.70570279 387.09809907 112 385 C112 359.92 112 334.84 112 309 C108.7 307.35 105.4 305.7 102 304 C95.35298965 298.96955863 90.59910257 292.24722345 89 284 C88.11096612 272.55915423 89.23687556 263.15200407 96.6875 254.125 C100.55070847 250.09539866 104.78483333 247.04697863 110 245 C110.99 245 111.98 245 113 245 C113 219.59 113 194.18 113 168 C111.35 167.67 109.7 167.34 108 167 C99.34376005 162.51380956 93.03659947 156.14709769 89.6953125 146.9375 C87.7033952 138.52220892 87.80079782 129.23845196 91.55078125 121.34375 C97.12292655 112.33219426 102.27293262 108.86353369 112 104 C112.33 90.47 112.66 76.94 113 63 C26.21 63 -60.58 63 -150 63 C-149.67 76.53 -149.34 90.06 -149 104 C-145.04 105.98 -141.08 107.96 -137 110 C-129.51096103 117.13799027 -124.98015756 125.60384296 -124.6875 136.0625 C-124.80070183 145.49598605 -128.3218856 154.2777571 -135 161 C-139.45241453 164.53203909 -143.70904807 166.88361923 -149 169 C-149.33 194.08 -149.66 219.16 -150 245 C-148.02 245.33 -146.04 245.66 -144 246 C-135.18054333 250.51728269 -129.70639158 257.18572791 -126.125 266.3125 C-123.38298716 275.75356216 -124.31850222 285.36888281 -129 294 C-134.01530173 301.15012466 -139.73863677 306.03278069 -148 309 C-148.66 309 -149.32 309 -150 309 C-150 334.08 -150 359.16 -150 385 C-145.545 386.485 -145.545 386.485 -141 388 C-133.16129661 393.17989994 -128.16184603 400.00909532 -125.3984375 408.9453125 C-123.49404467 418.76600496 -125.3827123 427.65600304 -130.28515625 436.25390625 C-133.80999881 441.4282573 -138.35026901 445.27871291 -144 448 C-145.98 448.33 -147.96 448.66 -150 449 C-150 454.94 -150 460.88 -150 467 C-155.61 467 -161.22 467 -167 467 C-167 447.86 -167 428.72 -167 409 C-221.12 409 -275.24 409 -331 409 C-331 430.78 -331 452.56 -331 475 C-336.94 475 -342.88 475 -349 475 C-349 453.22 -349 431.44 -349 409 C-354.28 409 -359.56 409 -365 409 C-365 403.39 -365 397.78 -365 392 C-359.72 392 -354.44 392 -349 392 C-349 316.1 -349 240.2 -349 162 C-354.28 162 -359.56 162 -365 162 C-365 156.06 -365 150.12 -365 144 C-299.66 144 -234.32 144 -167 144 C-167 117.27 -167 90.54 -167 63 C-172.61 63 -178.22 63 -184 63 C-184 57.06 -184 51.12 -184 45 C-140.44 45 -96.88 45 -52 45 C-52 39.06 -52 33.12 -52 27 C-50.90482018 17.36241761 -47.35247909 9.86804189 -40.25 3.125 C-29.08733324 -5.75057902 -12.44006757 -7.571244 0 0 Z M-31.375 19.5625 C-33.68291068 23.02436603 -34.12352952 25.60586472 -34.09765625 29.66796875 C-34.09515869 30.47258545 -34.09266113 31.27720215 -34.09008789 32.10620117 C-34.08098389 33.12302979 -34.07187988 34.1398584 -34.0625 35.1875 C-34.041875 38.425625 -34.02125 41.66375 -34 45 C-23.44 45 -12.88 45 -2 45 C-1.9175 42.03 -1.835 39.06 -1.75 36 C-1.69537598 34.62134766 -1.69537598 34.62134766 -1.63964844 33.21484375 C-1.56180385 27.35892223 -2.56196535 22.82823094 -6 18 C-14.87037017 10.93990946 -23.75907828 11.3453213 -31.375 19.5625 Z M-150 124 C-150 132.25 -150 140.5 -150 149 C-146.46129497 147.82043166 -145.52110907 146.40006828 -143.8046875 143.16015625 C-142.29145286 139.09792928 -142.19424788 135.23866243 -143 131 C-144.38409895 128.12965457 -145.81282405 126.39547842 -148 124 C-148.66 124 -149.32 124 -150 124 Z M110.0625 125.375 C107.01794535 129.24988773 106.22704831 133.11479935 106 138 C106.96678321 143.47843821 108.47713605 145.60785203 113 149 C113 140.75 113 132.5 113 124 C111.73994749 123.90354217 111.73994749 123.90354217 110.0625 125.375 Z M-331 162 C-331 177.84 -331 193.68 -331 210 C-276.88 210 -222.76 210 -167 210 C-167 194.16 -167 178.32 -167 162 C-221.12 162 -275.24 162 -331 162 Z M-331 228 C-331 282.12 -331 336.24 -331 392 C-326.05 392 -321.1 392 -316 392 C-315.99635437 390.94035034 -315.99270874 389.88070068 -315.98895264 388.78894043 C-315.95195072 378.7842719 -315.89412119 368.77990968 -315.81609726 358.77547455 C-315.77665182 353.63253028 -315.74444889 348.48975648 -315.72900391 343.34667969 C-315.7138181 338.37978403 -315.67933817 333.41335713 -315.63169098 328.44667053 C-315.61689706 326.55538516 -315.60896013 324.66403286 -315.60811615 322.77268982 C-315.60573873 320.11553449 -315.57859762 317.45966648 -315.54589844 314.80273438 C-315.5509288 314.02733307 -315.55595917 313.25193176 -315.56114197 312.45303345 C-315.45669413 306.93805168 -314.12457515 302.58994243 -311 298 C-305.04545909 293.05899797 -298.5203585 293.2261762 -291 293 C-290.98541748 292.39526855 -290.97083496 291.79053711 -290.95581055 291.16748047 C-290.88090812 288.40270735 -290.78438927 285.63908643 -290.6875 282.875 C-290.66494141 281.92367187 -290.64238281 280.97234375 -290.61914062 279.9921875 C-290.41433953 274.63012258 -290.02122696 270.61596661 -287 266 C-282.53396087 261.8689138 -279.32553152 260.87881231 -273.33862305 260.83886719 C-271.59617561 260.82445587 -271.59617561 260.82445587 -269.81852722 260.80975342 C-267.93415703 260.8033786 -267.93415703 260.8033786 -266.01171875 260.796875 C-264.0750811 260.78832489 -264.0750811 260.78832489 -262.09931946 260.77960205 C-259.36479296 260.76910206 -256.63029577 260.7632531 -253.89575195 260.75976562 C-250.40209213 260.75428808 -246.90882344 260.73027224 -243.41528606 260.70179367 C-240.07243807 260.67861865 -236.72964289 260.67671429 -233.38671875 260.671875 C-232.13654465 260.6595282 -230.88637054 260.6471814 -229.59831238 260.63446045 C-218.69779369 260.66239475 -218.69779369 260.66239475 -214 264 C-210.30944059 268.08953881 -208.90246797 270.56722485 -208.68359375 276.0078125 C-208.64169922 276.99394531 -208.59980469 277.98007812 -208.55664062 278.99609375 C-208.51732422 280.02863281 -208.47800781 281.06117188 -208.4375 282.125 C-208.39431641 283.16527344 -208.35113281 284.20554687 -208.30664062 285.27734375 C-208.2003712 287.85142528 -208.09833417 290.42560508 -208 293 C-207.13117188 293.03738281 -206.26234375 293.07476562 -205.3671875 293.11328125 C-191.88371269 293.88247277 -191.88371269 293.88247277 -186.6875 299.5 C-183.66445081 303.9785914 -183.83205954 308.11317227 -183.79467773 313.3269043 C-183.78477814 314.17590302 -183.77487854 315.02490173 -183.76467896 315.89962769 C-183.73307417 318.70779627 -183.70831052 321.51598178 -183.68359375 324.32421875 C-183.66302334 326.27049704 -183.64202685 328.21677088 -183.62062073 330.16304016 C-183.56540901 335.28728628 -183.51599573 340.41157265 -183.46777344 345.53588867 C-183.41755187 350.76419663 -183.36186922 355.99244608 -183.30664062 361.22070312 C-183.19907003 371.48042064 -183.09812718 381.74018782 -183 392 C-177.72 392 -172.44 392 -167 392 C-167 337.88 -167 283.76 -167 228 C-221.12 228 -275.24 228 -331 228 Z M-150 264 C-150 272.58 -150 281.16 -150 290 C-144.44004501 285.76030928 -144.44004501 285.76030928 -142.6640625 279.66796875 C-142.56778028 273.5540477 -143.31813701 269.94421601 -147 265 C-147.99 264.67 -148.98 264.34 -150 264 Z M112 264 C107.77738799 269.06713441 106 272.35599194 106 279 C107.60673049 284.15845053 108.59363594 285.69522696 113 289 C113 280.75 113 272.5 113 264 C112.67 264 112.34 264 112 264 Z M-274 277 C-274 282.28 -274 287.56 -274 293 C-257.83 293 -241.66 293 -225 293 C-225 287.72 -225 282.44 -225 277 C-241.17 277 -257.34 277 -274 277 Z M-298 310 C-298 315.28 -298 320.56 -298 326 C-265.66 326 -233.32 326 -200 326 C-200 320.72 -200 315.44 -200 310 C-232.34 310 -264.68 310 -298 310 Z M-298 343 C-298 359.17 -298 375.34 -298 392 C-265.66 392 -233.32 392 -200 392 C-200 375.83 -200 359.66 -200 343 C-205.28 343 -210.56 343 -216 343 C-216 345.97 -216 348.94 -216 352 C-221.61 352 -227.22 352 -233 352 C-233 349.03 -233 346.06 -233 343 C-243.56 343 -254.12 343 -265 343 C-265 345.97 -265 348.94 -265 352 C-270.94 352 -276.88 352 -283 352 C-283 349.03 -283 346.06 -283 343 C-287.95 343 -292.9 343 -298 343 Z M-150 404 C-150 412.58 -150 421.16 -150 430 C-144.42562724 425.74746272 -144.42562724 425.74746272 -142.6640625 419.6328125 C-142.57462947 413.89121169 -143.06121206 410.50147193 -147 406 C-147.99 405.34 -148.98 404.68 -150 404 Z M110.0625 406.625 C107.27164444 409.83871246 106.04232764 412.64846454 105.96484375 416.953125 C106.35748401 421.97125908 107.80296511 425.12480619 111 429 C111.66 429 112.32 429 113 429 C113 421.08 113 413.16 113 405 C111.70624175 404.89289796 111.70624175 404.89289796 110.0625 406.625 Z " fill="#000000" transform="translate(365,31)"/>
<path d="M0 0 C0.61230469 0.48210937 1.22460938 0.96421875 1.85546875 1.4609375 C2.74234375 2.0590625 3.62921875 2.6571875 4.54296875 3.2734375 C13.38315754 11.63577825 17.43304738 22.96074767 17.96362305 34.89331055 C18.37888564 52.6377353 17.77166858 67.22545559 5.25 81.0234375 C3.80010814 82.5180039 2.32924579 83.98996184 0.85546875 85.4609375 C1.72945312 85.53006348 1.72945312 85.53006348 2.62109375 85.60058594 C9.4680768 86.20615637 16.12408004 87.3356157 22.85546875 88.7109375 C23.87125 88.90300781 24.88703125 89.09507812 25.93359375 89.29296875 C35.11142171 91.16383368 43.68690577 94.09293172 49.85546875 101.4609375 C50.35820312 102.03585938 50.8609375 102.61078125 51.37890625 103.203125 C58.0514111 111.30777723 59.31287841 119.98902413 59.19604492 130.23486328 C59.196483 131.26044846 59.19692108 132.28603363 59.19737244 133.34269714 C59.19529983 136.69741553 59.17204108 140.05162004 59.1484375 143.40625 C59.14283612 145.7460808 59.13856858 148.08591514 59.13557434 150.42575073 C59.12416835 156.55779891 59.09473778 162.68963094 59.0614624 168.82159424 C59.03066978 175.08936642 59.0170494 181.35717383 59.00195312 187.625 C58.96986392 199.90375565 58.91713075 212.18229471 58.85546875 224.4609375 C47.96546875 224.4609375 37.07546875 224.4609375 25.85546875 224.4609375 C25.85546875 278.9109375 25.85546875 333.3609375 25.85546875 389.4609375 C-7.14453125 389.4609375 -40.14453125 389.4609375 -74.14453125 389.4609375 C-74.14453125 335.0109375 -74.14453125 280.5609375 -74.14453125 224.4609375 C-85.03453125 224.4609375 -95.92453125 224.4609375 -107.14453125 224.4609375 C-107.2350363 210.68258773 -107.30836527 196.90443662 -107.35177994 183.1258564 C-107.37262076 176.72734626 -107.40087489 170.32905072 -107.44628906 163.93066406 C-107.48987102 157.75148291 -107.51369471 151.5725077 -107.52404022 145.39318466 C-107.53140937 143.04015742 -107.54579949 140.68714097 -107.56745148 138.33420181 C-107.59664881 135.02870917 -107.60048033 131.72405866 -107.59863281 128.41845703 C-107.62020447 126.97159264 -107.62020447 126.97159264 -107.64221191 125.49549866 C-107.58454917 115.91001744 -104.38237976 106.91817234 -97.65234375 99.90625 C-89.33117485 92.19862351 -79.18086897 90.33624704 -68.33203125 88.2109375 C-67.00958953 87.94096535 -65.68732221 87.67013741 -64.36523438 87.3984375 C-54.7419882 85.4609375 -54.7419882 85.4609375 -50.14453125 85.4609375 C-51.03205078 84.42646484 -51.03205078 84.42646484 -51.9375 83.37109375 C-62.90497852 70.3282033 -66.5021661 60.71774815 -66.45703125 43.7109375 C-66.47314453 42.51210937 -66.48925781 41.31328125 -66.50585938 40.078125 C-66.51337324 26.22256391 -63.76051137 14.81955469 -54.26171875 4.39453125 C-39.61291101 -9.33501932 -16.50730252 -12.32785798 0 0 Z M-42.02734375 17.3984375 C-48.31437887 25.41668519 -48.48243762 32.38680335 -48.45703125 42.3359375 C-48.47314453 43.59019531 -48.48925781 44.84445313 -48.50585938 46.13671875 C-48.51086909 55.60507516 -47.35758595 61.7638774 -40.875 68.88671875 C-35.91530476 73.39858598 -29.81980415 75.55237959 -23.14453125 75.4609375 C-15.78777625 74.4099725 -9.25775809 71.30625331 -4.5 65.4296875 C0.27194421 58.05861517 0.09646698 51.39655079 0.16796875 42.7734375 C0.19697266 41.62681641 0.22597656 40.48019531 0.25585938 39.29882812 C0.31989945 30.69282673 -0.89301111 24.31142188 -6.51953125 17.6484375 C-13.30849537 11.9909674 -18.17976075 10.01910231 -26.9375 10.125 C-32.96075453 10.75593775 -37.7980671 13.04631879 -42.02734375 17.3984375 Z M-32.14453125 91.4609375 C-32.14453125 94.1009375 -32.14453125 96.7409375 -32.14453125 99.4609375 C-32.88646729 99.56543213 -33.62840332 99.66992676 -34.39282227 99.77758789 C-42.96311333 101.03505318 -51.42234201 102.64489374 -59.89477539 104.43774414 C-62.10198187 104.90263962 -64.31158914 105.3547218 -66.52148438 105.80664062 C-67.94677785 106.10599455 -69.37191425 106.40609751 -70.796875 106.70703125 C-72.6994104 107.10426392 -72.6994104 107.10426392 -74.64038086 107.50952148 C-80.64851422 109.14079688 -84.75819161 111.13954664 -88.14453125 116.4609375 C-90.00139737 121.78521795 -90.4241112 126.4123652 -90.37158203 131.96655273 C-90.37187408 132.78687485 -90.37216614 133.60719696 -90.37246704 134.45237732 C-90.37108289 137.14153934 -90.35556509 139.83041812 -90.33984375 142.51953125 C-90.33611036 144.39282581 -90.33326493 146.26612234 -90.33126831 148.13941956 C-90.32365749 153.05326799 -90.30403103 157.9669969 -90.28186035 162.88079834 C-90.26134683 167.90163557 -90.25225484 172.92249225 -90.2421875 177.94335938 C-90.22078262 187.78261286 -90.18562139 197.62174651 -90.14453125 207.4609375 C-84.86453125 207.4609375 -79.58453125 207.4609375 -74.14453125 207.4609375 C-74.14453125 182.7109375 -74.14453125 157.9609375 -74.14453125 132.4609375 C-68.53453125 132.4609375 -62.92453125 132.4609375 -57.14453125 132.4609375 C-57.14453125 148.9609375 -57.14453125 165.4609375 -57.14453125 182.4609375 C-35.69453125 182.4609375 -14.24453125 182.4609375 7.85546875 182.4609375 C7.85546875 165.9609375 7.85546875 149.4609375 7.85546875 132.4609375 C13.79546875 132.4609375 19.73546875 132.4609375 25.85546875 132.4609375 C25.85546875 157.2109375 25.85546875 181.9609375 25.85546875 207.4609375 C30.80546875 207.4609375 35.75546875 207.4609375 40.85546875 207.4609375 C40.94819648 196.090857 41.01924801 184.72086663 41.06271744 173.35048485 C41.08358186 168.07059741 41.11187887 162.7909689 41.15722656 157.51123047 C41.20072475 152.41486698 41.22461448 147.31875237 41.23497772 142.22221756 C41.24236193 140.27895821 41.25678163 138.3357123 41.27838898 136.39255905 C41.30747572 133.66814615 41.31142255 130.94475833 41.30957031 128.22021484 C41.33114197 127.01827484 41.33114197 127.01827484 41.35314941 125.79205322 C41.3146354 120.54801059 40.2756541 117.64902114 36.85546875 113.4609375 C33.24327875 109.98119446 30.21103811 108.71389056 25.35546875 107.5859375 C24.69909424 107.43157227 24.04271973 107.27720703 23.36645508 107.11816406 C20.86737611 106.54287625 18.36271273 105.99958474 15.85546875 105.4609375 C14.68935059 105.20989258 13.52323242 104.95884766 12.32177734 104.70019531 C8.39734794 103.86140871 4.47109557 103.03219624 0.54296875 102.2109375 C-0.10994141 102.07415588 -0.76285156 101.93737427 -1.43554688 101.79644775 C-3.31303083 101.40485319 -5.19165396 101.0187327 -7.0703125 100.6328125 C-8.71640503 100.2939502 -8.71640503 100.2939502 -10.39575195 99.94824219 C-13.17158132 99.37365821 -13.17158132 99.37365821 -16.14453125 99.4609375 C-16.14453125 96.8209375 -16.14453125 94.1809375 -16.14453125 91.4609375 C-21.42453125 91.4609375 -26.70453125 91.4609375 -32.14453125 91.4609375 Z M-57.14453125 200.4609375 C-57.14453125 257.2209375 -57.14453125 313.9809375 -57.14453125 372.4609375 C-49.22453125 372.4609375 -41.30453125 372.4609375 -33.14453125 372.4609375 C-33.14453125 315.7009375 -33.14453125 258.9409375 -33.14453125 200.4609375 C-41.06453125 200.4609375 -48.98453125 200.4609375 -57.14453125 200.4609375 Z M-15.14453125 200.4609375 C-15.14453125 257.2209375 -15.14453125 313.9809375 -15.14453125 372.4609375 C-7.55453125 372.4609375 0.03546875 372.4609375 7.85546875 372.4609375 C7.85546875 315.7009375 7.85546875 258.9409375 7.85546875 200.4609375 C0.26546875 200.4609375 -7.32453125 200.4609375 -15.14453125 200.4609375 Z " fill="#000000" transform="translate(371.14453125,116.5390625)"/>
<path d="M0 0 C3.93452424 2.09300465 5.75052625 6.2472048 7.89453125 10.0078125 C8.31476563 10.7296875 8.735 11.4515625 9.16796875 12.1953125 C13.46251298 20.96714752 13.24572864 32.01704447 11.12890625 41.40234375 C9.39225341 46.44001528 7.1010757 50.76689887 3.89453125 55.0078125 C3.31703125 55.7915625 2.73953125 56.5753125 2.14453125 57.3828125 C1.73203125 57.9190625 1.31953125 58.4553125 0.89453125 59.0078125 C-2.6894957 57.47533201 -5.13397009 55.3403524 -7.91796875 52.6328125 C-8.72878906 51.86195312 -9.53960937 51.09109375 -10.375 50.296875 C-12.10546875 48.0078125 -12.10546875 48.0078125 -11.9921875 45.9375 C-11.1222356 44.0443007 -10.20099169 42.27998197 -9.10546875 40.5078125 C-6.180528 35.4951423 -5.33691036 30.84885625 -6.10546875 25.0078125 C-7.59072627 20.65762698 -9.55900027 16.82751522 -12.10546875 13.0078125 C-11.88333183 9.03402984 -9.48836734 6.92600273 -6.79296875 4.1953125 C-5.62314453 2.97908203 -5.62314453 2.97908203 -4.4296875 1.73828125 C-2.10546875 0.0078125 -2.10546875 0.0078125 0 0 Z " fill="#000000" transform="translate(434.10546875,5.9921875)"/>
<path d="M0 0 C3.68069887 1.53643852 5.98775204 3.78150945 8.75 6.625 C9.54921875 7.44226563 10.3484375 8.25953125 11.171875 9.1015625 C11.77515625 9.72804688 12.3784375 10.35453125 13 11 C12.00312046 13.00723042 10.99858719 15.00260389 9.9296875 16.97265625 C6.90982775 22.95645242 5.86828976 28.34068026 7 35 C8.11888655 37.7565648 9.38952585 40.25122831 10.90625 42.80859375 C12 45 12 45 12 49 C9.8125 51.578125 9.8125 51.578125 7 54.25 C6.071875 55.14203125 5.14375 56.0340625 4.1875 56.953125 C3.465625 57.62859375 2.74375 58.3040625 2 59 C-3.82945524 56.69384188 -6.31975023 51.38633326 -9 46 C-13.25317601 33.51440534 -12.92080186 21.68248423 -7.4765625 9.6796875 C-5.4050813 5.92033273 -2.99544043 3.06510183 0 0 Z " fill="#000000" transform="translate(259,6)"/>
<path d="M0 0 C5.94 0 11.88 0 18 0 C18 5.94 18 11.88 18 18 C12.06 18 6.12 18 0 18 C0 12.06 0 6.12 0 0 Z " fill="#000000" transform="translate(115,208)"/>
<path d="M0 0 C5.94 0 11.88 0 18 0 C18 5.94 18 11.88 18 18 C12.06 18 6.12 18 0 18 C0 12.06 0 6.12 0 0 Z " fill="#000000" transform="translate(82,208)"/>
<path d="M0 0 C5.94 0 11.88 0 18 0 C18 5.94 18 11.88 18 18 C12.06 18 6.12 18 0 18 C0 12.06 0 6.12 0 0 Z " fill="#000000" transform="translate(49,208)"/>
<path d="M0 0 C5.94 0 11.88 0 18 0 C18 5.61 18 11.22 18 17 C12.06 17 6.12 17 0 17 C0 11.39 0 5.78 0 0 Z " fill="#000000" transform="translate(280,27)"/>
<path d="M0 0 C5.61 0 11.22 0 17 0 C17 5.61 17 11.22 17 17 C11.39 17 5.78 17 0 17 C0 11.39 0 5.78 0 0 Z " fill="#000000" transform="translate(396,27)"/>
</svg>
