<?xml version="1.0" encoding="UTF-8"?>
<svg version="1.1" xmlns="http://www.w3.org/2000/svg" width="512" height="512">
<path d="M0 0 C15.87504571 12.94944738 26.08858448 29.58158827 29.05664062 50.03271484 C30.29926462 68.3614187 26.61917165 85.32702338 16.30664062 100.72021484 C15.64664062 101.71021484 14.98664063 102.70021484 14.30664062 103.72021484 C15.33402344 103.93935547 16.36140625 104.15849609 17.41992188 104.38427734 C33.41483003 107.96580483 45.54105403 114.3459796 54.68164062 128.59521484 C61.52481401 141.48266228 61.8497139 152.9628565 61.69726562 167.23583984 C61.68979215 169.30376637 61.68410446 171.37170005 61.68011475 173.43963623 C61.66494553 178.84511353 61.62573998 184.25015123 61.58129883 189.65545654 C61.54015687 195.18609676 61.52206354 200.71680899 61.50195312 206.24755859 C61.45923635 217.07196899 61.39109217 227.89605516 61.30664062 238.72021484 C62.03293985 238.71652767 62.75923908 238.7128405 63.50754738 238.7090416 C81.18474972 238.62068186 98.86189593 238.55450104 116.5392704 238.51296616 C125.08794717 238.492346 133.63647648 238.46423593 142.18505859 238.41845703 C149.63651674 238.37857243 157.08786809 238.35277805 164.53943002 238.34386086 C168.4845676 238.33864883 172.42939964 238.32641033 176.37443924 238.29729462 C180.0894029 238.27009965 183.80393581 238.26177794 187.51898956 238.26778412 C189.52892049 238.26616282 191.53880473 238.24466138 193.5486145 238.22253418 C204.57007181 238.27290849 204.57007181 238.27290849 209.30664062 242.72021484 C213.36294461 247.94281342 213.08061606 253.37361627 212.30664062 259.72021484 C210.12524129 264.32539121 207.82167424 266.48170239 203.30664062 268.72021484 C200.26049805 269.06079102 200.26049805 269.06079102 196.91210938 269.01318359 C195.71005859 269.00351562 194.50800781 268.99384766 193.26953125 268.98388672 C192.02365234 268.95875 190.77777344 268.93361328 189.49414062 268.90771484 C188.22892578 268.89417969 186.96371094 268.88064453 185.66015625 268.86669922 C182.54188419 268.83139803 179.42448021 268.78208304 176.30664062 268.72021484 C176.3103278 269.85365892 176.31401497 270.987103 176.31781387 272.15489388 C176.4065721 299.72116702 176.47232464 327.28742165 176.51388931 354.85380745 C176.53452343 368.18466498 176.56266034 381.51539653 176.60839844 394.84619141 C176.64824005 406.4639285 176.67406726 418.08159727 176.6829946 429.69940078 C176.68821384 435.85219838 176.70049888 442.00480053 176.72956085 448.15753555 C176.75668746 453.94737984 176.76509108 459.73694794 176.75907135 465.52684975 C176.76017281 467.65292041 176.76814288 469.77900019 176.78346252 471.90501595 C176.80334699 474.8065752 176.79858512 477.70708997 176.78765869 480.6086731 C176.79931006 481.45109562 176.81096142 482.29351815 176.82296586 483.16146863 C176.76891788 488.46689655 175.91984571 491.57575127 172.30664062 495.72021484 C168.20979342 498.78323566 165.17977914 499.09645132 160.11763096 499.10053158 C159.40116562 499.1051915 158.68470028 499.10985142 157.94652387 499.11465254 C155.53916067 499.1266295 153.13235904 499.11719697 150.72499084 499.1078949 C148.98428247 499.11206664 147.24357681 499.11754327 145.50287622 499.12421471 C140.71423853 499.13870899 135.92577237 499.13441218 131.13712513 499.1270479 C125.97479759 499.12232837 120.81250781 499.13481527 115.65019226 499.14506531 C105.53483785 499.16228243 95.41954548 499.1630873 85.30418021 499.1578524 C77.08447328 499.15381496 68.86478471 499.15524919 60.64507866 499.16060066 C58.89188967 499.1617233 58.89188967 499.1617233 57.10328273 499.16286861 C54.72907078 499.16440005 52.35485884 499.16593839 49.9806469 499.16748358 C27.70380504 499.18121911 5.42699827 499.17576348 -16.84984279 499.16429836 C-37.24093087 499.1543644 -57.63192823 499.16730763 -78.02300232 499.19123255 C-98.94876867 499.21560031 -119.87449274 499.22523718 -140.800273 499.21857983 C-152.5532508 499.2150825 -164.3061588 499.21735353 -176.0591259 499.23483086 C-186.06398071 499.24952378 -196.06871659 499.25022641 -206.07356899 499.23275995 C-211.18011851 499.22422365 -216.28645528 499.22216439 -221.39299393 499.2374115 C-226.06556611 499.2511904 -230.73774193 499.24658349 -235.41029079 499.22717226 C-237.10269869 499.22339097 -238.79513783 499.22639508 -240.48751806 499.23678391 C-242.78499548 499.24988686 -245.0810913 499.23843202 -247.37850857 499.22078609 C-248.65545572 499.22067876 -249.93240287 499.22057142 -251.24804538 499.22046083 C-256.20223367 498.50113225 -259.33994172 496.31881911 -262.54581165 492.5321703 C-264.16968139 488.5530335 -264.09815223 484.98817449 -264.05412292 480.72892761 C-264.0566862 479.82219042 -264.05924947 478.91545322 -264.06189042 477.98123914 C-264.06683242 474.94247146 -264.05032833 471.90420044 -264.03393555 468.86547852 C-264.03308937 466.68742891 -264.03356424 464.50937845 -264.03526306 462.33132935 C-264.03612478 456.41645001 -264.01847018 450.50175271 -263.99754119 444.58691573 C-263.97880401 438.4062859 -263.97702628 432.22565202 -263.97346497 426.04499817 C-263.96413581 414.34014719 -263.93951019 402.63538013 -263.9094165 390.93056613 C-263.87565901 377.60544273 -263.85939329 364.28031897 -263.84433019 350.95516241 C-263.81296145 323.54346666 -263.76018398 296.13184545 -263.69335938 268.72021484 C-264.47984863 268.74116211 -265.26633789 268.76210938 -266.07666016 268.78369141 C-269.65709535 268.86709237 -273.23732579 268.9189526 -276.81835938 268.97021484 C-278.05585938 269.00373047 -279.29335938 269.03724609 -280.56835938 269.07177734 C-291.97740652 269.19445527 -291.97740652 269.19445527 -296.69335938 264.72021484 C-300.74966336 259.49761627 -300.46733481 254.06681342 -299.69335938 247.72021484 C-297.50862903 243.10800634 -295.20012713 240.98220815 -290.69335938 238.72021484 C-287.86045361 238.35107136 -287.86045361 238.35107136 -284.70121765 238.35945129 C-283.49953445 238.3553273 -282.29785126 238.35120331 -281.05975342 238.34695435 C-279.74992493 238.35774017 -278.44009644 238.368526 -277.09057617 238.37963867 C-275.69084186 238.38048532 -274.29110622 238.38000907 -272.89137268 238.37831116 C-269.09828416 238.37745123 -265.30548086 238.39507637 -261.51245856 238.41603303 C-257.54598424 238.43480036 -253.57950321 238.43655031 -249.61299133 238.44010925 C-242.10490979 238.44942956 -234.59695946 238.47404312 -227.08893567 238.50415772 C-218.54002871 238.53770219 -209.99111546 238.55418785 -201.44215906 238.56924403 C-183.85914996 238.60059272 -166.27626855 238.65335291 -148.69335938 238.72021484 C-148.70224182 237.5817511 -148.71112427 236.44328735 -148.72027588 235.27032471 C-148.80162776 224.50190099 -148.86145202 213.73354024 -148.90060806 202.96487808 C-148.92141585 197.42957933 -148.94960844 191.89453016 -148.99511719 186.359375 C-149.03881855 181.01011477 -149.06254759 175.66109348 -149.07286835 170.3116684 C-149.0802163 168.27847283 -149.09456434 166.24528923 -149.1162796 164.21219635 C-149.3001992 146.26675249 -146.76034674 132.19158799 -134.19335938 118.53271484 C-125.04628222 109.81076421 -113.96092159 105.85990593 -101.69335938 103.72021484 C-102.21285156 102.94419922 -102.73234375 102.16818359 -103.26757812 101.36865234 C-111.10507197 89.22850477 -115.4028206 77.2208519 -116.69335938 62.72021484 C-116.76554688 61.95580078 -116.83773437 61.19138672 -116.91210938 60.40380859 C-117.78327693 41.27442099 -109.53657666 23.09000541 -97.27539062 8.92724609 C-88.8989529 0.12466209 -78.99685808 -5.92123269 -67.69335938 -10.27978516 C-66.86320313 -10.60076172 -66.03304687 -10.92173828 -65.17773438 -11.25244141 C-43.72932016 -17.99426751 -17.86070101 -13.49852865 0 0 Z M-75.88085938 31.97021484 C-82.9100007 40.68481785 -86.14318727 50.52042437 -85.56835938 61.65771484 C-84.0932681 74.86571602 -78.20853821 84.32939137 -68.26367188 92.89208984 C-59.57470874 99.07208186 -49.2431549 101.73654521 -38.69335938 100.72021484 C-30.35837742 98.95218837 -23.31849296 96.09581439 -16.69335938 90.72021484 C-16.06816406 90.21876953 -15.44296875 89.71732422 -14.79882812 89.20068359 C-7.12266882 82.3272599 -2.42772386 71.95444335 -1.69335938 61.72021484 C-1.56443225 48.03552139 -6.01060613 37.84727189 -15.31445312 28.00537109 C-24.49449565 19.35367634 -35.87449977 17.16091187 -48.02539062 17.37646484 C-59.08415818 17.91275585 -68.50573976 24.01628837 -75.88085938 31.97021484 Z M-113.94335938 143.22021484 C-118.71136933 150.03165764 -118.84647011 156.86775705 -118.80688477 165.04223633 C-118.8070053 165.8558793 -118.80712584 166.66952227 -118.80725002 167.50782108 C-118.80650878 170.11901224 -118.7989168 172.73013035 -118.79101562 175.34130859 C-118.78954376 176.96244268 -118.78852456 178.58357725 -118.78796387 180.20471191 C-118.78273934 186.18905351 -118.76877807 192.17338491 -118.75585938 198.15771484 C-118.73523438 211.54333984 -118.71460938 224.92896484 -118.69335938 238.72021484 C-69.19335938 238.72021484 -19.69335938 238.72021484 31.30664062 238.72021484 C31.34789062 225.37583984 31.38914062 212.03146484 31.43164062 198.28271484 C31.44984863 194.08367432 31.46805664 189.88463379 31.48681641 185.55834961 C31.49350911 181.76372691 31.49350911 181.76372691 31.49752808 177.96910095 C31.50058052 176.29115231 31.50757547 174.61320779 31.51779175 172.93528748 C31.53256041 170.3798776 31.53444832 167.82473365 31.53369141 165.26928711 C31.54448573 164.16555299 31.54448573 164.16555299 31.55549812 163.03952122 C31.52439514 155.12644174 30.41594271 147.99735741 25.30664062 141.72021484 C17.88170811 135.03777558 10.81406796 134.56213432 1.18945312 134.62255859 C0.33229706 134.62397354 -0.52485901 134.62538849 -1.4079895 134.62684631 C-4.12814927 134.63241463 -6.84822476 134.6449612 -9.56835938 134.65771484 C-11.41992068 134.66273394 -13.27148329 134.66729613 -15.12304688 134.67138672 C-19.64651653 134.68237367 -24.16992369 134.69961632 -28.69335938 134.72021484 C-28.70215874 135.79350288 -28.70215874 135.79350288 -28.71113586 136.88847351 C-28.76911401 143.64183911 -28.84121973 150.3948902 -28.92907429 157.14793682 C-28.9737431 160.6195155 -29.01300644 164.09097779 -29.03979492 167.56274414 C-29.07085392 171.55694045 -29.12564126 175.55050853 -29.18164062 179.54443359 C-29.18803055 180.78730637 -29.19442047 182.03017914 -29.20100403 183.31071472 C-29.22079819 184.47154068 -29.24059235 185.63236664 -29.26098633 186.82836914 C-29.27208939 187.84762985 -29.28319244 188.86689056 -29.29463196 189.91703796 C-29.90754118 194.22597911 -31.58777435 196.86488048 -35.00585938 199.50927734 C-38.10532667 200.90583964 -40.30387158 201.1211548 -43.69335938 201.09521484 C-44.70398438 201.10294922 -45.71460938 201.11068359 -46.75585938 201.11865234 C-50.17803507 200.65447426 -51.96689497 199.82954035 -54.69335938 197.72021484 C-57.3763045 193.99881645 -58.07607484 191.3869347 -58.12573242 186.82836914 C-58.14552658 185.66754318 -58.16532074 184.50671722 -58.18571472 183.31071472 C-58.19210464 182.06784195 -58.19849457 180.82496918 -58.20507812 179.54443359 C-58.22302933 178.26413773 -58.24098053 176.98384186 -58.25947571 175.66474915 C-58.30686322 172.27331631 -58.33674471 168.88194948 -58.36291504 165.49029541 C-58.39277783 162.02448495 -58.43928835 158.55890165 -58.484375 155.09326172 C-58.56934857 148.30235111 -58.63768157 141.51142542 -58.69335938 134.72021484 C-64.10106083 134.67051171 -69.50862718 134.63435244 -74.91650391 134.61035156 C-76.75344156 134.60033836 -78.59036345 134.58672382 -80.42724609 134.56933594 C-83.07849026 134.54488062 -85.72952238 134.53368471 -88.38085938 134.52490234 C-89.19264648 134.51457977 -90.00443359 134.5042572 -90.84082031 134.49362183 C-99.95499697 134.49185715 -107.58911246 136.15994049 -113.94335938 143.22021484 Z M-233.69335938 268.72021484 C-233.69335938 334.72021484 -233.69335938 400.72021484 -233.69335938 468.72021484 C-108.29335937 468.72021484 17.10664063 468.72021484 146.30664062 468.72021484 C146.30664062 402.72021484 146.30664062 336.72021484 146.30664062 268.72021484 C20.90664063 268.72021484 -104.49335938 268.72021484 -233.69335938 268.72021484 Z " fill="#000000" transform="translate(299.693359375,13.27978515625)"/>
<path d="M0 0 C2.77103538 2.56561162 4.56644587 5.10887483 6.6015625 8.29296875 C7.03307617 8.9080127 7.46458984 9.52305664 7.90917969 10.15673828 C10.66310058 14.15264187 12.90280372 18.12697994 14.87295532 22.56950378 C18.68583919 30.99338767 23.08749967 40.61431933 31.4765625 45.29296875 C43.57161851 49.0507967 57.71383567 47.64529788 70.15563965 46.5151825 C75.88321549 46.05292518 79.39976777 46.52656913 84.4765625 49.29296875 C87.39847635 51.80869727 89.25078659 54.61564101 90.4765625 58.29296875 C90.8450056 63.91172599 90.66846478 67.45008254 87.4765625 72.29296875 C85.21503894 74.33385587 83.19507227 75.93371387 80.4765625 77.29296875 C78.5642395 77.16856384 78.5642395 77.16856384 76.19580078 76.83178711 C51.64729154 73.15283709 51.64729154 73.15283709 28.86993408 80.14117432 C18.51274657 89.83630201 11.82130753 103.24957735 5.72338867 115.88574219 C3.37190046 120.68971582 0.97264263 125.23862523 -4.2734375 127.16796875 C-8.78048904 128.63401711 -11.9163005 128.40759867 -16.5234375 127.29296875 C-20.89204943 124.98502282 -23.51677108 122.83437171 -25.5234375 118.29296875 C-27.11654133 111.67546053 -26.01820869 106.89629394 -22.64404297 101.01977539 C-21.9023536 99.90786341 -21.15081275 98.80247297 -20.390625 97.703125 C-19.99392609 97.11373642 -19.59722717 96.52434784 -19.18850708 95.917099 C-17.93378482 94.05720012 -16.6664329 92.20633689 -15.3984375 90.35546875 C-14.5395106 89.08716646 -13.68142924 87.81829112 -12.82421875 86.54882812 C-10.73368717 83.45685957 -8.6317458 80.37285208 -6.5234375 77.29296875 C-7.3598024 77.30407181 -8.1961673 77.31517487 -9.05787659 77.32661438 C-16.95817531 77.42699745 -24.85825838 77.50302524 -32.75904942 77.55202961 C-36.82051976 77.57807093 -40.88146105 77.61336721 -44.94262695 77.67016602 C-48.86544394 77.72468358 -52.78775361 77.75443037 -56.71092033 77.76735497 C-58.20402953 77.77655972 -59.69711244 77.79453487 -61.19000435 77.82161903 C-74.34378568 78.0506619 -74.34378568 78.0506619 -78.83837891 75.0246582 C-81.11369529 72.70982687 -82.6989267 71.01138989 -84.04296875 68.09765625 C-84.42050293 67.3085083 -84.79803711 66.51936035 -85.18701172 65.70629883 C-85.56615723 64.8686499 -85.94530273 64.03100098 -86.3359375 63.16796875 C-87.1866524 61.37658172 -88.03957722 59.58624275 -88.89453125 57.796875 C-89.32491699 56.88566895 -89.75530273 55.97446289 -90.19873047 55.03564453 C-92.68630275 49.88537047 -95.41606729 44.86236439 -98.12426758 39.82568359 C-106.43424314 24.2299893 -106.43424314 24.2299893 -105.5234375 16.29296875 C-103.71033176 11.15583583 -101.05692572 8.28678173 -96.5234375 5.29296875 C-91.53148773 3.60831489 -87.35219467 4.2823162 -82.48046875 6.015625 C-77.11636492 9.51674666 -74.24751028 15.28068404 -71.53515625 20.87890625 C-71.2256604 21.50192627 -70.91616455 22.12494629 -70.59729004 22.7668457 C-69.45963788 25.06284732 -68.33607775 27.36580992 -67.2109375 29.66796875 C-64.6740625 34.82421875 -62.1371875 39.98046875 -59.5234375 45.29296875 C-42.3634375 45.29296875 -25.2034375 45.29296875 -7.5234375 45.29296875 C-13.07193969 36.82564208 -13.07193969 36.82564208 -18.62280273 28.35986328 C-19.31059814 27.30911621 -19.99839355 26.25836914 -20.70703125 25.17578125 C-21.41400146 24.09699707 -22.12097168 23.01821289 -22.84936523 21.90673828 C-25.9901451 17.00296269 -26.14452899 13.05531759 -25.5234375 7.29296875 C-24.22679566 3.48760682 -22.30000973 0.890332 -19.0859375 -1.58203125 C-12.48892628 -4.47828008 -6.05544491 -4.09633038 0 0 Z " fill="#000000" transform="translate(263.5234375,319.70703125)"/>
</svg>
