<?xml version="1.0" encoding="UTF-8"?>
<svg version="1.1" xmlns="http://www.w3.org/2000/svg" width="512" height="512">
<path d="M0 0 C1.27397392 -0.01469078 1.27397392 -0.01469078 2.57368469 -0.02967834 C21.67002704 -0.20445109 40.13057034 -0.01310179 58.84765625 4.23828125 C59.79398926 4.45258789 60.74032227 4.66689453 61.71533203 4.88769531 C83.2982909 9.95952454 121.89608368 19.44147656 135.29296875 38.26953125 C136.34714486 42.01111408 135.77240483 45.51188697 134.84765625 49.23828125 C132.6394919 52.77134421 131.1449629 53.15899948 127.09765625 54.23828125 C123.86077235 54.49904989 121.89531361 54.01990234 119.0390625 52.50390625 C117.99564697 51.95379883 117.99564697 51.95379883 116.93115234 51.39257812 C114.40703586 49.99416908 111.90907031 48.55760816 109.42285156 47.09301758 C65.37390301 21.31424207 11.40052744 15.14230917 -37.80859375 27.625 C-89.02349903 41.36190251 -133.32239272 74.36148538 -160.03662109 120.27197266 C-170.71668441 139.09412363 -178.2894875 159.1698481 -183.15234375 180.23828125 C-183.33168457 180.98819336 -183.51102539 181.73810547 -183.69580078 182.51074219 C-189.5137665 208.03583905 -188.37845735 238.96923462 -182.15234375 264.23828125 C-181.81493164 265.6145166 -181.81493164 265.6145166 -181.47070312 267.01855469 C-178.82330675 277.49509709 -175.49007243 287.56130243 -171.25390625 297.5 C-170.15234375 300.23828125 -170.15234375 300.23828125 -170.15234375 302.23828125 C-168.85296875 302.15578125 -167.55359375 302.07328125 -166.21484375 301.98828125 C-139.96879829 302.02545695 -115.73197566 317.01598035 -97.59765625 334.734375 C-80.6157365 352.62708975 -69.81866236 377.54585831 -70.15234375 402.23828125 C-69.61794678 402.41496338 -69.0835498 402.59164551 -68.53295898 402.77368164 C-64.44938637 404.12869531 -60.37465323 405.50385301 -56.3125 406.921875 C-45.04838656 410.82010402 -33.87690355 414.06749074 -22.15234375 416.23828125 C-20.99992187 416.45226562 -19.8475 416.66625 -18.66015625 416.88671875 C32.22464817 425.14801641 85.05819649 411.86805987 127.03515625 382.36328125 C170.76192707 350.71989058 199.833829 303.57961693 208.7668457 250.30297852 C211.85676779 228.08361351 211.83560966 203.14634591 206.84765625 181.23828125 C206.6760498 180.43551758 206.50444336 179.63275391 206.32763672 178.80566406 C201.74751099 157.6118383 194.24109757 136.44777449 182.41015625 118.17578125 C179.32032593 113.30382438 177.53646575 110.0471706 177.84765625 104.23828125 C179.52337723 100.04897879 181.74067835 98.05299242 185.84765625 96.23828125 C190.57473992 95.64739579 193.05655196 96.41910924 196.84765625 99.23828125 C198.66466287 101.55569949 200.09422231 104.04930954 201.53515625 106.61328125 C201.96231934 107.36150146 202.38948242 108.10972168 202.82958984 108.88061523 C222.10722905 143.22133476 232.30633232 180.15440369 232.22265625 219.55078125 C232.22244476 220.47214874 232.22223328 221.39351624 232.22201538 222.34280396 C232.1870948 237.63354787 231.17003794 252.26435883 227.84765625 267.23828125 C227.6657373 268.08213379 227.48381836 268.92598633 227.29638672 269.79541016 C221.43665288 296.20348679 210.54326364 322.16066862 194.84765625 344.23828125 C194.39277832 344.87958984 193.93790039 345.52089844 193.46923828 346.18164062 C187.52423996 354.484378 181.25850057 362.28520545 174.22265625 369.6875 C171.82756718 372.19259753 171.82756718 372.19259753 169.76171875 374.8671875 C168.02796811 377.01491533 166.32618017 378.71595046 164.22265625 380.48828125 C162.01681619 382.36405035 159.8436972 384.24202035 157.73828125 386.23046875 C144.69522939 398.50892792 129.73374526 408.0856668 113.84765625 416.23828125 C113.120625 416.61936035 112.39359375 417.00043945 111.64453125 417.39306641 C84.81674513 431.34803405 54.05077492 440.18547212 23.6953125 440.4765625 C22.8458606 440.48631104 21.99640869 440.49605957 21.12121582 440.50610352 C2.01112767 440.68021939 -16.41014969 440.42392495 -35.15234375 436.23828125 C-36.45800293 435.94945068 -36.45800293 435.94945068 -37.79003906 435.65478516 C-49.20217482 433.04685723 -60.19292906 429.32175074 -71.15234375 425.23828125 C-71.22710937 425.84671875 -71.301875 426.45515625 -71.37890625 427.08203125 C-75.16609805 452.32997658 -90.13271696 475.67717396 -110.15234375 491.23828125 C-134.99929578 509.28235667 -163.38998061 515.49663532 -193.83203125 511.77734375 C-197.37316389 511.13003993 -200.71538024 510.30576168 -204.15234375 509.23828125 C-205.09062012 508.94824219 -205.09062012 508.94824219 -206.04785156 508.65234375 C-234.22629829 499.67955088 -255.86188931 480.97980239 -269.875 455.05078125 C-281.65054921 430.95758594 -284.76218791 400.84123888 -276.15234375 375.23828125 C-275.80171875 374.13484375 -275.45109375 373.03140625 -275.08984375 371.89453125 C-265.57338825 344.66689468 -245.58937275 323.58979856 -219.83984375 310.98828125 C-211.94673672 307.50402439 -201.87464618 303.23828125 -193.15234375 303.23828125 C-193.39879639 302.55652832 -193.64524902 301.87477539 -193.89916992 301.17236328 C-201.91411552 278.75296119 -208.22462807 255.88907133 -208.35546875 231.91015625 C-208.36248306 231.04712387 -208.36949738 230.18409149 -208.37672424 229.29490662 C-208.39413126 226.52597782 -208.40057619 223.75726275 -208.40234375 220.98828125 C-208.40301849 220.04320709 -208.40369324 219.09813293 -208.40438843 218.12442017 C-208.38901811 204.6001238 -208.04881315 191.49704652 -205.15234375 178.23828125 C-204.9807373 177.39716797 -204.80913086 176.55605469 -204.63232422 175.68945312 C-196.56667742 136.50727619 -178.13629952 99.83598471 -150.52734375 70.7890625 C-148.13225468 68.28396497 -148.13225468 68.28396497 -146.06640625 65.609375 C-144.33265561 63.46164717 -142.63086767 61.76061204 -140.52734375 59.98828125 C-138.32150369 58.11251215 -136.1483847 56.23454215 -134.04296875 54.24609375 C-120.99991689 41.96763458 -106.03843276 32.3908957 -90.15234375 24.23828125 C-89.4253125 23.85720215 -88.69828125 23.47612305 -87.94921875 23.08349609 C-61.12132944 9.12847477 -30.35553476 0.29129019 0 0 Z M-235.4375 347.36328125 C-254.4423443 367.48927464 -260.09974813 390.25379322 -259.3359375 417.109375 C-258.96080086 423.50266117 -257.40227608 429.24092064 -255.15234375 435.23828125 C-254.79011719 436.27597656 -254.42789063 437.31367188 -254.0546875 438.3828125 C-246.05285832 459.5130665 -229.35958742 475.54799199 -209.12890625 484.99609375 C-186.4634891 494.45488988 -163.81796437 493.80773849 -140.96484375 484.98828125 C-120.39224959 475.91538115 -104.66850897 458.90132789 -96.15234375 438.23828125 C-89.54510461 419.41508549 -88.04818628 398.17493705 -95.15234375 379.23828125 C-95.51457031 378.20058594 -95.87679687 377.16289062 -96.25 376.09375 C-104.19551934 355.11219214 -120.6095629 339.21514813 -140.66015625 329.73828125 C-172.98019011 315.8558506 -210.37117407 322.55775114 -235.4375 347.36328125 Z " fill="#000000" transform="translate(280.15234375,-0.23828125)"/>
<path d="M0 0 C13.68003479 7.81716274 21.79019347 22.25050578 26.09619141 37.12231445 C30.12252946 52.8465959 28.27754605 69.46705015 27.66796875 85.5078125 C27.62168335 86.74088135 27.57539795 87.9739502 27.52770996 89.24438477 C27.41493878 92.24628092 27.30152545 95.24815128 27.1875 98.25 C28.00530441 98.55796509 28.82310883 98.86593018 29.66569519 99.18322754 C37.47357786 102.12356658 45.28131284 105.06429739 53.08889294 108.00543976 C57.10028111 109.51652863 61.11172104 111.02747977 65.12329102 112.53808594 C65.89948225 112.83039093 66.67567348 113.12269592 67.47538567 113.42385864 C69.03128305 114.00976706 70.58720766 114.59560316 72.14315987 115.18136597 C75.95973015 116.61850431 79.77548271 118.05774613 83.58956909 119.50146484 C90.02632811 121.93682876 96.46425339 124.36184725 102.93603516 126.703125 C103.91397537 127.06144409 104.89191559 127.41976318 105.89949036 127.78894043 C107.63045001 128.42187344 109.36524233 129.04448681 111.1047821 129.65344238 C116.38846628 131.60089849 120.55539287 133.98578573 123.1875 139.25 C123.29702443 140.69856141 123.34650711 142.15190761 123.36450195 143.60449219 C123.37733719 144.50592957 123.39017242 145.40736694 123.40339661 146.33612061 C123.41447701 147.80169403 123.41447701 147.80169403 123.42578125 149.296875 C123.433853 150.30083313 123.44192474 151.30479126 123.45024109 152.33917236 C123.46408842 154.46763377 123.47480766 156.59611744 123.48266602 158.72460938 C123.49985757 161.97308748 123.54373592 165.22054238 123.58789062 168.46875 C123.59801934 170.53645085 123.60653488 172.60416035 123.61328125 174.671875 C123.63078934 175.64082703 123.64829742 176.60977905 123.66633606 177.60809326 C123.64758995 183.46501146 123.08729067 186.7871331 119.1875 191.25 C110.40366845 195.64191578 95.48081769 190.9640562 86.1484375 189.44140625 C84.33203368 189.15162112 82.51551325 188.86256607 80.69888306 188.57420349 C76.91762276 187.97205394 73.13740485 187.36386489 69.35791016 186.75073242 C64.50812858 185.96408203 59.65664163 185.18862844 54.80443382 184.41709995 C51.06545772 183.82207045 47.3270831 183.2233374 43.58891678 182.62324333 C41.79879924 182.33591938 40.0085747 182.04926127 38.21824265 181.76327705 C35.7287421 181.3646093 33.24001002 180.96146754 30.75146484 180.55688477 C29.64038864 180.37993828 29.64038864 180.37993828 28.50686646 180.19941711 C23.41682669 179.36466334 23.41682669 179.36466334 21.1875 178.25 C21.19837646 178.91394775 21.20925293 179.57789551 21.22045898 180.26196289 C21.29484278 188.67158181 20.89808476 197.01722154 20.38793945 205.40698242 C20.24876663 207.70789107 20.11723033 210.00915443 19.98632812 212.31054688 C19.89888922 213.78908928 19.81101457 215.267606 19.72265625 216.74609375 C19.68406998 217.42635117 19.6454837 218.10660858 19.60572815 218.80747986 C19.3840378 222.36639618 18.98613374 225.77337306 18.1875 229.25 C18.88230469 229.50652344 19.57710937 229.76304687 20.29296875 230.02734375 C29.96107512 234.11117276 40.17819819 240.32918423 45.04833984 249.95068359 C47.89311934 256.96265337 47.64224926 264.3145351 47.57861328 271.75341797 C47.56243262 274.00939468 47.57857556 276.26360664 47.59765625 278.51953125 C47.59567535 279.96614975 47.59183484 281.41276716 47.5859375 282.859375 C47.58255371 284.15842773 47.57916992 285.45748047 47.57568359 286.79589844 C47.16195299 290.47732023 46.42813719 292.3348685 44.1875 295.25 C39.38636294 298.45075804 34.21866561 297.73769779 28.64093018 296.840271 C26.00776994 296.27807854 23.40028428 295.64862874 20.7890625 294.9921875 C18.82567401 294.5266972 16.86212728 294.06187392 14.8984375 293.59765625 C11.8531687 292.86453598 8.80999792 292.1243805 5.76953125 291.37158203 C-9.95154927 287.34758428 -9.95154927 287.34758428 -25.8125 289.25 C-27.98321075 289.74750007 -30.15966725 290.21363352 -32.33706665 290.68093872 C-34.73812466 291.19780142 -37.1350229 291.73074125 -39.53125 292.26953125 C-40.33820313 292.45080566 -41.14515625 292.63208008 -41.9765625 292.81884766 C-43.62136625 293.19056025 -45.26557314 293.56492353 -46.90917969 293.94189453 C-69.62587936 299.13595916 -69.62587936 299.13595916 -75.875 295.4375 C-80.41652874 290.30996755 -79.03606068 282.89667658 -79.05273438 276.41894531 C-79.06237691 274.15391422 -79.09337954 271.88981578 -79.125 269.625 C-79.21432304 257.78495251 -78.07768255 249.59328341 -69.69921875 240.7578125 C-64.99781945 236.67351162 -56.24557217 229.25 -49.8125 229.25 C-49.96947861 228.52190628 -50.12645721 227.79381256 -50.28819275 227.0436554 C-50.76201724 224.51898623 -51.03554858 222.11164147 -51.20141602 219.55151367 C-51.26140274 218.65095749 -51.32138947 217.75040131 -51.38319397 216.82255554 C-51.44365402 215.8640419 -51.50411407 214.90552826 -51.56640625 213.91796875 C-51.63157944 212.92622147 -51.69675262 211.93447418 -51.76390076 210.91267395 C-51.97072458 207.75447716 -52.17292304 204.59600372 -52.375 201.4375 C-52.51466877 199.29229782 -52.65463924 197.14711525 -52.79492188 195.00195312 C-53.13761196 189.75152448 -53.47650803 184.50086131 -53.8125 179.25 C-55.33227448 179.49429749 -55.33227448 179.49429749 -56.88275146 179.74353027 C-66.47239889 181.28377021 -76.06358276 182.81410294 -85.65632248 184.33496857 C-90.5869487 185.117007 -95.51698606 185.90241885 -100.44580078 186.69580078 C-105.21021476 187.46258783 -109.97601216 188.22017276 -114.74286652 188.97163391 C-116.55325811 189.25863843 -118.36314463 189.54884944 -120.17247772 189.842453 C-141.58750412 193.3125971 -141.58750412 193.3125971 -148.8125 192.25 C-151.78611086 190.03436838 -153.18209793 188.51080415 -154.8125 185.25 C-154.92202443 183.80143859 -154.97150711 182.34809239 -154.98950195 180.89550781 C-155.00233719 179.99407043 -155.01517242 179.09263306 -155.02839661 178.16387939 C-155.03578354 177.18683044 -155.04317047 176.20978149 -155.05078125 175.203125 C-155.058853 174.19916687 -155.06692474 173.19520874 -155.07524109 172.16082764 C-155.08908842 170.03236623 -155.09980766 167.90388256 -155.10766602 165.77539062 C-155.12485757 162.52691252 -155.16873592 159.27945762 -155.21289062 156.03125 C-155.22301934 153.96354915 -155.23153488 151.89583965 -155.23828125 149.828125 C-155.25578934 148.85917297 -155.27329742 147.89022095 -155.29133606 146.89190674 C-155.27319366 141.22360954 -154.90131903 137.54553385 -150.8125 133.25 C-148.39008293 131.92942246 -146.31944982 130.9884638 -143.75390625 130.0859375 C-143.03706665 129.81549118 -142.32022705 129.54504486 -141.58166504 129.2664032 C-139.18589044 128.36744782 -136.78086375 127.49655474 -134.375 126.625 C-132.68018838 125.9946893 -130.98611299 125.36239592 -129.29272461 124.72827148 C-125.5605776 123.33359704 -121.82455727 121.94997922 -118.0859375 120.57275391 C-111.18919507 118.02665604 -104.31282295 115.42750438 -97.4375 112.82421875 C-96.22859604 112.36658142 -95.01969208 111.90894409 -93.77415466 111.43743896 C-91.34648062 110.51841376 -88.91882245 109.5993466 -86.49118042 108.68023682 C-80.67467653 106.48027841 -74.85508025 104.28854784 -69.03515625 102.09765625 C-67.99951538 101.70777023 -66.96387451 101.31788422 -65.89685059 100.91618347 C-63.53545569 100.02730859 -61.1740112 99.13856583 -58.8125 98.25 C-58.84115646 97.49558624 -58.86981293 96.74117249 -58.89933777 95.96389771 C-59.0312987 92.47856393 -59.16213904 88.99318891 -59.29296875 85.5078125 C-59.33804565 84.3216333 -59.38312256 83.1354541 -59.42956543 81.91333008 C-60.45578161 54.48196236 -60.78440898 29.36279869 -41.95703125 7.3046875 C-38.34594786 3.84488811 -34.2991682 1.41648253 -29.8125 -0.75 C-29.06484375 -1.12125 -28.3171875 -1.4925 -27.546875 -1.875 C-18.87354897 -4.65046433 -8.09686438 -3.98800783 0 0 Z M-29.90039062 27.00683594 C-35.70845603 37.18366508 -39.20884193 46.80827152 -39.06054688 58.6315918 C-39.05476372 59.47082278 -39.04898056 60.31005377 -39.04302216 61.174716 C-38.84731084 75.02312641 -37.84884753 88.85881773 -36.99513817 102.67905641 C-36.73802363 106.86636794 -36.48854343 111.05413412 -36.23840332 115.24186707 C-35.65731012 124.95045199 -35.06749249 134.65849663 -34.47653961 144.3664856 C-33.72362875 156.74068294 -32.97435133 169.1150938 -32.2337966 181.49003714 C-31.93695835 186.44533739 -31.63563461 191.40033692 -31.33060455 196.35513937 C-31.14096501 199.44986998 -30.95508042 202.54481852 -30.77011299 205.63983154 C-30.68462413 207.05753272 -30.59762746 208.47514405 -30.50887871 209.89264488 C-30.05964947 217.08034685 -29.72007283 224.26314556 -29.63586426 231.46440125 C-29.61224194 233.27421998 -29.61224194 233.27421998 -29.5881424 235.1206007 C-29.80475772 238.14200859 -30.13859385 239.7651096 -31.8125 242.25 C-34.10327148 243.92578125 -34.10327148 243.92578125 -36.93359375 245.5625 C-38.46016602 246.46355469 -38.46016602 246.46355469 -40.01757812 247.3828125 C-41.08427734 247.99898437 -42.15097656 248.61515625 -43.25 249.25 C-45.35723476 250.47165945 -47.46029629 251.70055298 -49.55859375 252.9375 C-50.49372803 253.47761719 -51.4288623 254.01773438 -52.39233398 254.57421875 C-54.85974289 256.28271212 -56.28835177 257.67702264 -57.8125 260.25 C-58.17502397 263.75654968 -58.17502397 263.75654968 -58 267.5 C-57.97292969 268.76328125 -57.94585937 270.0265625 -57.91796875 271.328125 C-57.88316406 272.29234375 -57.84835938 273.2565625 -57.8125 274.25 C-54.8536192 273.66934281 -51.89533343 273.08595533 -48.9375 272.5 C-48.03870117 272.32243164 -47.13990234 272.14486328 -46.21386719 271.96191406 C-41.71380094 271.06379491 -37.22757773 270.13298367 -32.7578125 269.09375 C-31.96616699 268.91038086 -31.17452148 268.72701172 -30.35888672 268.53808594 C-28.87172195 268.18961569 -27.3862175 267.83394918 -25.90283203 267.46972656 C-25.21817871 267.30956055 -24.53352539 267.14939453 -23.828125 266.984375 C-22.95075684 266.77119629 -22.95075684 266.77119629 -22.05566406 266.55371094 C-15.32180788 265.64198727 -9.2779909 266.54692527 -2.71875 268 C-1.88661987 268.17756836 -1.05448975 268.35513672 -0.19714355 268.53808594 C2.43277934 269.10110193 5.06009825 269.67534626 7.6875 270.25 C9.48161003 270.63616453 11.27587962 271.02158849 13.0703125 271.40625 C17.44459938 272.3456166 21.81658904 273.29505373 26.1875 274.25 C26.29603983 272.02191841 26.37333307 269.79230068 26.4375 267.5625 C26.48390625 266.32113281 26.5303125 265.07976562 26.578125 263.80078125 C26.11572786 259.59759127 25.18911486 258.16991448 22.1875 255.25 C19.75776931 253.50027686 19.75776931 253.50027686 17.0546875 252.05859375 C16.08402344 251.50623047 15.11335938 250.95386719 14.11328125 250.38476562 C12.07180155 249.24901283 10.03013343 248.11359864 7.98828125 246.97851562 C7.02019531 246.42744141 6.05210937 245.87636719 5.0546875 245.30859375 C4.16894043 244.81673584 3.28319336 244.32487793 2.37060547 243.81811523 C-0.13197076 242.02052553 -0.73705897 241.11026527 -1.8125 238.25 C-2.0368576 235.1206007 -2.0368576 235.1206007 -1.98913574 231.46440125 C-1.97755283 230.47386624 -1.97755283 230.47386624 -1.96573591 229.46332043 C-1.85182741 222.23849275 -1.43776742 215.0299975 -0.98632812 207.81958008 C-0.89725697 206.34247212 -0.80860098 204.86533908 -0.72032166 203.38818359 C-0.5313128 200.23875637 -0.33960514 197.08950996 -0.14573669 193.94037819 C0.16193908 188.93945973 0.46229595 183.93811702 0.76159668 178.93669128 C1.5060155 166.51536149 2.25936314 154.09457531 3.01544189 141.6739502 C3.60358773 132.01082228 4.18896967 122.34754369 4.7662034 112.68375701 C5.01420645 108.53598138 5.26454931 104.3883772 5.52073669 100.2410984 C6.86542984 79.37224125 6.86542984 79.37224125 7.37695312 58.47143555 C7.37844612 57.70464635 7.37993912 56.93785715 7.38147736 56.14783192 C7.25325735 43.20032967 2.64477623 30.24480569 -6.625 20.9375 C-10.38809604 18.03329242 -13.63711601 17.18207604 -18.3671875 17.6015625 C-23.82254826 19.04819171 -26.96319825 22.26356027 -29.90039062 27.00683594 Z M-64.79858398 122.84545898 C-65.79160019 123.22012802 -66.78461639 123.59479706 -67.807724 123.9808197 C-68.88051102 124.39836014 -69.95329803 124.81590057 -71.05859375 125.24609375 C-72.1795192 125.67245621 -73.30044464 126.09881866 -74.45533752 126.5381012 C-78.05757085 127.91098901 -81.65377369 129.29896308 -85.25 130.6875 C-87.60703748 131.58889642 -89.96445577 132.48929773 -92.32226562 133.38867188 C-96.94222201 135.15280877 -101.55984015 136.9228449 -106.17529297 138.69873047 C-115.37871944 142.23943931 -124.5961421 145.74310814 -133.8125 149.25 C-133.8125 156.18 -133.8125 163.11 -133.8125 170.25 C-125.59604177 169.00168662 -117.38006185 167.75034122 -109.16483974 166.49392223 C-105.34853101 165.91038221 -101.53204297 165.32807777 -97.71508789 164.7487793 C-94.01874874 164.18773703 -90.32295574 163.62321147 -86.62748909 163.0564518 C-85.2305733 162.84280262 -83.83347758 162.63032581 -82.43618584 162.4191494 C-80.45101645 162.11890215 -78.46658951 161.81375923 -76.48217773 161.50854492 C-75.36076889 161.33755783 -74.23936005 161.16657074 -73.08396912 160.99040222 C-66.63641228 159.87280421 -60.22912613 158.53332523 -53.8125 157.25 C-54.4725 145.7 -55.1325 134.15 -55.8125 122.25 C-60.08919763 121.18082559 -60.88684627 121.34528091 -64.79858398 122.84545898 Z M25.1875 121.25 C23.17572062 123.26177938 23.79279728 127.23598379 23.65234375 130.00390625 C23.60936661 130.77935287 23.56638947 131.5547995 23.52210999 132.35374451 C23.38534452 134.8397794 23.25510606 137.32610854 23.125 139.8125 C23.03363159 141.49416396 22.94184029 143.175805 22.84960938 144.85742188 C22.62319325 148.98798632 22.40501392 153.11895849 22.1875 157.25 C32.68109141 159.27220703 43.18711494 161.10114553 53.75 162.73046875 C55.16206171 162.95016693 56.57408901 163.17008632 57.98608398 163.39021301 C61.64175294 163.95953305 65.2978704 164.52591714 68.95410156 165.09161377 C72.7092692 165.67317627 76.46398822 166.25762086 80.21875 166.84179688 C87.54123999 167.98062815 94.8642477 169.11607912 102.1875 170.25 C102.1875 163.32 102.1875 156.39 102.1875 149.25 C100.12346924 148.47285645 98.05943848 147.69571289 95.93286133 146.89501953 C89.10743569 144.32504258 82.28222212 141.7545028 75.45711231 139.18368721 C71.3197358 137.62528039 67.18228845 136.06706224 63.04467773 134.50927734 C59.05043173 133.00546041 55.05637374 131.50114516 51.06244469 129.99648666 C49.53992055 129.42299586 48.01732916 128.84968356 46.49466896 128.27655411 C44.35930388 127.47276741 42.22418045 126.66834198 40.08911133 125.86376953 C38.26709953 125.17760056 38.26709953 125.17760056 36.40827942 124.47756958 C34.40673482 123.71469981 32.41571283 122.92277127 30.44364929 122.0866394 C28.11974164 121.07615489 28.11974164 121.07615489 25.1875 121.25 Z " fill="#000000" transform="translate(307.8125,67.75)"/>
<path d="M0 0 C0.825 -0.01289063 1.65 -0.02578125 2.5 -0.0390625 C6.13018849 0.92520632 7.61276505 2.769119 10 5.625 C10.66183472 8.62663269 10.66183472 8.62663269 10.71044922 12.00073242 C10.73912079 13.26942673 10.76779236 14.53812103 10.79733276 15.84526062 C10.80165944 17.22365872 10.80406246 18.602064 10.8046875 19.98046875 C10.81823155 21.40669086 10.83266052 22.83290482 10.84793091 24.2591095 C10.87332258 27.24757784 10.87863517 30.23531727 10.87158203 33.22387695 C10.86550331 37.03016956 10.92321488 40.83246025 10.99824333 44.63790417 C11.04666285 47.58516351 11.05327385 50.53148022 11.0485878 53.47908974 C11.0526077 54.88044113 11.07087261 56.28183465 11.10439682 57.68279076 C11.26711291 65.26198163 10.9306751 70.42162917 5.76293945 76.22216797 C4.20123445 77.71735355 2.61593829 79.18859967 1 80.625 C0.03843555 81.62042274 -0.91515283 82.62373304 -1.85424805 83.64038086 C-4.45746756 86.2890069 -7.06899687 88.92898036 -9.6875 91.5625 C-10.59822266 92.49384766 -11.50894531 93.42519531 -12.44726562 94.38476562 C-13.33478516 95.27744141 -14.22230469 96.17011719 -15.13671875 97.08984375 C-15.92780029 97.890271 -16.71888184 98.69069824 -17.53393555 99.51538086 C-20.70014223 102.22394357 -23.97660933 104.42698134 -28.1953125 104.83984375 C-31.34198611 104.38758904 -33.75401006 103.78268586 -36.4375 102.0625 C-38.56450899 98.74436598 -39.53011798 95.51474069 -39 91.625 C-36.89296462 86.18127136 -34.19407953 83.89931055 -29.39453125 80.625 C-21.04217381 74.64095222 -12.65757715 68.06142107 -10.31738281 57.56256104 C-8.8313568 46.56417097 -9.15212959 35.47012243 -9.57543945 24.40820312 C-9.61979126 23.21301559 -9.66414307 22.01782806 -9.70983887 20.78642273 C-9.81002574 18.51054884 -9.94084753 16.23575945 -10.10632324 13.96369934 C-10.52907748 6.34734426 -10.52907748 6.34734426 -7.66479492 2.43676758 C-4.80923571 0.49530125 -3.41707815 -0.05339185 0 0 Z " fill="#000000" transform="translate(105,341.375)"/>
<path d="M0 0 C2.97672584 1.77280561 5.42804007 3.85608015 7 7 C7.67660495 12.86390959 7.67660495 12.86390959 5.953125 15.7578125 C4.16405507 17.93626824 2.54084375 19.72957812 0 21 C-4.97067782 21.3751455 -8.05151502 21.15878799 -12 18 C-14.57189679 14.57080428 -14.502142 11.16060514 -14 7 C-10.39752262 1.00033506 -6.9151493 -0.69151493 0 0 Z " fill="#000000" transform="translate(444,61)"/>
</svg>
