<?xml version="1.0" standalone="no"?>
<!DOCTYPE svg PUBLIC "-//W3C//DTD SVG 20010904//EN"
 "http://www.w3.org/TR/2001/REC-SVG-20010904/DTD/svg10.dtd">
<svg version="1.0" xmlns="http://www.w3.org/2000/svg"
 width="512.000000pt" height="512.000000pt" viewBox="0 0 512.000000 512.000000"
 preserveAspectRatio="xMidYMid meet">

<g transform="translate(0.000000,512.000000) scale(0.100000,-0.100000)"
fill="#000000" stroke="none">
<path d="M4455 4554 c-158 -17 -414 -85 -638 -170 -67 -25 -644 -262 -1282
-526 -1024 -424 -1162 -479 -1180 -468 -11 7 -155 109 -320 225 -165 117 -317
223 -338 235 -66 39 -98 32 -366 -80 -134 -55 -254 -108 -268 -117 -64 -42
-80 -151 -32 -217 12 -17 220 -270 460 -562 459 -557 461 -560 539 -557 19 0
269 62 554 137 285 75 521 135 523 133 2 -2 -18 -164 -43 -360 l-47 -356 24
-48 c30 -59 75 -87 138 -86 45 1 574 159 632 189 18 9 102 125 245 336 119
178 281 417 358 532 l141 209 343 142 c513 214 709 314 898 461 151 117 242
232 285 363 32 95 25 222 -18 314 -61 129 -186 226 -328 255 -60 13 -224 22
-280 16z m261 -341 c51 -27 79 -79 70 -131 -8 -55 -73 -139 -156 -205 -191
-152 -359 -237 -989 -497 -151 -63 -284 -123 -297 -134 -12 -12 -178 -253
-368 -537 l-347 -515 -125 -38 c-69 -21 -128 -36 -130 -33 -3 3 15 159 39 346
48 363 48 381 5 436 -25 32 -74 55 -118 55 -17 0 -297 -70 -623 -155 l-592
-156 -20 25 c-11 13 -159 193 -330 400 -170 207 -311 380 -313 384 -2 8 151
75 172 75 6 0 159 -104 339 -232 180 -128 344 -239 365 -248 21 -8 51 -13 72
-10 19 3 564 224 1210 492 646 268 1243 513 1325 545 205 78 359 123 535 154
14 2 72 3 130 2 85 -2 113 -6 146 -23z"/>
<path d="M116 870 c-16 -5 -40 -19 -53 -32 -79 -73 -70 -186 20 -252 l28 -21
2432 -3 c2710 -3 2488 -8 2545 66 22 29 27 46 27 91 0 69 -29 115 -89 142 -40
18 -122 19 -2461 18 -1331 0 -2433 -5 -2449 -9z"/>
</g>
</svg>
