<?xml version="1.0" standalone="no"?>
<!DOCTYPE svg PUBLIC "-//W3C//DTD SVG 20010904//EN"
 "http://www.w3.org/TR/2001/REC-SVG-20010904/DTD/svg10.dtd">
<svg version="1.0" xmlns="http://www.w3.org/2000/svg"
 width="512.000000pt" height="512.000000pt" viewBox="0 0 512.000000 512.000000"
 preserveAspectRatio="xMidYMid meet">

<g transform="translate(0.000000,512.000000) scale(0.100000,-0.100000)"
fill="#000000" stroke="none">
<path d="M0 2560 l0 -2560 2560 0 2560 0 0 2560 0 2560 -2560 0 -2560 0 0
-2560z m1650 1650 l0 -740 -740 0 -740 0 0 740 0 740 740 0 740 0 0 -740z
m3300 0 l0 -740 -1565 0 -1565 0 0 740 0 740 1565 0 1565 0 0 -740z m0 -990
l0 -80 -2390 0 -2390 0 0 80 0 80 2390 0 2390 0 0 -80z m-4620 -1650 l0 -1400
-80 0 -80 0 0 1400 0 1400 80 0 80 0 0 -1400z m2150 0 l0 -1400 -990 0 -990 0
0 1400 0 1400 990 0 990 0 0 -1400z m2140 0 l0 -1400 -990 0 -990 0 0 1400 0
1400 990 0 990 0 0 -1400z m330 0 l0 -1400 -80 0 -80 0 0 1400 0 1400 80 0 80
0 0 -1400z"/>
<path d="M752 4587 l-152 -152 60 -60 60 -59 55 54 55 54 0 -312 0 -312 80 0
80 0 0 312 0 312 53 -52 53 -52 57 58 57 57 -153 153 -152 152 -153 -153z"/>
<path d="M1982 4708 l3 -83 658 -3 657 -2 0 85 0 85 -660 0 -661 0 3 -82z"/>
<path d="M1982 4378 l3 -83 163 -3 162 -2 0 85 0 85 -165 0 -166 0 3 -82z"/>
<path d="M2480 4375 l0 -85 410 0 410 0 0 85 0 85 -410 0 -410 0 0 -85z"/>
<path d="M4160 4255 l-425 -193 -63 61 -62 62 -57 -58 -58 -57 100 -100 c55
-55 104 -100 110 -100 5 1 102 43 215 94 l205 94 3 -89 3 -89 79 0 79 0 3 127
3 127 120 56 c66 30 148 68 182 83 l62 28 -30 67 c-17 37 -33 70 -37 74 -4 4
-198 -80 -432 -187z"/>
<path d="M1982 4048 l3 -83 658 -3 657 -2 0 85 0 85 -660 0 -661 0 3 -82z"/>
<path d="M1980 3715 l0 -85 660 0 660 0 0 85 0 85 -660 0 -660 0 0 -85z"/>
<path d="M2150 1570 l0 -410 80 0 80 0 0 410 0 410 -80 0 -80 0 0 -410z"/>
<path d="M2810 1570 l0 -410 80 0 80 0 0 410 0 410 -80 0 -80 0 0 -410z"/>
</g>
</svg>
