<?xml version="1.0" standalone="no"?>
<!DOCTYPE svg PUBLIC "-//W3C//DTD SVG 20010904//EN"
 "http://www.w3.org/TR/2001/REC-SVG-20010904/DTD/svg10.dtd">
<svg version="1.0" xmlns="http://www.w3.org/2000/svg"
 width="512.000000pt" height="512.000000pt" viewBox="0 0 512.000000 512.000000"
 preserveAspectRatio="xMidYMid meet">

<g transform="translate(0.000000,512.000000) scale(0.100000,-0.100000)"
fill="#000000" stroke="none">
<path d="M441 4420 c-96 -33 -182 -67 -192 -76 -11 -9 -23 -31 -28 -49 -12
-44 93 -1096 114 -1143 9 -20 28 -38 48 -46 17 -8 440 -121 940 -252 499 -132
907 -241 906 -244 0 -3 -207 -189 -458 -415 -252 -225 -466 -422 -475 -437
-41 -67 -1 -139 87 -157 165 -35 639 -109 659 -104 13 4 354 195 760 425 l736
419 519 -101 c610 -120 641 -122 781 -59 79 35 179 129 220 207 150 282 2 611
-308 686 -46 11 -3225 606 -3647 682 -32 6 -39 18 -209 350 -184 360 -195 375
-256 373 -13 0 -101 -27 -197 -59z m309 -500 c114 -229 167 -324 186 -337 18
-11 622 -128 1888 -364 1024 -191 1881 -352 1903 -358 54 -15 136 -89 158
-143 50 -123 -12 -286 -132 -343 -76 -37 -108 -33 -686 80 -301 59 -558 104
-570 101 -12 -3 -354 -194 -760 -425 l-737 -419 -185 30 c-102 17 -184 34
-183 38 2 4 209 192 460 418 412 371 458 415 464 449 8 42 -7 76 -46 104 -14
10 -442 128 -1000 274 -536 141 -978 259 -981 263 -6 7 -90 845 -89 888 0 16
13 25 63 41 34 12 68 22 74 22 7 1 85 -143 173 -319z"/>
<path d="M41 824 c-38 -32 -49 -80 -27 -123 34 -66 -100 -61 1794 -61 1200 0
1728 3 1750 11 69 24 87 116 33 170 l-29 29 -1745 0 -1745 0 -31 -26z"/>
</g>
</svg>
