<?xml version="1.0" encoding="UTF-8"?>
<svg version="1.1" xmlns="http://www.w3.org/2000/svg" width="512" height="512">
<path d="M0 0 C1.01790619 0.00215515 2.03581238 0.0043103 3.08456421 0.00653076 C17.69363523 0.05620146 32.02575853 0.30709809 46.375 3.3125 C47.34985352 3.51117676 48.32470703 3.70985352 49.32910156 3.91455078 C97.7109774 14.03517194 141.69928269 35.9516877 177.375 70.3125 C178.3640332 71.26068604 178.3640332 71.26068604 179.37304688 72.22802734 C188.86130305 81.37247479 197.6012044 90.66984009 205.375 101.3125 C206.23306152 102.46355017 207.09113451 103.61459177 207.94921875 104.765625 C213.98736829 112.95680614 219.34595521 121.47054105 224.375 130.3125 C224.73948242 130.94430176 225.10396484 131.57610352 225.47949219 132.22705078 C247.08534998 169.97532572 256.85198095 212.74189997 256.6875 255.9375 C256.68534485 256.95540619 256.6831897 257.97331238 256.68096924 259.02206421 C256.63129854 273.63113523 256.38040191 287.96325853 253.375 302.3125 C253.07698486 303.77478027 253.07698486 303.77478027 252.77294922 305.26660156 C242.65232806 353.6484774 220.7358123 397.63678269 186.375 433.3125 C185.74287598 433.97185547 185.11075195 434.63121094 184.45947266 435.31054688 C175.31502521 444.79880305 166.01765991 453.5387044 155.375 461.3125 C154.22394983 462.17056152 153.07290823 463.02863451 151.921875 463.88671875 C143.73224019 469.92427396 135.22961724 475.30707302 126.375 480.3125 C125.66778809 480.7146875 124.96057617 481.116875 124.23193359 481.53125 C101.09654164 494.5566741 75.92537591 503.30551461 49.9375 508.625 C49.21860596 508.77235596 48.49971191 508.91971191 47.7590332 509.0715332 C33.08339502 511.86090125 18.55831162 512.66142619 3.64770508 512.62817383 C0.70811513 512.6250221 -2.2304558 512.64854926 -5.16992188 512.67382812 C-18.54306192 512.71848737 -31.43916711 511.51301542 -44.625 509.3125 C-46.33055054 509.03031616 -46.33055054 509.03031616 -48.07055664 508.74243164 C-91.33802759 500.97044532 -132.38793216 480.98345309 -165.625 452.3125 C-166.37007813 451.67828125 -167.11515625 451.0440625 -167.8828125 450.390625 C-181.38779833 438.57948485 -194.05918743 425.82889772 -204.625 411.3125 C-205.48149066 410.16255169 -206.33826433 409.01281411 -207.1953125 407.86328125 C-213.23534209 399.67315742 -218.61867614 391.16870382 -223.625 382.3125 C-224.0271875 381.60528809 -224.429375 380.89807617 -224.84375 380.16943359 C-237.8691741 357.03404164 -246.61801461 331.86287591 -251.9375 305.875 C-252.08485596 305.15610596 -252.23221191 304.43721191 -252.3840332 303.6965332 C-255.35789088 288.05024391 -255.99800362 272.57681954 -255.9375 256.6875 C-255.93534485 255.66959381 -255.9331897 254.65168762 -255.93096924 253.60293579 C-255.88129854 238.99386477 -255.63040191 224.66174147 -252.625 210.3125 C-252.42632324 209.33764648 -252.22764648 208.36279297 -252.02294922 207.35839844 C-241.90232806 158.9765226 -219.9858123 114.98821731 -185.625 79.3125 C-184.99287598 78.65314453 -184.36075195 77.99378906 -183.70947266 77.31445312 C-174.56502521 67.82619695 -165.26765991 59.0862956 -154.625 51.3125 C-153.47394983 50.45443848 -152.32290823 49.59636549 -151.171875 48.73828125 C-142.98224019 42.70072604 -134.47961724 37.31792698 -125.625 32.3125 C-124.91778809 31.9103125 -124.21057617 31.508125 -123.48193359 31.09375 C-100.34654164 18.0683259 -75.17537591 9.31948539 -49.1875 4 C-48.46860596 3.85264404 -47.74971191 3.70528809 -47.0090332 3.5534668 C-31.36274391 0.57960912 -15.88931954 -0.06050362 0 0 Z M-139.625 79.3125 C-140.64464844 80.12847656 -141.66429687 80.94445312 -142.71484375 81.78515625 C-156.94691101 93.34636173 -169.86976891 106.45498594 -180.625 121.3125 C-181.38941406 122.35535156 -182.15382812 123.39820312 -182.94140625 124.47265625 C-218.23017184 173.99967161 -231.90804431 234.50974988 -222.46118164 294.5222168 C-214.66043154 339.60468842 -193.12744031 380.44773492 -161.625 413.3125 C-161.12242676 413.84230469 -160.61985352 414.37210937 -160.10205078 414.91796875 C-120.08278166 456.92011845 -63.17675371 480.08735347 -5.625 482.3125 C47.14019442 483.15520788 99.06460635 466.45287151 140.375 433.3125 C141.38304687 432.508125 142.39109375 431.70375 143.4296875 430.875 C156.28249569 420.41106453 168.41650885 408.57796179 178.375 395.3125 C178.76848633 394.79010742 179.16197266 394.26771484 179.56738281 393.72949219 C186.13306222 384.95307739 191.93592652 375.82212204 197.375 366.3125 C197.71241211 365.73483887 198.04982422 365.15717773 198.39746094 364.56201172 C214.99583114 336.0047182 225.27551352 300.73988567 225.61328125 267.6328125 C225.6230751 266.8307135 225.63286896 266.0286145 225.64295959 265.20220947 C226.17483187 210.26480116 211.55396278 158.37066265 176.375 115.3125 C175.95959961 114.79558594 175.54419922 114.27867188 175.11621094 113.74609375 C164.21064944 100.20356582 152.08166328 87.90836039 138.078125 77.57128906 C136.41465069 76.34180604 134.76972448 75.09033788 133.125 73.8359375 C57.91520323 17.39782584 -49.34202864 16.81877052 -139.625 79.3125 Z " fill="#000000" transform="translate(255.625,-0.3125)"/>
<path d="M0 0 C14.28784271 8.89079264 29.85618745 23.56856234 35.25 39.75 C37.69692618 50.9926338 35.89483523 61.37746304 30.1875 71.25 C26.94140231 76.09842676 23.14659905 80.2349395 19.0625 84.375 C18.48975342 84.95797852 17.91700684 85.54095703 17.3269043 86.14160156 C11.48287976 91.86764001 5.1834992 95.75984999 -2.4375 98.75 C-5.98226879 99.94672711 -5.98226879 99.94672711 -9 102 C-8.66421513 108.24285752 -7.0847567 112.64396181 -4.0625 118.0625 C-3.66208496 118.79637939 -3.26166992 119.53025879 -2.84912109 120.28637695 C16.86528488 155.79753358 45.10580871 182.6719713 80.8125 201.8125 C81.50585449 202.18584473 82.19920898 202.55918945 82.91357422 202.94384766 C90.94174842 207.25918908 90.94174842 207.25918908 99.73828125 209.1796875 C103.44859786 207.24442737 104.49055665 203.81744842 106.1875 200.125 C113.05834571 186.2763806 123.80460244 174.59367018 138.3125 168.4375 C148.87955474 165.12862427 160.18426147 165.90153387 170 171 C172.89647305 172.77126326 175.43843786 174.77600806 178 177 C178.76828125 177.66 179.5365625 178.32 180.328125 179 C182.92870268 181.28981683 185.46741915 183.63526324 188 186 C188.94746094 186.85851562 189.89492188 187.71703125 190.87109375 188.6015625 C198.68564034 195.96017218 205.5560409 204.7729281 206.23828125 215.87890625 C206.44499902 224.64749833 206.48773976 232.18163805 202 240 C201.443125 240.99 200.88625 241.98 200.3125 243 C188.6877462 258.08076169 176.96219622 268.30494315 158 272 C108.31588468 277.45470997 53.84581779 251.00683798 16 221 C15.46133301 220.57847656 14.92266602 220.15695312 14.36767578 219.72265625 C-0.93247067 207.66361731 -15.3864693 193.4393607 -26.81298828 177.64013672 C-28.0324619 175.95514622 -29.2780705 174.29189054 -30.52734375 172.62890625 C-52.28410774 143.33420116 -65.94009308 109.65969217 -73 74 C-73.20109375 73.03707031 -73.4021875 72.07414062 -73.609375 71.08203125 C-75.81506163 53.67916376 -74.47084377 39.30028146 -64 25 C-61.48602927 22.01404002 -58.82983559 19.18802901 -56.125 16.375 C-55.45597656 15.6634375 -54.78695312 14.951875 -54.09765625 14.21875 C-39.44929431 -1.19166545 -20.74776318 -11.28922408 0 0 Z " fill="#000000" transform="translate(190,122)"/>
</svg>
