<?xml version="1.0" encoding="UTF-8"?>
<svg version="1.1" xmlns="http://www.w3.org/2000/svg" width="512" height="512">
<path d="M0 0 C11.75054446 9.06787299 14.74163515 26.05019201 18.73657227 39.53564453 C19.76305482 42.99029942 20.815003 46.43650871 21.86914062 49.8828125 C22.53018261 52.08677924 23.18974137 54.29119151 23.84765625 56.49609375 C24.1621019 57.52117035 24.47654755 58.54624695 24.80052185 59.60238647 C27.41701836 68.55789418 27.41701836 68.55789418 25.8203125 73.59765625 C23.7687347 76.41305224 21.28926539 77.38475628 18.1328125 78.72265625 C11.22465648 82.08583747 5.94706347 87.39020173 2.8203125 94.47265625 C0.44336018 102.30261683 1.20039759 109.92911003 4.5703125 117.3125 C8.6025925 124.68401187 13.85127889 128.83781777 21.8203125 131.59765625 C28.2369718 132.91577171 34.1396242 132.68863509 40.53125 131.36328125 C43.36438883 131.65336372 44.60474125 132.73242255 46.53955078 134.7633667 C49.36912563 138.8158454 50.4429369 143.74591742 51.80859375 148.44140625 C52.33068672 150.18242615 52.33068672 150.18242615 52.86332703 151.95861816 C53.594712 154.41405039 54.31790313 156.87193614 55.03344727 159.33203125 C56.12296726 163.06393361 57.24794794 166.78378609 58.37695312 170.50390625 C59.08551117 172.8990964 59.79195884 175.29491206 60.49609375 177.69140625 C60.83038895 178.78980835 61.16468414 179.88821045 61.5091095 181.01989746 C64.37965491 191.06041537 65.73570447 201.50336933 61.203125 211.25 C54.07974873 223.34364163 44.41078223 226.95927842 31.5078125 230.59765625 C30.19925293 230.93543091 30.19925293 230.93543091 28.86425781 231.2800293 C20.94249693 233.44682795 16.95294184 237.47243325 12.8203125 244.59765625 C9.9895578 252.0991562 9.76512888 259.72754101 12.59375 267.26171875 C16.54100602 274.77910441 22.20517796 280.23231808 30.2578125 282.9375 C33.70769637 283.82626581 37.16489607 284.50402533 40.69140625 285.0078125 C43.33009625 285.73889909 44.16963289 286.41269041 45.8203125 288.59765625 C46.22145081 291.34532166 46.22145081 291.34532166 46.25610352 294.71459961 C46.27524307 295.97698959 46.29438263 297.23937958 46.31410217 298.5400238 C46.3186921 299.92251236 46.3220319 301.30500555 46.32421875 302.6875 C46.33386691 304.11178384 46.34395991 305.53606472 46.35447693 306.96034241 C46.3724545 309.95222847 46.3779973 312.94385474 46.3762207 315.93579102 C46.37591793 319.73878823 46.41664526 323.54007824 46.46853733 327.3426733 C46.5022045 330.28989523 46.50796883 333.23672009 46.50639153 336.18411446 C46.50989474 337.58375421 46.52295368 338.98340844 46.54638863 340.38285637 C46.7065334 350.94622296 44.97139069 359.49373528 38.01148987 367.74107361 C28.64549744 376.69890469 17.89606307 377.18112101 5.57543945 377.10559082 C3.93225967 377.11020493 2.28908402 377.11656126 0.64591694 377.1244998 C-3.85012313 377.14114624 -8.34582211 377.13296815 -12.84186316 377.12055492 C-17.69811621 377.11148753 -22.55431148 377.12548254 -27.41055298 377.13647461 C-36.91631148 377.15424637 -46.42194353 377.15042581 -55.92770696 377.13882405 C-63.65431966 377.12978473 -71.38089696 377.12856789 -79.10751343 377.13291931 C-80.20786507 377.13353224 -81.30821672 377.13414518 -82.44191235 377.13477668 C-84.67736571 377.1360556 -86.91281906 377.13735246 -89.1482724 377.13866705 C-110.10237157 377.15006891 -131.0564007 377.13696529 -152.01048839 377.11546558 C-169.98391535 377.09759497 -187.95723897 377.10069919 -205.93066406 377.11914062 C-226.81058993 377.14055426 -247.69045443 377.14897031 -268.57038975 377.13669157 C-270.79754701 377.13541739 -273.02470429 377.13415991 -275.25186157 377.13291931 C-276.34762046 377.13230221 -277.44337935 377.13168511 -278.57234305 377.13104931 C-286.28826446 377.12759789 -294.00414689 377.13342026 -301.72006226 377.14283752 C-311.12521863 377.15406434 -320.53024149 377.15100303 -329.9353826 377.12971455 C-334.7325969 377.1192134 -339.52958872 377.11506642 -344.3268013 377.12831116 C-348.72121872 377.14026017 -353.11520815 377.13363125 -357.50958693 377.11240095 C-359.09626139 377.10794551 -360.68297226 377.11017732 -362.26962316 377.1199041 C-373.85364746 377.18545209 -383.67284913 376.06003781 -392.37086487 367.74107361 C-399.90007545 358.81911499 -401.06025336 349.60841007 -400.87109375 338.3125 C-400.8675071 336.8795255 -400.86616124 335.44654384 -400.8669281 334.01356506 C-400.86227686 331.0373097 -400.83773079 328.06215934 -400.79711914 325.08618164 C-400.74573212 321.27287501 -400.73469018 317.46075974 -400.73695469 313.64714718 C-400.73613996 310.70026802 -400.71970979 307.75364891 -400.69795036 304.80685616 C-400.68841929 303.3998568 -400.68249491 301.99282814 -400.68026924 300.58579826 C-400.67377133 298.62862367 -400.64514871 296.67156008 -400.61547852 294.71459961 C-400.60404312 293.60273788 -400.59260773 292.49087616 -400.58082581 291.34532166 C-400.1796875 288.59765625 -400.1796875 288.59765625 -398.7855072 286.75440979 C-396.73497993 285.27731079 -395.10974982 284.9817429 -392.6171875 284.59765625 C-387.32191627 283.67741766 -382.29478934 282.23013556 -377.1796875 280.59765625 C-377.48003906 279.66824219 -377.78039062 278.73882812 -378.08984375 277.78125 C-378.47011719 276.54503906 -378.85039062 275.30882812 -379.2421875 274.03515625 C-379.62503906 272.81699219 -380.00789063 271.59882813 -380.40234375 270.34375 C-381.2365261 266.32374563 -381.1583479 263.57101747 -380.1796875 259.59765625 C-376.07465626 256.09336129 -371.03842174 253.91603706 -366.1796875 251.59765625 C-366.45959172 245.01990709 -368.80606882 240.50791526 -373.1796875 235.59765625 C-379.45909971 230.28608005 -386.17709069 228.62661534 -394.17578125 227.3359375 C-397.37160621 226.55048767 -398.25295056 226.16616764 -400.1796875 223.59765625 C-400.5168457 221.24780273 -400.5168457 221.24780273 -400.48046875 218.46875 C-400.48884766 217.43169922 -400.49722656 216.39464844 -400.50585938 215.32617188 C-400.49698786 213.19067201 -400.47682734 211.05517789 -400.44335938 208.91992188 C-400.55260582 199.49597894 -403.19009349 191.71042195 -406.34616089 182.95883179 C-408.53687058 176.75309095 -410.41883871 170.44138382 -412.33203125 164.14575195 C-412.81723335 162.56081308 -413.30985947 160.97812951 -413.80957031 159.39770508 C-417.68977171 147.11165883 -421.11427325 135.14088193 -415.3671875 122.80859375 C-409.9946575 112.80579118 -402.61455866 107.97121695 -391.77207947 104.65830994 C-390.72838699 104.35598953 -389.68469452 104.05366913 -388.609375 103.7421875 C-387.48692886 103.40373306 -386.36448273 103.06527863 -385.20802307 102.71656799 C-382.14012949 101.7944549 -379.06864491 100.88574986 -375.99512863 99.98259735 C-372.67310267 99.00258092 -369.35648748 98.00456871 -366.03930664 97.00830078 C-360.47638787 95.33958603 -354.91081186 93.68004839 -349.34326172 92.02685547 C-341.88784467 89.81230613 -334.44033087 87.57217916 -326.99609375 85.3203125 C-325.83219116 84.96832291 -324.66828857 84.61633331 -323.46911621 84.25367737 C-321.07569597 83.52985218 -318.6822838 82.80600034 -316.28887939 82.0821228 C-310.53062817 80.3421655 -304.77060671 78.6080942 -299.01063538 76.87384224 C-276.73406929 70.16637982 -254.4633143 63.43966281 -232.19195557 56.7149353 C-220.60334349 53.21583359 -209.01456759 49.71727451 -197.42578125 46.21875 C-196.3096344 45.88179674 -195.19348755 45.54484348 -194.04351807 45.19767952 C-181.45482522 41.39731007 -168.86609284 37.5970719 -156.27681541 33.7986393 C-154.29863231 33.20173618 -152.3204937 32.60468578 -150.34236145 32.00761414 C-144.27442483 30.17649677 -138.2056754 28.34817394 -132.13500977 26.52612305 C-120.06469122 22.9003711 -108.00538199 19.24334299 -95.96255207 15.52737522 C-88.35111102 13.1790453 -80.73575131 10.84370799 -73.11807537 8.51568508 C-67.53440904 6.80811822 -61.95624055 5.08395982 -56.38166046 3.34697533 C-52.90914618 2.26958743 -49.43170713 1.20883514 -45.95277786 0.15236664 C-44.33791752 -0.3416451 -42.72508617 -0.84235018 -41.11460495 -1.35045624 C-26.90715719 -5.8260004 -13.33182836 -8.57728742 0 0 Z M-35.984375 13.2265625 C-37.90572525 13.81158409 -39.82707562 14.39660528 -41.74843121 14.98160934 C-43.78713795 15.60471388 -45.82407891 16.23329543 -47.86056519 16.86361694 C-52.07770714 18.16887569 -56.29925759 19.45941535 -60.52172852 20.74731445 C-64.83054709 22.06231534 -69.13904123 23.37833148 -73.44587708 24.69981384 C-86.22451989 28.62055617 -99.02320178 32.47188976 -111.82940674 36.30172729 C-116.09024069 37.57621236 -120.35022963 38.85350829 -124.61021423 40.13082886 C-128.46652335 41.2870457 -132.3230955 42.44238337 -136.1796875 43.59765625 C-136.05400391 44.62826172 -136.05400391 44.62826172 -135.92578125 45.6796875 C-135.82394531 46.58074219 -135.72210938 47.48179688 -135.6171875 48.41015625 C-135.51277344 49.30347656 -135.40835937 50.19679687 -135.30078125 51.1171875 C-135.1796875 53.59765625 -135.1796875 53.59765625 -136.1796875 56.59765625 C-137.61624604 56.67897088 -139.0541358 56.73699184 -140.4921875 56.78515625 C-141.69294922 56.83736328 -141.69294922 56.83736328 -142.91796875 56.890625 C-145.1796875 56.59765625 -145.1796875 56.59765625 -146.84765625 55.3984375 C-148.43029392 53.25885989 -149.22904964 51.07336534 -150.1796875 48.59765625 C-161.17499209 51.23836398 -172.00067027 54.24990846 -182.80859375 57.5703125 C-184.38354829 58.05080794 -185.95861983 58.53092004 -187.53379822 59.01068115 C-190.87136269 60.02797169 -194.20819341 61.04761925 -197.54443359 62.06924438 C-202.83303615 63.68861234 -208.12336376 65.30229052 -213.4140625 66.91479492 C-215.21231114 67.46290473 -217.01055943 68.01101569 -218.80880737 68.55912781 C-219.70031368 68.83084997 -220.59181999 69.10257214 -221.51034164 69.38252831 C-224.21812179 70.2080306 -226.92574646 71.03404107 -229.6333313 71.86018372 C-245.63889948 76.7430922 -261.65667625 81.5848439 -277.6796875 86.41015625 C-280.20907409 87.17225424 -282.73845236 87.93437983 -285.26782227 88.6965332 C-290.30734585 90.21487894 -295.34699198 91.73281711 -300.38671875 93.25048828 C-312.24630972 96.82200613 -324.10474358 100.39736329 -335.96303558 103.97319126 C-339.35248819 104.99525597 -342.74198126 106.01718596 -346.1315918 107.03872681 C-347.08716099 107.32673267 -347.08716099 107.32673267 -348.06203461 107.62055683 C-349.94573623 108.1882332 -351.8294962 108.7557159 -353.71325684 109.32319641 C-356.11954012 110.04929981 -358.52523723 110.77734906 -360.93029785 111.50749207 C-366.57046747 113.21869826 -372.21544468 114.90241513 -377.8828125 116.52148438 C-378.93702393 116.82785828 -379.99123535 117.13423218 -381.07739258 117.44989014 C-383.0320673 118.017132 -384.99005613 118.5731395 -386.9519043 119.11505127 C-393.66194118 121.08125464 -398.07094831 123.43454746 -402.0546875 129.41015625 C-404.68932206 136.87495416 -402.65737669 143.45485458 -400.37109375 150.71484375 C-399.94182838 152.12239426 -399.94182838 152.12239426 -399.50389099 153.55838013 C-398.59370505 156.53311151 -397.66799336 159.50275392 -396.7421875 162.47265625 C-396.12336696 164.49058454 -395.50551842 166.50881117 -394.88867188 168.52734375 C-393.76030077 172.20342744 -392.63067139 175.87907057 -391.48657227 179.55029297 C-391.25784927 180.28561249 -391.02912628 181.02093201 -390.79347229 181.77853394 C-390.20364186 183.66457696 -390.20364186 183.66457696 -389.1796875 185.59765625 C-386.46978174 185.95558768 -386.46978174 185.95558768 -383.2421875 186.03515625 C-370.69323775 186.85713986 -359.54022966 191.1414399 -350.77734375 200.484375 C-342.41971359 211.53933324 -340.2022815 223.0514199 -341.1796875 236.59765625 C-343.293463 248.47112957 -349.70542015 258.58056657 -359.4921875 265.47265625 C-361.05282197 266.51711579 -362.61502469 267.55924111 -364.1796875 268.59765625 C-362.04326392 277.5288706 -359.62146298 286.3603685 -357.01049805 295.16259766 C-356.58010776 296.62445462 -356.15664438 298.08836808 -355.73999023 299.55419922 C-352.31090577 313.00005044 -352.31090577 313.00005044 -343.17260742 322.78222656 C-335.15324129 326.55136009 -326.30422448 322.92675172 -318.34375 320.46875 C-317.24369125 320.13507416 -316.14363251 319.80139832 -315.01023865 319.45761108 C-311.92650702 318.5210967 -308.84459002 317.57885545 -305.7632637 316.63446426 C-302.43540204 315.6161663 -299.10521744 314.60552744 -295.77514648 313.59448242 C-291.26674507 312.22527693 -286.75853777 310.85544632 -282.25114441 309.48292542 C-267.64954464 305.03750738 -253.03839781 300.62389639 -238.42578125 296.21484375 C-237.22630859 295.85291742 -236.02683594 295.4909911 -234.79101562 295.11809731 C-229.92799051 293.65079672 -225.0649335 292.18360192 -220.20182419 290.71658039 C-208.27808134 287.11961104 -196.35512976 283.52002267 -184.43229866 279.9200325 C-180.20161586 278.64262605 -175.97090559 277.36531058 -171.74019432 276.08799839 C-167.88668674 274.92456859 -164.03318702 273.76111276 -160.1796875 272.59765625 C-160.48507613 271.02266273 -160.79317723 269.44819504 -161.10238647 267.87394714 C-161.27366247 266.99710864 -161.44493847 266.12027014 -161.62140465 265.21686077 C-162.45013063 261.32886235 -163.59463698 257.56458489 -164.78125 253.7734375 C-165.2763149 252.1517761 -165.77109839 250.53002876 -166.265625 248.90820312 C-167.03659171 246.39911509 -167.81062423 243.89105941 -168.58984375 241.38452148 C-169.34970112 238.93336099 -170.09742083 236.47874526 -170.84375 234.0234375 C-171.07808746 233.28160721 -171.31242493 232.53977692 -171.55386353 231.77546692 C-172.90848697 227.28929382 -173.67932058 223.33319756 -173.1796875 218.59765625 C-170.26684228 214.96698827 -166.35001761 214.1557666 -162.0390625 212.8984375 C-160.83845184 212.53857002 -160.83845184 212.53857002 -159.61358643 212.1714325 C-157.92039796 211.66673724 -156.22574986 211.16691685 -154.52978516 210.67163086 C-151.94896496 209.91580192 -149.37486104 209.13976179 -146.80078125 208.36132812 C-145.1514067 207.87246463 -143.50167757 207.38479558 -141.8515625 206.8984375 C-141.08777283 206.66723709 -140.32398315 206.43603668 -139.53704834 206.1978302 C-135.008771 204.89278719 -130.93113421 204.00280344 -126.1796875 204.59765625 C-123.73230053 207.25550273 -122.59655062 209.80652454 -121.58569336 213.24267578 C-121.31208481 214.15687286 -121.03847626 215.07106995 -120.75657654 216.01296997 C-120.47210159 216.99224457 -120.18762665 217.97151917 -119.89453125 218.98046875 C-119.59277481 219.99108368 -119.29101837 221.00169861 -118.9801178 222.04293823 C-118.01797572 225.26724524 -117.06658097 228.49457428 -116.1171875 231.72265625 C-115.16358055 234.95767121 -114.2075478 238.19186425 -113.24354553 241.42379761 C-112.64406623 243.43409095 -112.05065589 245.44620583 -111.46385193 247.4602356 C-111.19339554 248.36812836 -110.92293915 249.27602112 -110.64428711 250.21142578 C-110.40906845 251.0121048 -110.17384979 251.81278381 -109.9315033 252.63772583 C-109.25824583 254.7903995 -109.25824583 254.7903995 -107.1796875 256.59765625 C-104.36235806 255.84178738 -101.55174391 255.06895736 -98.7421875 254.28515625 C-97.93974609 254.07181641 -97.13730469 253.85847656 -96.31054688 253.63867188 C-95.54677734 253.42275391 -94.78300781 253.20683594 -93.99609375 252.984375 C-93.28912354 252.79061279 -92.58215332 252.59685059 -91.85375977 252.3972168 C-91.02509399 252.00143433 -91.02509399 252.00143433 -90.1796875 251.59765625 C-89.17471898 248.58275068 -89.07633447 246.55583933 -89.1171875 243.41015625 C-89.13072266 242.05857422 -89.13072266 242.05857422 -89.14453125 240.6796875 C-89.15613281 239.99261719 -89.16773438 239.30554688 -89.1796875 238.59765625 C-81.6796875 237.47265625 -81.6796875 237.47265625 -77.1796875 238.59765625 C-76.5196875 241.23765625 -75.8596875 243.87765625 -75.1796875 246.59765625 C-55.581198 241.02458484 -36.02272088 235.32254583 -16.49234295 229.51531315 C-11.11943916 227.91814407 -5.74433157 226.3293942 -0.36352539 224.7590332 C4.90532284 223.22107549 10.16764127 221.6624386 15.42607689 220.08926201 C17.41289954 219.49870202 19.40190254 218.91542284 21.39312172 218.33986092 C24.17113769 217.53544834 26.93997539 216.70465383 29.70825195 215.86743164 C30.92004875 215.52659042 30.92004875 215.52659042 32.15632629 215.17886353 C38.90240625 213.08787251 44.56809698 209.25750647 48.3203125 203.16015625 C49.77634947 195.6979668 48.24741483 189.57982159 46.01171875 182.48046875 C45.72554184 181.54210175 45.43936493 180.60373474 45.14451599 179.63693237 C44.23433005 176.66220099 43.30861836 173.69255858 42.3828125 170.72265625 C41.76399196 168.70472796 41.14614342 166.68650133 40.52929688 164.66796875 C39.40092577 160.99188506 38.27129639 157.31624193 37.12719727 153.64501953 C36.78411278 152.54204025 36.78411278 152.54204025 36.43409729 151.41677856 C35.84426686 149.53073554 35.84426686 149.53073554 34.8203125 147.59765625 C33.5415625 147.63890625 32.2628125 147.68015625 30.9453125 147.72265625 C18.92583075 147.64765168 7.20933868 143.64267975 -1.66015625 135.26953125 C-10.42166613 125.62961806 -14.00483293 114.03736235 -13.55859375 101.08203125 C-12.18005634 88.40517179 -6.85015906 77.9381635 3.046875 69.8515625 C5.23283362 68.30598383 7.52034289 66.96621573 9.8203125 65.59765625 C7.68642157 56.61523828 5.19784469 47.76165663 2.54125977 38.92285156 C2.09948941 37.44668011 1.66236883 35.96910973 1.22973633 34.49023438 C0.59403388 32.31723571 -0.05494107 30.14859837 -0.70703125 27.98046875 C-0.89571274 27.3272464 -1.08439423 26.67402405 -1.27879333 26.00100708 C-3.3122255 19.35732446 -6.45580612 14.56034336 -12.1796875 10.59765625 C-20.47445174 7.83273484 -27.97488971 10.72463597 -35.984375 13.2265625 Z M-386.1796875 200.59765625 C-386.1796875 204.55765625 -386.1796875 208.51765625 -386.1796875 212.59765625 C-385.34566406 212.88898438 -384.51164062 213.1803125 -383.65234375 213.48046875 C-372.30621154 217.61342413 -364.78842329 222.23954353 -357.1796875 231.59765625 C-356.5196875 232.25765625 -355.8596875 232.91765625 -355.1796875 233.59765625 C-354.62468245 225.13382922 -356.18975135 217.13226697 -361.4296875 210.22265625 C-367.41146217 204.51278043 -374.11969655 200.51705094 -382.5546875 200.47265625 C-383.7509375 200.51390625 -384.9471875 200.55515625 -386.1796875 200.59765625 Z M-141.84765625 221.8125 C-142.74033203 222.08642578 -143.63300781 222.36035156 -144.55273438 222.64257812 C-145.48150391 222.93712891 -146.41027344 223.23167969 -147.3671875 223.53515625 C-148.30755859 223.82583984 -149.24792969 224.11652344 -150.21679688 224.41601562 C-152.54029721 225.13547512 -154.86097268 225.86294811 -157.1796875 226.59765625 C-155.80659313 234.59923566 -153.66367932 242.34529053 -151.34838867 250.11450195 C-150.73503335 252.18429827 -150.14000374 254.25887084 -149.54492188 256.33398438 C-149.15475506 257.65267245 -148.76351913 258.97104478 -148.37109375 260.2890625 C-148.02248291 261.47701416 -147.67387207 262.66496582 -147.31469727 263.88891602 C-146.75286743 265.22974243 -146.75286743 265.22974243 -146.1796875 266.59765625 C-142.75438513 267.73942371 -141.86295076 267.42873841 -138.51171875 266.3828125 C-137.61904297 266.10888672 -136.72636719 265.83496094 -135.80664062 265.55273438 C-134.87787109 265.25818359 -133.94910156 264.96363281 -132.9921875 264.66015625 C-132.05181641 264.36947266 -131.11144531 264.07878906 -130.14257812 263.77929688 C-127.81907779 263.05983738 -125.49840232 262.33236439 -123.1796875 261.59765625 C-123.7981549 256.48305538 -124.88196579 251.66976556 -126.359375 246.73046875 C-126.57280548 246.01027557 -126.78623596 245.2900824 -127.00613403 244.54806519 C-127.45560237 243.03968443 -127.90786043 241.53213237 -128.36279297 240.02539062 C-129.05792153 237.71189287 -129.73418419 235.39337561 -130.41015625 233.07421875 C-130.85041819 231.60512533 -131.29178499 230.13636247 -131.734375 228.66796875 C-131.93449188 227.9732547 -132.13460876 227.27854065 -132.34078979 226.56277466 C-132.9700483 224.41956641 -132.9700483 224.41956641 -134.1796875 221.59765625 C-137.60498987 220.45588879 -138.49642424 220.76657409 -141.84765625 221.8125 Z M-10.69580078 242.17626953 C-11.84441086 242.52660751 -12.99302094 242.8769455 -14.17643738 243.23789978 C-15.45097164 243.63121274 -16.72549205 244.02457057 -18 244.41796875 C-19.34019452 244.82820415 -20.6805145 245.23802989 -22.02095032 245.6474762 C-24.91830361 246.53325278 -27.81488576 247.421493 -30.71090698 248.31161499 C-37.78993043 250.48710488 -44.87309281 252.64906379 -51.95577049 254.81262016 C-54.43304402 255.56949282 -56.91017021 256.3268463 -59.38728333 257.08424377 C-75.37404196 261.97068472 -91.37828678 266.79837768 -107.38648224 271.61404419 C-114.25927662 273.68173788 -121.13156939 275.75109877 -128.00390625 277.8203125 C-129.16503685 278.16988699 -129.16503685 278.16988699 -130.34962463 278.52652359 C-147.20066027 283.60008125 -164.04539726 288.69440875 -180.88965225 293.79042435 C-198.31852985 299.06325312 -215.74882754 304.33138485 -233.1796875 309.59765625 C-234.20842232 309.90846886 -235.23715714 310.21928146 -236.29706573 310.53951263 C-249.29013275 314.46496191 -262.2838905 318.38811081 -275.27913475 322.30634689 C-280.51183806 323.88408648 -285.74431449 325.4625679 -290.97619629 327.04302979 C-295.86455796 328.51967222 -300.75358273 329.9940976 -305.64313316 331.46679878 C-307.44398682 332.00961331 -309.24460166 332.55322088 -311.04496193 333.0976696 C-313.50922939 333.84274312 -315.97434559 334.58493931 -318.43969727 335.32641602 C-319.15643993 335.54385782 -319.8731826 335.76129963 -320.61164474 335.98533058 C-332.12575147 339.43721695 -341.55987864 339.63167271 -352.3671875 333.91015625 C-360.19987888 327.46994334 -363.54704828 321.24224795 -366.56494141 311.55322266 C-367.4376554 308.77703558 -368.37365396 306.02309982 -369.30419922 303.26586914 C-370.27568846 300.38070467 -371.22792881 297.48938265 -372.1796875 294.59765625 C-374.32666952 295.23966061 -376.47224703 295.88636371 -378.6171875 296.53515625 C-380.40962891 297.07462891 -380.40962891 297.07462891 -382.23828125 297.625 C-385.03836295 298.30654767 -385.03836295 298.30654767 -386.1796875 299.59765625 C-386.28286161 300.96710629 -386.31817973 302.34177348 -386.32495117 303.71508789 C-386.33133102 304.59012466 -386.33771088 305.46516144 -386.34428406 306.36671448 C-386.34539688 307.32077682 -386.3465097 308.27483917 -386.34765625 309.2578125 C-386.35098465 310.23624619 -386.35431305 311.21467987 -386.35774231 312.22276306 C-386.36281877 314.30174285 -386.36515042 316.38073082 -386.36499023 318.4597168 C-386.36716156 321.62237302 -386.38526744 324.78467191 -386.40429688 327.94726562 C-386.40723378 329.96744673 -386.40921659 331.98762948 -386.41015625 334.0078125 C-386.41734177 334.94770523 -386.42452728 335.88759796 -386.43193054 336.85597229 C-386.40828817 343.74975628 -386.23996672 351.09845648 -381.3671875 356.47265625 C-380.88636719 357.02695312 -380.40554688 357.58125 -379.91015625 358.15234375 C-375.81603644 361.57181176 -371.64105174 361.84834362 -366.45919895 361.85213184 C-365.79338482 361.85533832 -365.1275707 361.8585448 -364.44158038 361.86184844 C-362.2066173 361.87016139 -359.97192129 361.86421972 -357.73695374 361.85835266 C-356.11999108 361.86137275 -354.50302984 361.86526152 -352.88607115 361.86994523 C-348.43951009 361.88025225 -343.99302943 361.87803654 -339.5464617 361.87376463 C-334.75224343 361.87130232 -329.95804476 361.88030538 -325.16383362 361.88780212 C-315.77039319 361.90056476 -306.37698133 361.90234088 -296.98353369 361.90000186 C-289.35021446 361.89822036 -281.71690392 361.89996473 -274.08358574 361.9042263 C-272.99805392 361.90482149 -271.9125221 361.90541668 -270.79409538 361.90602991 C-268.58899343 361.90724163 -266.38389149 361.90845576 -264.17878955 361.90967228 C-243.49000823 361.92055376 -222.8012432 361.9183824 -202.11246096 361.91228744 C-183.17635571 361.90711722 -164.24030188 361.91837542 -145.3042068 361.93738566 C-125.87006139 361.95674665 -106.43594034 361.96502315 -87.00178522 361.9612624 C-76.08718736 361.95934778 -65.17263329 361.96186332 -54.25804329 361.97597694 C-44.9668628 361.98786955 -35.67575304 361.98931948 -26.38457162 361.97718678 C-21.6425986 361.97128328 -16.9007551 361.97023916 -12.15879059 361.98218918 C-7.81935115 361.9929979 -3.48015014 361.99000468 0.85927791 361.97592749 C2.43055712 361.9732667 4.00185471 361.97569021 5.57311594 361.98366336 C7.7070272 361.99374147 9.84010517 361.98537229 11.97398281 361.97238636 C13.15979708 361.97244138 14.34561135 361.97249639 15.56735939 361.97255307 C20.71420394 361.37938877 23.89960421 359.49743935 27.5703125 355.91015625 C32.43173507 349.5564941 32.09907292 341.59613287 32.015625 333.97265625 C32.0127951 332.98515381 32.00996521 331.99765137 32.00704956 330.98022461 C31.9959307 327.8525741 31.97084166 324.72521897 31.9453125 321.59765625 C31.93527198 319.46614999 31.92614801 317.33463921 31.91796875 315.203125 C31.89601862 310.00120275 31.86262457 304.79945061 31.8203125 299.59765625 C31.20547501 299.39645676 30.59063751 299.19525726 29.95716858 298.98796082 C29.14896164 298.72147232 28.3407547 298.45498383 27.50805664 298.18041992 C26.3073629 297.78580818 26.3073629 297.78580818 25.08241272 297.38322449 C14.04213397 293.54922445 5.8855614 286.97696561 0.4453125 276.66015625 C-5.09316537 264.65008738 -5.28465022 253.3779046 -2.1796875 240.59765625 C-5.39661117 240.59765625 -7.6247638 241.23335706 -10.69580078 242.17626953 Z " fill="#000000" transform="translate(433.1796875,70.40234375)"/>
<path d="M0 0 C0.63035156 0.53238281 1.26070313 1.06476563 1.91015625 1.61328125 C2.6784375 2.25265625 3.44671875 2.89203125 4.23828125 3.55078125 C5.59179688 4.72640625 5.59179688 4.72640625 6.97265625 5.92578125 C8.11306141 6.90520395 9.25370235 7.88435216 10.39453125 8.86328125 C12.95217268 11.06627474 15.50040307 13.27962834 18.04296875 15.5 C21.85615504 18.82919767 25.69103988 22.13237712 29.53515625 25.42578125 C30.09420654 25.9055542 30.65325684 26.38532715 31.22924805 26.87963867 C32.29049709 27.78884722 33.35539233 28.69382135 34.42431641 29.59399414 C35.48750401 30.50848301 36.52812813 31.4496668 37.54833984 32.41186523 C40.45505324 35.19410934 40.45505324 35.19410934 44.25390625 35.8984375 C44.98609375 35.59808594 45.71828125 35.29773438 46.47265625 34.98828125 C47.32859375 34.67375 48.18453125 34.35921875 49.06640625 34.03515625 C50.02546875 33.6690625 50.98453125 33.30296875 51.97265625 32.92578125 C64.98500986 28.68781287 75.23403862 26.74430728 87.97265625 32.92578125 C91.78092304 35.68650187 95.83396111 38.64839097 97.97265625 42.92578125 C98.86571978 53.1301301 97.54751077 60.5469311 91.28515625 68.67578125 C85.04429895 75.29558422 76.81008281 77.87761029 68.22265625 80.11328125 C66.39390714 80.604453 64.56575964 81.09787128 62.73828125 81.59375 C61.94196289 81.80281982 61.14564453 82.01188965 60.32519531 82.22729492 C59.54885742 82.45779541 58.77251953 82.6882959 57.97265625 82.92578125 C57.13381897 83.17025497 56.29498169 83.4147287 55.4307251 83.66661072 C52.82077912 84.69519663 52.82077912 84.69519663 51.91149902 87.07553101 C51.7067395 87.96503448 51.50197998 88.85453796 51.29101562 89.77099609 C51.04726196 90.77899261 50.8035083 91.78698914 50.55236816 92.82553101 C50.30950073 93.91822296 50.0666333 95.01091492 49.81640625 96.13671875 C49.54679077 97.25640045 49.27717529 98.37608215 48.99938965 99.5296936 C48.13690067 103.1156036 47.30194029 106.70705702 46.47265625 110.30078125 C45.37988226 115.02242544 44.26165007 119.73702645 43.12890625 124.44921875 C42.88603882 125.53786224 42.64317139 126.62650574 42.39294434 127.74813843 C40.5841412 135.27487886 40.5841412 135.27487886 37.50708008 138.55029297 C34.17484674 140.35877025 30.77729414 141.59370237 27.16015625 142.67578125 C26.48662109 142.89621094 25.81308594 143.11664063 25.11914062 143.34375 C20.2545346 144.84270037 16.06106933 145.45748586 10.97265625 144.92578125 C8.76342773 143.54101562 8.76342773 143.54101562 6.97265625 140.92578125 C6.41582558 137.51141203 6.50809354 134.14267434 6.58203125 130.69140625 C6.58769104 129.69824402 6.59335083 128.70508179 6.59918213 127.68182373 C6.62155599 124.51265066 6.67175519 121.34461205 6.72265625 118.17578125 C6.7427199 116.02605801 6.76097091 113.87631702 6.77734375 111.7265625 C6.82142386 106.45924896 6.88834592 101.19259616 6.97265625 95.92578125 C6.26743835 96.11148178 5.56222046 96.29718231 4.83563232 96.48851013 C-1.81475556 98.23966738 -8.46520598 99.99058696 -15.11572647 101.7412405 C-18.534705 102.6412462 -21.9536594 103.54134334 -25.37255859 104.44165039 C-29.30429008 105.47699852 -33.2361266 106.51194722 -37.16796875 107.546875 C-38.39412903 107.8698204 -39.62028931 108.19276581 -40.88360596 108.52549744 C-42.02448669 108.82573318 -43.16536743 109.12596893 -44.34082031 109.43530273 C-45.34453674 109.69955551 -46.34825317 109.96380829 -47.38238525 110.23606873 C-48.69163971 110.57747643 -48.69163971 110.57747643 -50.02734375 110.92578125 C-50.73372986 111.11378799 -51.44011597 111.30179474 -52.16790771 111.49549866 C-55.28445355 112.21668261 -57.84187255 112.26109401 -61.02734375 111.92578125 C-65.93008855 107.76690118 -69.53891019 102.44715266 -73.33984375 97.30078125 C-74.00121338 96.40721924 -74.66258301 95.51365723 -75.34399414 94.59301758 C-76.64932676 92.82890294 -77.95364063 91.06403395 -79.25683594 89.29833984 C-80.73884108 87.31238756 -82.24579353 85.35553251 -83.78515625 83.4140625 C-89.4761731 76.10141181 -89.4761731 76.10141181 -89.77734375 71.98828125 C-88.87852268 68.31809523 -88.21806927 66.97111812 -85.02734375 64.92578125 C-77.66434866 64.27064092 -70.73128851 66.4991783 -63.65234375 68.32421875 C-62.67523438 68.55625 -61.698125 68.78828125 -60.69140625 69.02734375 C-59.8195166 69.24729004 -58.94762695 69.46723633 -58.04931641 69.69384766 C-50.65822725 70.26110688 -43.45607693 67.17681242 -36.6171875 64.66796875 C-35.76427628 64.36005402 -34.91136505 64.05213928 -34.03260803 63.7348938 C-31.34145098 62.76201529 -28.65313627 61.78154369 -25.96484375 60.80078125 C-24.12713659 60.1349101 -22.28924753 59.46954077 -20.45117188 58.8046875 C-15.9744402 57.1841747 -11.50023896 55.55685192 -7.02734375 53.92578125 C-7.02734375 50.6917167 -9.30282777 48.5144236 -11.15234375 45.98828125 C-11.58740234 45.38653076 -12.02246094 44.78478027 -12.47070312 44.16479492 C-17.06667446 37.82621102 -21.7208411 31.52924257 -26.37939453 25.23657227 C-26.95415527 24.45983154 -27.52891602 23.68309082 -28.12109375 22.8828125 C-28.63349609 22.1916333 -29.14589844 21.5004541 -29.67382812 20.78833008 C-32.55114972 16.8288989 -33.53025139 14.85427615 -33.02734375 9.92578125 C-30.9343 6.35358589 -29.03570323 5.22865517 -25.1328125 4.00390625 C-24.17697266 3.70097656 -23.22113281 3.39804688 -22.23632812 3.0859375 C-21.23923828 2.78558594 -20.24214844 2.48523438 -19.21484375 2.17578125 C-18.22935547 1.85996094 -17.24386719 1.54414063 -16.22851562 1.21875 C-4.5427622 -2.40705126 -4.5427622 -2.40705126 0 0 Z M-13.02734375 16.92578125 C-8.69110981 23.61833145 -4.03824754 30.01521129 0.78515625 36.36328125 C2.12643019 38.13172869 3.46634574 39.90120749 4.8046875 41.671875 C5.38968018 42.44200928 5.97467285 43.21214355 6.57739258 44.00561523 C7.97265625 45.92578125 7.97265625 45.92578125 8.97265625 47.92578125 C15.15426229 47.38825029 20.29951425 45.37995737 25.97265625 42.92578125 C22.12587062 38.97680397 18.08890166 35.33197004 13.91015625 31.73828125 C13.25764893 31.1760083 12.6051416 30.61373535 11.93286133 30.03442383 C9.94880493 28.32839114 7.96114428 26.62664513 5.97265625 24.92578125 C5.36744141 24.4059668 4.76222656 23.88615234 4.13867188 23.35058594 C2.48408571 21.93223687 0.82352994 20.52130683 -0.83984375 19.11328125 C-1.79503906 18.30246094 -2.75023437 17.49164063 -3.734375 16.65625 C-7.35122143 13.92667084 -9.08344518 15.26519238 -13.02734375 16.92578125 Z M55.296875 47.7734375 C54.15462967 48.17697952 53.01238434 48.58052155 51.83552551 48.99629211 C48.74642602 50.09002536 45.66097317 51.19335677 42.57693481 52.3012619 C39.36529172 53.45239171 36.14921272 54.59099193 32.93359375 55.73095703 C27.1076188 57.79841148 21.28551207 59.87650542 15.46533775 61.96022797 C9.46628318 64.10787571 3.46376048 66.24572627 -2.5390625 68.3828125 C-8.65097662 70.56000433 -14.76158858 72.74071708 -20.86846924 74.93199158 C-22.38787819 75.47653892 -23.90776126 76.01976558 -25.42816162 76.5615387 C-29.18930297 77.9021546 -32.94148595 79.26216053 -36.68334961 80.65576172 C-37.82392822 81.07409775 -37.82392822 81.07409775 -38.98754883 81.50088501 C-40.41507065 82.02448863 -41.83977345 82.55588033 -43.26074219 83.09701538 C-49.61164929 85.40621138 -55.33097842 85.5546573 -62.02734375 84.92578125 C-60.70590267 87.71686241 -59.22352014 90.18364514 -57.40234375 92.67578125 C-56.61067708 93.75911458 -55.81901042 94.84244792 -55.02734375 95.92578125 C-48.39659831 94.66093193 -41.85486224 93.19198157 -35.32104492 91.49902344 C-34.40722046 91.26452988 -33.493396 91.03003632 -32.55187988 90.78843689 C-29.5573202 90.01921714 -26.56378879 89.24608046 -23.5703125 88.47265625 C-21.46018936 87.92922609 -19.35002523 87.38595504 -17.23982239 86.84283447 C-12.82063924 85.70476524 -8.40196509 84.56474561 -3.98364258 83.42333984 C1.61805587 81.97639436 7.2209901 80.53430365 12.82433033 79.09373093 C17.18606728 77.97176113 21.54711033 76.84711263 25.90796471 75.72171783 C27.96975604 75.18996758 30.03175168 74.65900874 32.09397316 74.12892914 C38.72782536 72.42277033 45.35406749 70.69023226 51.97265625 68.92578125 C52.94100277 68.66900101 53.90934929 68.41222076 54.90703964 68.1476593 C57.78507843 67.37865579 60.658027 66.59297472 63.5300293 65.80175781 C64.39315389 65.57218258 65.25627848 65.34260735 66.14555836 65.10607529 C72.43507081 63.34325924 77.14083741 61.1333578 81.41015625 55.98828125 C83.11806003 53.10473975 83.11806003 53.10473975 83.22265625 50.30078125 C81.54452791 47.1123374 79.53021354 46.2045599 76.37109375 44.625 C68.79344976 42.41588229 62.42802255 45.19291199 55.296875 47.7734375 Z M34.97265625 87.92578125 C32.99245882 88.40067023 31.0135199 88.88080984 29.03515625 89.36328125 C27.93300781 89.63011719 26.83085937 89.89695312 25.6953125 90.171875 C23.07844371 90.6557385 23.07844371 90.6557385 21.97265625 91.92578125 C21.88410464 94.59204155 21.85740952 97.23225239 21.875 99.8984375 C21.87641495 100.69608017 21.8778299 101.49372284 21.87928772 102.3155365 C21.88490309 104.8731556 21.89745813 107.43068843 21.91015625 109.98828125 C21.91516927 111.7180977 21.91973252 113.44791551 21.92382812 115.17773438 C21.9348775 119.42711678 21.95215239 123.67643437 21.97265625 127.92578125 C24.46621477 127.51620796 24.46621477 127.51620796 26.97265625 125.92578125 C28.08169196 123.1722073 28.81761005 120.78996904 29.46484375 117.92578125 C29.65990509 117.13429688 29.85496643 116.3428125 30.05593872 115.52734375 C30.46388532 113.85525514 30.86167213 112.18065972 31.25 110.50390625 C31.84658361 107.93040831 32.47309203 105.36569335 33.10546875 102.80078125 C33.4978594 101.1762067 33.88854336 99.55121878 34.27734375 97.92578125 C34.46368378 97.15492188 34.6500238 96.3840625 34.8420105 95.58984375 C35.93943346 91.68569799 35.93943346 91.68569799 34.97265625 87.92578125 Z " fill="#000000" transform="translate(178.02734375,181.07421875)"/>
<path d="M0 0 C0.77429855 -0.00846954 1.54859711 -0.01693909 2.34635925 -0.02566528 C4.90823755 -0.04908183 7.46951688 -0.05005636 10.03149414 -0.04882812 C11.81124615 -0.05592697 13.59099586 -0.06362556 15.3707428 -0.07189941 C19.1023698 -0.08535495 22.8337852 -0.08690824 26.56542969 -0.08105469 C31.34867252 -0.07515786 36.1309006 -0.10574387 40.91394711 -0.14617157 C44.58998591 -0.17201543 48.26577931 -0.17492902 51.94189644 -0.17127991 C53.70537428 -0.17297431 55.46886307 -0.18264761 57.23225212 -0.20042419 C59.69849508 -0.22254944 62.16267066 -0.21294687 64.62890625 -0.1953125 C65.35787109 -0.20857574 66.08683594 -0.22183899 66.83789062 -0.23550415 C70.55961469 -0.173638 72.09007592 0.14601302 74.83218384 2.7442627 C76.85364926 6.24062305 76.88106184 8.70556103 76.87524414 12.73242188 C76.87669937 13.42376221 76.8781546 14.11510254 76.87965393 14.82739258 C76.87800048 16.28308342 76.86650121 17.73879274 76.84570312 19.19433594 C76.81673394 21.4135212 76.82510613 23.63031597 76.83813477 25.84960938 C76.78428226 38.10204844 76.78428226 38.10204844 73.37915039 42.41992188 C69.88890825 43.58333592 66.75590332 43.56755764 63.12548828 43.56518555 C62.39020401 43.56854416 61.65491974 43.57190277 60.89735413 43.57536316 C58.46548781 43.5848661 56.03369038 43.58681588 53.60180664 43.58789062 C51.91173779 43.59110346 50.22166922 43.59446756 48.53160095 43.59797668 C44.9883459 43.60396616 41.44511523 43.60581675 37.90185547 43.60522461 C33.36108854 43.60512295 28.82047785 43.61877972 24.27974796 43.63599682 C20.7890501 43.64711335 17.29839007 43.64914393 13.80767632 43.64861488 C12.13353372 43.64979535 10.45939015 43.65422085 8.78526497 43.66194725 C6.44413415 43.67174096 4.10334328 43.66887174 1.76220703 43.6628418 C0.7248642 43.67127106 0.7248642 43.67127106 -0.33343506 43.67987061 C-3.91023481 43.65645204 -6.63473822 43.48982609 -9.62084961 41.41992188 C-11.19260566 38.27640978 -10.80486312 34.9074867 -10.82397461 31.45507812 C-10.82967468 30.66596542 -10.83537476 29.87685272 -10.84124756 29.06382751 C-10.85069886 27.39355817 -10.85723206 25.72327016 -10.86108398 24.05297852 C-10.8707983 21.49592675 -10.90182293 18.93967583 -10.93334961 16.3828125 C-10.93987883 14.76107249 -10.94512962 13.13932672 -10.94897461 11.51757812 C-10.96132141 10.75188004 -10.97366821 9.98618195 -10.98638916 9.19728088 C-10.9644544 3.97824395 -10.9644544 3.97824395 -9.57487488 1.72032166 C-6.57116694 -0.27863977 -3.4895519 -0.01398994 0 0 Z M3.37915039 15.41992188 C3.37915039 19.70992188 3.37915039 23.99992187 3.37915039 28.41992188 C22.51915039 28.41992188 41.65915039 28.41992188 61.37915039 28.41992188 C61.37915039 24.12992187 61.37915039 19.83992188 61.37915039 15.41992188 C42.23915039 15.41992188 23.09915039 15.41992188 3.37915039 15.41992188 Z " fill="#000000" transform="translate(349.620849609375,374.580078125)"/>
<path d="M0 0 C4.7988082 3.31296791 5.59482897 10.41987737 7.1875 15.6875 C7.55552734 16.84701172 7.92355469 18.00652344 8.30273438 19.20117188 C11.87655064 30.86414554 11.87655064 30.86414554 11 37 C7.57833484 41.99110155 1.85320063 42.94234789 -3.65234375 44.56640625 C-4.7034584 44.88657211 -5.75457306 45.20673798 -6.83753967 45.53660583 C-9.06413146 46.21223832 -11.29258056 46.88177562 -13.52270508 47.5456543 C-16.89748349 48.55058402 -20.26643932 49.57328581 -23.63476562 50.59960938 C-29.74204135 52.45120827 -35.86449969 54.24437296 -42 56 C-42.75146301 56.21839539 -43.50292603 56.43679077 -44.27716064 56.6618042 C-46.09610535 57.18242478 -47.92459075 57.66942509 -49.75390625 58.15234375 C-51.13751343 58.52153931 -51.13751343 58.52153931 -52.54907227 58.89819336 C-55.86825159 59.03606544 -57.39609846 57.99331029 -60 56 C-61.27260989 53.60913142 -62.14893096 51.5423691 -63 49 C-63.44569336 47.7003833 -63.44569336 47.7003833 -63.90039062 46.37451172 C-64.889196 43.40658521 -65.82440021 40.42570181 -66.75 37.4375 C-67.07871094 36.42236328 -67.40742188 35.40722656 -67.74609375 34.36132812 C-70.77041109 24.59291073 -70.77041109 24.59291073 -69 20 C-65.39804909 16.46730609 -60.7262483 15.44981226 -56.01953125 14.0390625 C-55.1332756 13.76661713 -54.24701996 13.49417175 -53.33390808 13.21347046 C-50.49568907 12.34307894 -47.65418588 11.48399649 -44.8125 10.625 C-42.95095184 10.05540612 -41.08962136 9.4851003 -39.22851562 8.9140625 C-35.57299307 7.79422657 -31.9142567 6.6859905 -28.25244141 5.58691406 C-24.84465312 4.56358382 -21.4473922 3.51336465 -18.05615234 2.43652344 C-16.54135969 1.96543516 -15.02654951 1.49440324 -13.51171875 1.0234375 C-12.49704277 0.6914183 -12.49704277 0.6914183 -11.46186829 0.35269165 C-7.28730841 -0.92636386 -4.20539751 -1.25939058 0 0 Z M-10 16 C-24.19 20.29 -38.38 24.58 -53 29 C-51.68 33.29 -50.36 37.58 -49 42 C-43.35814114 40.30991267 -37.71646268 38.61922497 -32.07495117 36.92797852 C-30.15540444 36.35261763 -28.23580835 35.77742138 -26.31616211 35.20239258 C-23.55830122 34.37624609 -20.80061785 33.54950938 -18.04296875 32.72265625 C-17.18350143 32.46533218 -16.32403412 32.20800812 -15.43852234 31.94288635 C-14.63791885 31.70271286 -13.83731537 31.46253937 -13.01245117 31.21508789 C-12.3085173 31.00412979 -11.60458344 30.79317169 -10.87931824 30.57582092 C-9.24514889 30.07511333 -7.62144867 29.54048289 -6 29 C-6.28317926 27.39431334 -6.57687791 25.79047953 -6.875 24.1875 C-7.03742188 23.29417969 -7.19984375 22.40085937 -7.3671875 21.48046875 C-7.91188449 18.77272154 -7.91188449 18.77272154 -10 16 Z " fill="#000000" transform="translate(397,105)"/>
<path d="M0 0 C0.78419815 -0.00861557 1.5683963 -0.01723114 2.37635803 -0.02610779 C4.96543494 -0.0487886 7.55343139 -0.04202586 10.14257812 -0.03295898 C11.94332196 -0.03819341 13.74406305 -0.04446922 15.5447998 -0.05174255 C19.3175955 -0.06215044 23.09001411 -0.05757944 26.86279297 -0.04296875 C31.69873046 -0.02577422 36.53348059 -0.04928187 41.36928558 -0.08445835 C45.08738078 -0.10641282 48.80519095 -0.10499576 52.52333069 -0.09669304 C54.30633344 -0.09587256 56.08935693 -0.10275445 57.87229919 -0.11746407 C60.36482883 -0.13487616 62.85521317 -0.12039819 65.34765625 -0.09765625 C66.08440079 -0.10934845 66.82114532 -0.12104065 67.58021545 -0.13308716 C71.31493853 -0.06371757 72.88718428 0.2671005 75.66296387 2.84632874 C77.17382812 5.53344727 77.17382812 5.53344727 77.17382812 9.15844727 C76.03849311 12.99020295 75.59928447 13.66716191 72.17382812 15.53344727 C69.55246705 15.83342797 67.16793486 15.96408913 64.54711914 15.95336914 C63.78403442 15.96183868 63.02094971 15.97030823 62.23474121 15.97903442 C59.71556879 16.00240827 57.19700698 16.00342654 54.67773438 16.00219727 C52.92422745 16.00929855 51.17072286 16.0169975 49.41722107 16.02526855 C45.74284403 16.03871417 42.06868186 16.04028177 38.39428711 16.03442383 C33.68851412 16.02852712 28.98377265 16.05911705 24.2781992 16.09954071 C20.65702268 16.12540596 17.03609495 16.12829623 13.41483879 16.12464905 C11.68009791 16.12634136 9.94534567 16.13599465 8.21069527 16.15379333 C5.78307429 16.17596157 3.35754622 16.16629436 0.92993164 16.14868164 C0.21548386 16.16194489 -0.49896393 16.17520813 -1.23506165 16.18887329 C-5.09122251 16.12395554 -6.72009789 15.6178521 -9.77577209 13.18640137 C-11.82617188 10.53344727 -11.82617188 10.53344727 -12.38867188 7.47094727 C-11.04979456 0.47903239 -6.2767416 -0.05559764 0 0 Z " fill="#000000" transform="translate(235.826171875,391.466552734375)"/>
<path d="M0 0 C1.82599685 3.04332808 1.54960581 5.41749555 1.125 8.875 C-1.754213 12.51831184 -4.51463145 13.71457596 -8.90625 15.0234375 C-10.10040527 15.38638916 -11.29456055 15.74934082 -12.52490234 16.12329102 C-13.80813032 16.4993316 -15.09149912 16.87489192 -16.375 17.25 C-17.6860194 17.64211358 -18.99672773 18.03526868 -20.30712891 18.42944336 C-22.92857573 19.2163632 -25.55192577 19.99642506 -28.17675781 20.77197266 C-31.45837513 21.75073864 -34.72710819 22.76065166 -37.9921875 23.79296875 C-39.34086914 24.21473389 -39.34086914 24.21473389 -40.71679688 24.64501953 C-42.35282959 25.15683162 -43.987097 25.67433723 -45.61914062 26.19873047 C-50.87854933 27.81246534 -56.01903962 29.04667605 -61.3125 26.875 C-63.3051072 24.32446279 -63.39969411 22.09169148 -63.50390625 18.91015625 C-62.49546926 15.64682909 -60.72265308 14.77050344 -57.875 12.875 C-54.20618263 11.40581571 -50.44766537 10.28934865 -46.66015625 9.16796875 C-45.57165878 8.83831619 -44.48316132 8.50866364 -43.36167908 8.16902161 C-41.06452191 7.47686481 -38.76560623 6.79052107 -36.46508789 6.10961914 C-32.94824421 5.06568928 -29.43994396 3.9960624 -25.93164062 2.92382812 C-23.69578084 2.25364387 -21.45946684 1.58497271 -19.22265625 0.91796875 C-18.17562027 0.59724899 -17.12858429 0.27652924 -16.04981995 -0.0539093 C-5.31463129 -3.18877877 -5.31463129 -3.18877877 0 0 Z " fill="#000000" transform="translate(169.875,345.125)"/>
<path d="M0 0 C2.35040584 2.61156205 2.61771482 4.38574078 2.6875 7.875 C1.282053 10.94908633 0.35523364 12.52990092 -2.67822266 14.09765625 C-3.6016748 14.37480469 -4.52512695 14.65195313 -5.4765625 14.9375 C-6.50861816 15.25726807 -7.54067383 15.57703613 -8.60400391 15.90649414 C-10.25408447 16.38590454 -10.25408447 16.38590454 -11.9375 16.875 C-13.05946777 17.2145874 -14.18143555 17.5541748 -15.33740234 17.90405273 C-17.6002522 18.58672821 -19.86539024 19.26186752 -22.1328125 19.92919922 C-24.93491201 20.76268613 -27.71874227 21.63511035 -30.5 22.53515625 C-31.97898988 23.00316323 -33.45814291 23.47065509 -34.9375 23.9375 C-35.59186035 24.15341797 -36.2462207 24.36933594 -36.92041016 24.59179688 C-41.36734338 25.94435247 -44.79401212 25.91386124 -49.3125 24.875 C-51.9006216 22.62082958 -52.25492643 21.26979021 -52.75 17.875 C-52.18826845 14.02312653 -51.35589501 13.28129611 -48.3125 10.875 C-45.40959066 9.61326153 -42.42033795 8.73862111 -39.3828125 7.859375 C-38.51486053 7.59868225 -37.64690857 7.3379895 -36.75265503 7.06939697 C-34.92042814 6.52220008 -33.08631192 5.98129501 -31.25048828 5.44628906 C-28.4497445 4.62857494 -25.65641344 3.78861505 -22.86328125 2.9453125 C-21.07852133 2.41533015 -19.29337678 1.88664102 -17.5078125 1.359375 C-16.67637726 1.10943787 -15.84494202 0.85950073 -14.98831177 0.60198975 C-4.80541698 -2.33777042 -4.80541698 -2.33777042 0 0 Z " fill="#000000" transform="translate(437.3125,236.125)"/>
<path d="M0 0 C2.375 1.5625 2.375 1.5625 4 4 C4.53045571 7.71318997 4.77422829 9.93296611 2.52685547 13.03027344 C-1.00876032 15.78634573 -4.65996972 16.77970689 -8.9296875 18.015625 C-9.79763947 18.27631775 -10.66559143 18.5370105 -11.55984497 18.80560303 C-13.39207186 19.35279992 -15.22618808 19.89370499 -17.06201172 20.42871094 C-19.8627555 21.24642506 -22.65608656 22.08638495 -25.44921875 22.9296875 C-27.23397867 23.45966985 -29.01912322 23.98835898 -30.8046875 24.515625 C-31.63612274 24.76556213 -32.46755798 25.01549927 -33.32418823 25.27301025 C-37.64130987 26.51934565 -41.4585655 27.44630299 -46 27 C-48.375 25.4375 -48.375 25.4375 -50 23 C-50.53045571 19.28681003 -50.77422829 17.06703389 -48.52685547 13.96972656 C-44.99123968 11.21365427 -41.34003028 10.22029311 -37.0703125 8.984375 C-36.20236053 8.72368225 -35.33440857 8.4629895 -34.44015503 8.19439697 C-32.60792814 7.64720008 -30.77381192 7.10629501 -28.93798828 6.57128906 C-26.1372445 5.75357494 -23.34391344 4.91361505 -20.55078125 4.0703125 C-18.76602133 3.54033015 -16.98087678 3.01164102 -15.1953125 2.484375 C-14.36387726 2.23443787 -13.53244202 1.98450073 -12.67581177 1.72698975 C-8.35869013 0.48065435 -4.5414345 -0.44630299 0 0 Z " fill="#000000" transform="translate(443,260)"/>
<path d="M0 0 C4.4060867 3.4868906 5.19622363 9.08992785 6.75 14.25 C7.07871094 15.27480469 7.40742188 16.29960937 7.74609375 17.35546875 C9.46547153 22.99241617 10.59923532 27.25517409 9 33 C7.375 35 7.375 35 5 36 C-0.97902676 35.79020959 -0.97902676 35.79020959 -3.59863281 33.76269531 C-6.53087011 30.07441076 -7.41006339 25.19991294 -8.75 20.75 C-9.24306641 19.21279297 -9.24306641 19.21279297 -9.74609375 17.64453125 C-11.45859128 12.0301406 -12.66076884 7.71613461 -11 2 C-7.3487558 -1.33828041 -4.64215415 -1.41282953 0 0 Z " fill="#000000" transform="translate(338,254)"/>
<path d="M0 0 C3.10201164 0.80973816 4.08814172 1.95604041 6.03515625 4.53125 C7.37887043 7.71036326 8.33780486 10.96552014 9.28515625 14.28125 C9.55328125 15.15007812 9.82140625 16.01890625 10.09765625 16.9140625 C11.681405 22.29557611 12.47146384 26.92158103 12.03515625 32.53125 C10.41015625 35.03125 10.41015625 35.03125 8.03515625 36.53125 C4.73304452 37.01280796 2.86824388 37.01793924 -0.03222656 35.32348633 C-2.39345512 33.13377197 -2.9672314 31.48954616 -3.88671875 28.41796875 C-4.18964844 27.41701172 -4.49257813 26.41605469 -4.8046875 25.38476562 C-5.10503906 24.33998047 -5.40539062 23.29519531 -5.71484375 22.21875 C-6.03066406 21.18556641 -6.34648437 20.15238281 -6.671875 19.08789062 C-10.15088787 7.34810478 -10.15088787 7.34810478 -7.96484375 2.15625 C-5.40658159 0.07766199 -3.2347431 0.04986117 0 0 Z " fill="#000000" transform="translate(318.96484375,199.46875)"/>
<path d="M0 0 C4.39424745 4.10129762 5.64263951 9.27384073 7.25 14.875 C7.518125 15.74769531 7.78625 16.62039062 8.0625 17.51953125 C9.5164087 22.45243577 10.46376418 26.80449697 10 32 C8.4375 34.4375 8.4375 34.4375 6 36 C2.5 36.5625 2.5 36.5625 -1 36 C-5.35148016 31.85091426 -6.63253418 26.79498991 -8.25 21.1875 C-8.6521875 19.89102539 -8.6521875 19.89102539 -9.0625 18.56835938 C-12.67643877 6.35287755 -12.67643877 6.35287755 -10 1 C-6.80066571 -0.59966715 -3.40772733 -0.994193 0 0 Z " fill="#000000" transform="translate(305,146)"/>
</svg>
