<?xml version="1.0" encoding="UTF-8"?>
<svg version="1.1" xmlns="http://www.w3.org/2000/svg" width="512" height="512">
<path d="M0 0 C7.11842878 5.29993941 12.61496222 12.92208759 14.32421875 21.73046875 C14.3235106 23.93669583 14.26971587 26.14311063 14.18359375 28.34765625 C13.8260976 46.34456233 15.59247183 58.13055354 26.46289062 73.09863281 C29.66311731 77.62361231 32.42669549 82.40930837 35.26171875 87.16796875 C36.43493487 89.09531379 37.61072193 91.02109617 38.7890625 92.9453125 C42.30825682 98.70249293 45.81697171 104.46600481 49.32421875 110.23046875 C50.47785992 112.12500284 51.63150577 114.01953408 52.78515625 115.9140625 C55.25218369 119.96664172 57.71506075 124.02171333 60.17578125 128.078125 C60.80742187 129.11839844 61.4390625 130.15867188 62.08984375 131.23046875 C63.2966264 133.21811077 64.5024148 135.2063569 65.70703125 137.1953125 C66.25359375 138.09507812 66.80015625 138.99484375 67.36328125 139.921875 C67.83975098 140.70763916 68.3162207 141.49340332 68.80712891 142.30297852 C69.30776855 143.10405029 69.8084082 143.90512207 70.32421875 144.73046875 C70.97713898 146.26960182 70.97713898 146.26960182 71.64324951 147.83982849 C74.74645848 151.18573066 75.38355259 151.19144269 79.74917603 151.44958496 C82.07836906 151.46647953 84.40793836 151.45006777 86.73681641 151.40820312 C88.68944893 151.4097259 90.64208145 151.41125027 92.59471393 151.41283417 C94.69249939 151.40872312 96.78969048 151.38978043 98.88734818 151.36665344 C103.26762425 151.31920614 107.647193 151.31746316 112.02767944 151.32263184 C122.12427205 151.32757932 132.22037802 151.27288345 142.31678772 151.21747589 C151.55583403 151.16734763 160.79446305 151.13005318 170.03366506 151.14092684 C174.38016545 151.1443253 178.72521595 151.11886364 183.07143712 151.0707016 C185.13072924 151.05245746 187.18950545 151.04807091 189.24887085 151.04972839 C191.74851976 151.05166178 194.24832099 151.03252167 196.74755859 150.98713684 C204.72293007 151.04411045 210.01681753 152.78424024 216.32421875 157.73046875 C218.578125 160.14453125 218.578125 160.14453125 219.88671875 162.35546875 C220.34175781 163.09023437 220.79679687 163.825 221.265625 164.58203125 C224.08311655 170.30018753 224.42131252 177.12654415 222.5703125 183.20703125 C219.06206374 191.43421855 214.61298467 196.24383459 206.32421875 199.73046875 C202.84540207 200.39536619 199.47383997 200.42298121 195.93920898 200.38989258 C194.44494133 200.40561813 194.44494133 200.40561813 192.92048645 200.42166138 C189.65760543 200.45025336 186.39579555 200.44413823 183.1328125 200.4375 C180.858797 200.45062457 178.58479314 200.46593112 176.31080627 200.48332214 C170.34811221 200.52309561 164.38572366 200.53335773 158.4229126 200.53735352 C152.32937396 200.54669928 146.23601374 200.58412196 140.14257812 200.61914062 C128.20313328 200.68363876 116.26382258 200.71694268 104.32421875 200.73046875 C104.74606445 201.41334961 105.16791016 202.09623047 105.60253906 202.79980469 C107.23635295 205.4459981 108.86900132 208.09290669 110.50097656 210.74023438 C111.52715855 212.40416185 112.55456557 214.06733364 113.58203125 215.73046875 C114.26523438 216.8390625 114.9484375 217.94765625 115.65234375 219.08984375 C116.02748832 219.66249214 116.40263288 220.23514053 116.78914547 220.82514191 C119.12051889 224.45237511 120.85781031 227.97772728 122.39320374 232.01257324 C124.7967783 237.77815216 127.2544721 242.88554796 132.32421875 246.73046875 C141.92225148 250.11060511 152.76461973 249.16387924 162.79641223 248.82855034 C166.84313692 248.71581158 170.88971781 248.72123052 174.9377594 248.71447754 C182.60239185 248.68476993 190.26189461 248.55694644 197.92464453 248.39006472 C209.1419258 248.14977504 220.3606378 248.04892887 231.57999516 247.95851898 C233.2449856 247.9449645 234.90997603 247.93140709 236.57496643 247.91784668 C237.38884593 247.91145849 238.20272542 247.9050703 239.04126793 247.89848852 C243.84052168 247.85740282 248.6379933 247.78520557 253.43635738 247.68444252 C256.43486977 247.6239291 259.43350379 247.57942859 262.43232727 247.5375042 C264.45893084 247.50339625 266.4851406 247.44791639 268.51124573 247.39149475 C283.05508893 247.21530582 295.87706052 251.45061907 306.57421875 261.48046875 C316.39384402 271.89522283 320.71254652 284.49620107 320.5390625 298.6640625 C319.45464862 314.14160609 312.85732888 325.4297759 301.26953125 335.51953125 C290.56571007 343.39592797 277.89320354 345.48622065 264.95336914 345.2980957 C263.59156853 345.2966801 262.22976412 345.29748717 260.8679657 345.30030823 C257.22399446 345.30172388 253.58087156 345.27264097 249.93709493 345.23743844 C246.1095116 345.20586024 242.28190187 345.20321973 238.45420837 345.1973114 C231.22966606 345.18186423 224.00550889 345.14096172 216.78113502 345.09056395 C208.54641572 345.03438349 200.31167656 345.00711238 192.07681286 344.98208678 C175.15905993 344.93003585 158.24168026 344.84227447 141.32421875 344.73046875 C141.12350643 345.41152302 140.92279411 346.09257729 140.7159996 346.79426956 C140.31683523 348.13883287 140.31683523 348.13883287 139.90960693 349.51055908 C139.64701962 350.39786335 139.3844323 351.28516762 139.11388779 352.19935989 C138.12817506 355.35884328 136.90680892 358.36702574 135.58984375 361.40234375 C135.09871094 362.56121094 134.60757813 363.72007812 134.1015625 364.9140625 C133.07525219 367.31053646 132.04127006 369.70373809 131 372.09375 C130.51402344 373.24746094 130.02804688 374.40117187 129.52734375 375.58984375 C129.08036133 376.62592773 128.63337891 377.66201172 128.17285156 378.72949219 C127.19558296 382.18535688 127.36696396 384.28998964 128.32421875 387.73046875 C131.80059247 391.20684247 135.52159836 390.84440454 140.29541016 390.85169983 C141.08818359 390.84802902 141.88095703 390.84435822 142.69775391 390.84057617 C144.44446819 390.84111882 146.19118247 390.84170582 147.93789673 390.84233093 C148.86217091 390.84090277 149.78644508 390.8394746 150.73872757 390.83800316 C155.64879032 390.83447478 160.55873974 390.8603001 165.46875 390.88085938 C171.7098954 390.90515756 177.95070851 390.92092791 184.19189453 390.90551758 C189.24130805 390.89381678 194.28989862 390.91135924 199.33918381 390.94796181 C201.25675056 390.95654439 203.17439673 390.95454735 205.09193802 390.94145775 C224.59296456 390.81832939 224.59296456 390.81832939 232.32421875 397.73046875 C234.578125 400.14453125 234.578125 400.14453125 235.88671875 402.35546875 C236.34175781 403.09023438 236.79679687 403.825 237.265625 404.58203125 C240.08311655 410.30018753 240.42131252 417.12654415 238.5703125 423.20703125 C235.54087492 430.31135938 231.94537112 434.95982531 225.10820198 438.65437126 C219.67359174 440.75501984 214.05701072 440.41363963 208.30249023 440.36157227 C206.90528457 440.36671947 205.50808542 440.37400677 204.11090088 440.383255 C200.3401082 440.40167416 196.57002809 440.38889211 192.79926562 440.36916471 C188.8405399 440.35270101 184.88185659 440.36160163 180.92311096 440.36668396 C174.27813418 440.37119582 167.63343972 440.35539041 160.98852539 440.32739258 C153.3204047 440.29533143 145.65279263 440.2953644 137.98463577 440.31260735 C130.58796502 440.32850292 123.19147967 440.32172031 115.79481697 440.30467033 C112.65582366 440.29782133 109.51697991 440.29881 106.37798882 440.30621529 C102.6783837 440.31390954 98.97935347 440.30165095 95.27984619 440.27436638 C93.2847776 440.26426157 91.28963974 440.27363188 89.29457092 440.28369141 C81.23204059 440.19828511 75.70847272 439.34812429 69.3359375 434.08984375 C64.3168783 427.9899842 61.4897477 421.79107046 61.8828125 413.75463867 C62.39486304 410.24646938 63.43636649 407.3230403 64.7109375 404.01171875 C64.97045197 403.33463867 65.22996643 402.65755859 65.49734497 401.95996094 C69.78707857 390.84038159 74.25858381 379.79034151 78.69921875 368.73046875 C79.63557866 366.39459618 80.57177777 364.05865915 81.5078125 361.72265625 C83.7780965 356.05784996 86.05035677 350.39383971 88.32421875 344.73046875 C87.68395752 344.75141602 87.04369629 344.77236328 86.3840332 344.79394531 C83.468423 344.87736159 80.55306423 344.92920844 77.63671875 344.98046875 C76.62931641 345.01398438 75.62191406 345.0475 74.58398438 345.08203125 C67.19986608 345.17951136 67.19986608 345.17951136 63.32299805 343.19140625 C60.79316031 340.07661886 59.41628117 336.82172818 58.03125 333.10546875 C50.31258904 312.73869093 50.31258904 312.73869093 34.23120117 299.18164062 C29.98870685 297.48356816 25.75602328 295.94606895 21.34936523 294.73071289 C14.39499144 292.43129642 10.04781644 290.52825467 6.64128113 283.79418945 C6.27497086 283.01003662 5.90866058 282.22588379 5.53125 281.41796875 C5.11833206 280.58547607 4.70541412 279.7529834 4.27998352 278.89526367 C3.39649564 277.10690247 2.52385641 275.31314779 1.66119385 273.51464844 C0.3255186 270.73317563 -1.04055817 267.96877915 -2.41650391 265.20703125 C-5.30475187 259.39649512 -8.14956875 253.56533117 -10.98828125 247.73046875 C-12.00075238 245.65231382 -13.01328547 243.57418908 -14.02587891 241.49609375 C-15.52724441 238.41402892 -17.02804521 235.3316951 -18.52716064 232.24853516 C-21.01420403 227.13435403 -23.51054036 222.02516964 -26.03074646 216.92724609 C-26.98100808 215.00384891 -27.9272827 213.07855438 -28.87182617 211.15234375 C-29.95199131 208.95086134 -31.0388627 206.75265006 -32.1340332 204.55859375 C-34.56502608 199.57107761 -36.50062615 195.32083562 -36.67578125 189.73046875 C-35.53927181 187.35413082 -34.53137096 185.58605846 -32.67578125 183.73046875 C-29.81700216 183.49345636 -26.97694828 183.30827693 -24.11328125 183.16796875 C-23.30697266 183.12478516 -22.50066406 183.08160156 -21.66992188 183.03710938 C-19.6720932 182.93071613 -17.67396055 182.83005987 -15.67578125 182.73046875 C-15.95139893 182.18447021 -16.2270166 181.63847168 -16.51098633 181.07592773 C-17.83918484 178.44116083 -19.16369779 175.80455481 -20.48828125 173.16796875 C-20.92076172 172.31138672 -21.35324219 171.45480469 -21.79882812 170.57226562 C-25.20265509 163.78841467 -28.48906632 156.95315195 -31.75390625 150.1015625 C-38.48207809 135.98747066 -45.39055815 121.96296552 -52.29711914 107.93554688 C-53.93388826 104.61007795 -55.56859823 101.28360276 -57.203125 97.95703125 C-57.94066261 96.46159286 -57.94066261 96.46159286 -58.69309998 94.9359436 C-59.61224339 93.06459155 -60.52334717 91.18926304 -61.42524719 89.30953979 C-62.21638927 87.67790761 -63.03384813 86.0585547 -63.88664246 84.45828247 C-67.0511105 78.20483611 -67.24409992 72.57741131 -67.171875 65.64453125 C-67.17333023 64.50696381 -67.17478546 63.36939636 -67.17628479 62.19735718 C-67.17463219 59.8021182 -67.16314313 57.4068679 -67.14233398 55.01171875 C-67.1134224 51.37323174 -67.12173215 47.73620852 -67.13476562 44.09765625 C-67.12852568 41.75910759 -67.12013274 39.42056349 -67.109375 37.08203125 C-67.11231064 36.00772858 -67.11524628 34.9334259 -67.11827087 33.8265686 C-66.96532911 21.39244569 -64.2360912 12.5798345 -55.63671875 3.6015625 C-40.55043299 -10.87167631 -17.10511538 -10.87530883 0 0 Z M-44.984375 16.5234375 C-54.53512463 28.98573205 -52.29826762 52.3518437 -50.85107422 66.94970703 C-47.92991608 87.54110632 -34.54224328 106.95367802 -24.67578125 124.73046875 C-20.38578125 133.64046875 -16.09578125 142.55046875 -11.67578125 151.73046875 C9.77421875 151.73046875 31.22421875 151.73046875 53.32421875 151.73046875 C51.82355055 147.97879826 50.39853754 144.98746958 48.33984375 141.58203125 C47.4425354 140.09195557 47.4425354 140.09195557 46.52709961 138.57177734 C45.88264893 137.51039551 45.23819824 136.44901367 44.57421875 135.35546875 C43.90463135 134.2463916 43.23504395 133.13731445 42.54516602 131.99462891 C40.47687337 128.56997817 38.40104344 125.1499524 36.32421875 121.73046875 C35.71368652 120.72435547 35.1031543 119.71824219 34.47412109 118.68164062 C31.0164833 112.98625718 27.55033921 107.29609753 24.08007812 101.60839844 C19.3451526 93.8476501 14.61540473 86.08375794 9.89453125 78.31445312 C8.88221326 76.64866121 7.86924191 74.98326609 6.85546875 73.31835938 C5.57112549 71.20758501 4.29069572 69.09449764 3.01171875 66.98046875 C2.64457764 66.37847656 2.27743652 65.77648437 1.89916992 65.15625 C-1.19309649 60.02636183 -1.80074663 56.47104736 -1.8515625 50.5 C-1.87477545 49.0423035 -1.89889337 47.58462119 -1.92382812 46.12695312 C-1.95879894 43.84064434 -1.98821109 41.55485307 -2.00170898 39.26831055 C-1.95478589 25.96360521 -1.95478589 25.96360521 -8.53515625 14.70703125 C-20.45068672 6.1889041 -33.89274506 7.0064022 -44.984375 16.5234375 Z M-2.67578125 167.73046875 C-0.84690085 173.65954991 1.33359406 179.16057572 4.16796875 184.67578125 C4.53716431 185.40755585 4.90635986 186.13933044 5.28674316 186.89328003 C6.46015662 189.21697259 7.64160905 191.53644505 8.82421875 193.85546875 C10.35895698 196.87714832 11.88986227 199.9007427 13.41796875 202.92578125 C13.81040771 203.7023407 14.20284668 204.47890015 14.60717773 205.2789917 C18.2142761 212.44908877 21.67528646 219.68601703 25.12463379 226.93301392 C29.64848553 236.43280691 34.26669795 245.88501134 38.90158081 255.33102417 C41.37940128 260.3810112 43.85358527 265.43277979 46.328125 270.484375 C46.82679581 271.50217545 47.32546661 272.51997589 47.83924866 273.56861877 C52.99507116 284.09442976 58.13072957 294.63003469 63.26171875 305.16796875 C63.67639404 306.01955566 64.09106934 306.87114258 64.51831055 307.74853516 C66.78753925 312.40889139 69.05618261 317.06953203 71.32421875 321.73046875 C76.45203034 317.48902664 81.02091724 313.00906051 85.51171875 308.10546875 C91.95593508 301.1445183 98.56079793 294.38053615 105.32421875 287.73046875 C104.05846124 285.08648213 102.68746588 282.68179298 100.99609375 280.2890625 C100.53340088 279.63301025 100.07070801 278.97695801 99.59399414 278.30102539 C99.09246826 277.5971167 98.59094238 276.89320801 98.07421875 276.16796875 C97.54626709 275.42345459 97.01831543 274.67894043 96.47436523 273.91186523 C91.92332313 267.51884557 87.27698263 261.19784064 82.60839844 254.89038086 C78.64245593 249.53048462 74.71839242 244.14270006 70.82421875 238.73046875 C66.36413603 232.53383672 61.86172631 226.37062799 57.32421875 220.23046875 C52.24870259 213.36227581 47.22589911 206.45877826 42.23852539 199.52636719 C37.54363721 193.01019236 32.78047621 186.54546225 27.9921875 180.09765625 C27.44046875 179.35257813 26.88875 178.6075 26.3203125 177.83984375 C25.79002441 177.13875488 25.25973633 176.43766602 24.71337891 175.71533203 C23.32421875 173.73046875 23.32421875 173.73046875 21.625 170.20703125 C18.85684247 167.2273846 18.06004265 167.31816378 14.12109375 167.14453125 C12.10463545 167.18432977 10.08860415 167.25577201 8.07421875 167.35546875 C7.04296875 167.38253906 6.01171875 167.40960938 4.94921875 167.4375 C2.40532365 167.50816375 -0.13380327 167.6119085 -2.67578125 167.73046875 Z M40.32421875 167.73046875 C41.59486643 170.11928638 42.92642255 172.41636752 44.32421875 174.73046875 C44.76135885 175.53293439 45.19849895 176.33540003 45.64888573 177.16218281 C48.05318406 180.97834046 49.83504879 183.32427827 54.28847122 184.53900719 C58.05437788 184.85484455 61.76142542 184.86838441 65.53369141 184.78393555 C66.97487584 184.78467181 68.41606281 184.78934927 69.85722351 184.7976532 C73.75674072 184.80874707 77.65382833 184.76418385 81.55289507 184.70887733 C85.63840045 184.65990965 89.72390913 184.66063028 93.80966187 184.6554718 C100.66780343 184.63983894 107.52503902 184.59112532 114.3828125 184.51928711 C124.0497966 184.41813051 133.71629068 184.38056359 143.3837235 184.35383356 C150.08713838 184.33278177 156.79048013 184.295786 163.49380827 184.25627542 C165.11726703 184.24687106 166.74072893 184.23799421 168.36419344 184.22964072 C172.99153727 184.20551635 177.61858416 184.17153307 182.24572182 184.12132454 C183.6465232 184.10751099 185.04736148 184.09698422 186.44821358 184.09000397 C188.36200139 184.07976134 190.27570242 184.05598078 192.18936157 184.03153992 C193.79485335 184.01677125 193.79485335 184.01677125 195.43277931 184.00170422 C199.4044727 183.62913404 202.26899835 182.71534113 205.19921875 179.98046875 C206.77150695 176.83589235 206.31358581 175.0519153 205.32421875 171.73046875 C203.31524709 168.95617455 201.61750604 168.35102949 198.32421875 167.73046875 C196.16594147 167.6407407 194.00505063 167.60849984 191.84490967 167.61021423 C190.87198121 167.6089326 190.87198121 167.6089326 189.87939763 167.60762507 C187.70830721 167.60597934 185.53729423 167.61147676 183.36621094 167.61694336 C181.8089905 167.61722545 180.25176992 167.61706706 178.69454956 167.61650085 C174.46763687 167.61621375 170.2407525 167.62209655 166.0138464 167.62907481 C161.59624818 167.63532269 157.17864932 167.63591329 152.76104736 167.63710022 C144.39592283 167.6402093 136.03081135 167.64841699 127.66569257 167.65844971 C118.14220359 167.66962398 108.61871399 167.67512461 99.09522009 167.68014514 C79.50487902 167.69059994 59.91454971 167.70819121 40.32421875 167.73046875 Z M-14.67578125 199.73046875 C-8.0186177 213.87404797 -1.20834488 227.93757972 5.67016602 241.97460938 C6.52195902 243.71358531 7.3731484 245.45285704 8.22372437 247.19242859 C9.05705002 248.89596619 9.89216375 250.5986304 10.72915649 252.30036926 C12.7395072 256.40441983 14.69550771 260.52108697 16.55029297 264.69799805 C16.90264511 265.48173798 17.25499725 266.26547791 17.61802673 267.07296753 C18.27446032 268.54186662 18.91809708 270.01658065 19.54615784 271.49783325 C20.9626328 274.65204304 21.99828624 276.51379579 24.91040039 278.44970703 C27.12459218 279.22322968 28.98672668 279.64930583 31.32421875 279.73046875 C30.70194947 275.25332109 28.93869219 271.58662877 26.89453125 267.61328125 C26.54832733 266.92785248 26.20212341 266.24242371 25.84542847 265.53622437 C25.10343988 264.06834997 24.35882123 262.6018026 23.61181641 261.13647461 C21.65196581 257.29126584 19.71152182 253.43628234 17.76953125 249.58203125 C17.38388 248.81775818 16.99822876 248.05348511 16.60089111 247.26605225 C13.42470271 240.96032173 10.34563884 234.61186363 7.32421875 228.23046875 C2.79031003 218.662116 -1.89826289 209.1793384 -6.67578125 199.73046875 C-9.31578125 199.73046875 -11.95578125 199.73046875 -14.67578125 199.73046875 Z M63.32421875 199.73046875 C67.32857082 205.85493139 71.51514821 211.80112237 75.88671875 217.66796875 C80.57433391 223.99276585 85.22725107 230.33947636 89.82421875 236.73046875 C98.91402075 249.4260307 98.91402075 249.4260307 108.31559753 261.88946533 C109.86495635 264.08088583 111.06258589 266.08734116 112.28767395 268.44708252 C115.07977927 273.44650077 118.0163948 278.52131764 123.62126923 280.57013893 C130.40288093 281.85791862 137.2784022 281.4458344 144.140625 281.203125 C146.36533502 281.18231409 148.59012715 281.16904896 150.81492615 281.16294861 C156.65099142 281.13080367 162.48204558 281.01431464 168.31640625 280.87426758 C177.65431003 280.66163615 186.99350541 280.56609745 196.33338737 280.49310112 C199.58180588 280.45383597 202.82694864 280.37131369 206.07435608 280.28297424 C223.73153837 279.94171295 223.73153837 279.94171295 230.63511658 285.02488708 C236.72645908 291.17565893 238.38016137 296.98117129 238.640625 305.46484375 C238.7034668 307.40810547 238.7034668 307.40810547 238.76757812 309.390625 C238.80738546 310.75390351 238.84709781 312.11718481 238.88671875 313.48046875 C238.92994149 314.8593875 238.97355696 316.23829401 239.01757812 317.6171875 C239.12365833 320.98818065 239.22571725 324.35924701 239.32421875 327.73046875 C244.39211461 327.83031363 249.45942176 327.90239135 254.52807617 327.95019531 C256.24757884 327.97015023 257.96701508 327.99732433 259.6862793 328.03222656 C273.25386171 328.30050095 284.93826646 327.5486241 295.32421875 317.73046875 C300.71266551 312.00436476 303.33580499 304.55176492 303.69921875 296.73046875 C303.28402576 288.13251395 300.00163165 280.17309817 294.32421875 273.73046875 C284.45791191 265.36237888 274.98019187 264.29188862 262.45043945 264.37744141 C260.95000068 264.37660956 259.44956213 264.37439014 257.9491272 264.37089539 C254.73142824 264.36596439 251.51391217 264.37000541 248.29622841 264.38090897 C243.20719055 264.39732146 238.11838005 264.38878121 233.02934265 264.37606812 C219.4780585 264.34600113 205.92681673 264.3474369 192.37551612 264.36632097 C183.46069478 264.37865024 174.54613214 264.37681138 165.63134068 264.34793317 C160.57292949 264.33269753 155.5152209 264.34018189 150.45685351 264.36464334 C147.31205911 264.37471008 144.16758761 264.36402863 141.02283096 264.34752846 C139.56555439 264.34407573 138.10822846 264.34917871 136.65101814 264.36349678 C134.66080119 264.38184138 132.67035896 264.36651116 130.68013 264.34951782 C129.56685491 264.3506489 128.45357981 264.35177998 127.3065691 264.35294533 C122.63987148 263.37891156 120.44706394 260.35061813 117.81713867 256.5559082 C117.19222534 255.46088989 117.19222534 255.46088989 116.5546875 254.34375 C115.82209717 253.07881714 115.82209717 253.07881714 115.07470703 251.78833008 C114.5589209 250.88236084 114.04313477 249.9763916 113.51171875 249.04296875 C112.36936671 247.07295348 111.22473191 245.1042606 110.078125 243.13671875 C109.47371582 242.09902344 108.86930664 241.06132812 108.24658203 239.9921875 C104.88948152 234.29611652 101.42061999 228.66975958 97.94921875 223.04296875 C97.29590576 221.98182861 96.64259277 220.92068848 95.96948242 219.82739258 C94.70827404 217.78400712 93.43593754 215.74744078 92.15161133 213.71850586 C90.91748649 211.70054274 89.75379773 209.63804685 88.65893555 207.54125977 C85.86158333 202.05518593 85.86158333 202.05518593 80.90136719 198.87084961 C78.1454744 198.64646745 75.6358012 198.75994586 72.88671875 199.04296875 C71.96439453 199.09259766 71.04207031 199.14222656 70.09179688 199.19335938 C67.82765539 199.32240371 65.58014644 199.50216184 63.32421875 199.73046875 Z M113.32421875 302.73046875 C113.32421875 303.06046875 113.32421875 303.39046875 113.32421875 303.73046875 C114.04418533 303.73189377 114.76415192 303.73331879 115.50593567 303.73478699 C122.28942921 303.75261303 129.07240466 303.79421416 135.85556507 303.86255932 C139.34300659 303.89685811 142.83000877 303.92194356 146.31762695 303.92602539 C150.32686514 303.93112054 154.33478539 303.97619288 158.34375 304.0234375 C159.59694534 304.01950485 160.85014069 304.0155722 162.14131165 304.01152039 C163.88277718 304.04098503 163.88277718 304.04098503 165.65942383 304.07104492 C166.68312576 304.07770676 167.7068277 304.08436859 168.7615509 304.0912323 C171.32421875 304.73046875 171.32421875 304.73046875 173.18998718 307.04121399 C174.71183958 310.6495149 174.24547601 312.97457375 173.32421875 316.73046875 C171.32421875 318.73046875 171.32421875 318.73046875 168.32148743 318.96183777 C167.03244003 318.954048 165.74339264 318.94625824 164.4152832 318.93823242 C163.34906487 318.93643478 163.34906487 318.93643478 162.26130676 318.93460083 C160.71493028 318.93144653 159.16855806 318.92412403 157.62221718 318.91316795 C155.17100216 318.89833769 152.72033347 318.89990669 150.26908875 318.90681458 C143.29876692 318.92566198 136.32886397 318.93218554 129.35864258 318.88500977 C125.09600886 318.85734937 120.83456518 318.86380204 116.57195091 318.89202309 C114.9505158 318.8962735 113.32899426 318.88785246 111.70769691 318.86629295 C102.86701787 318.50108599 102.86701787 318.50108599 94.73007202 321.30923462 C92.96582477 323.03274158 91.57218717 324.60807417 90.32421875 326.73046875 C90.32421875 327.06046875 90.32421875 327.39046875 90.32421875 327.73046875 C133.88421875 327.73046875 177.44421875 327.73046875 222.32421875 327.73046875 C225.03123062 304.04704622 225.03123062 304.04704622 218.32421875 296.73046875 C215.67373696 295.66748878 213.1605673 295.59719771 210.32170105 295.56311035 C209.14223152 295.54587418 209.14223152 295.54587418 207.93893433 295.52828979 C206.65854782 295.51718674 206.65854782 295.51718674 205.35229492 295.50585938 C203.99303139 295.48877426 203.99303139 295.48877426 202.60630798 295.47134399 C193.15324618 295.36094604 183.69941979 295.31331749 174.24584961 295.27050781 C169.7614123 295.24820811 165.27780397 295.20639677 160.79370117 295.14746094 C155.37492555 295.07638688 149.95693179 295.03967893 144.537714 295.02738953 C142.47520742 295.0169903 140.41272445 294.99456935 138.35048485 294.95979309 C135.46083819 294.91357234 132.57426074 294.9115876 129.68432617 294.91992188 C128.83680786 294.89632599 127.98928955 294.8727301 127.11608887 294.84841919 C120.5180297 294.94030217 117.25151816 297.50224037 113.32421875 302.73046875 Z M107.32421875 344.73046875 C104.34858807 350.48467668 101.80953539 356.2859816 99.4609375 362.3203125 C99.10586624 363.2231044 98.75079498 364.1258963 98.38496399 365.05604553 C97.25707191 367.92533632 96.13410781 370.7965214 95.01171875 373.66796875 C93.90307154 376.49718986 92.79332637 379.32597286 91.68215942 382.15420532 C90.95410856 384.00790662 90.22759477 385.86221238 89.50265503 387.71713257 C87.79687535 392.06570235 86.05900169 396.39337141 84.22119141 400.68798828 C83.89343216 401.45857071 83.56567291 402.22915314 83.22798157 403.02308655 C82.61849968 404.44665825 82.0001813 405.8664957 81.37101746 407.28147888 C79.67680719 411.24360008 78.81280423 414.42177196 79.32421875 418.73046875 C82.73240054 422.43937247 85.43855283 423.17801408 90.32421875 423.73046875 C94.31928479 423.87594328 98.311448 423.87733548 102.30883789 423.87573242 C104.11226906 423.88077034 104.11226906 423.88077034 105.95213318 423.88591003 C109.2371427 423.89376384 112.52211423 423.89708643 115.80713201 423.89772582 C117.86121022 423.89843814 119.91528187 423.90057582 121.96935844 423.90322304 C129.13981419 423.91246144 136.31025139 423.91655953 143.48071289 423.91577148 C150.15861797 423.91517005 156.83644244 423.92573863 163.51432711 423.94151515 C169.25545921 423.95459409 174.99656496 423.95995528 180.73771185 423.95931607 C184.16339199 423.95906133 187.58900034 423.96189989 191.0146656 423.97249413 C194.83284374 423.98226883 198.65081279 423.97942617 202.46899414 423.97338867 C203.60108307 423.97900818 204.733172 423.98462769 205.89956665 423.99041748 C207.46190285 423.98412575 207.46190285 423.98412575 209.05580139 423.97770691 C210.40882654 423.97852406 210.40882654 423.97852406 211.78918552 423.97935772 C215.89124721 423.57661826 218.55857112 422.61960794 221.26171875 419.48046875 C222.62367957 416.70383223 222.62367957 416.70383223 221.63671875 413.54296875 C220.4906405 410.66906179 220.4906405 410.66906179 218.32421875 408.73046875 C214.28847195 407.41472308 210.2120062 407.58579902 206.01074219 407.58862305 C205.17444778 407.58514862 204.33815338 407.58167419 203.47651672 407.57809448 C201.66227633 407.57074988 199.84802703 407.5653976 198.03377533 407.56180382 C195.15796169 407.5546235 192.2823172 407.53894465 189.40655518 407.52046204 C181.23053317 407.46806987 173.05460421 407.42003569 164.87841797 407.40454102 C159.8745192 407.39443715 154.8710471 407.36505188 149.8673172 407.32322121 C147.96485883 407.31094086 146.06234013 407.30578451 144.15984344 407.30801964 C141.49119336 407.31038319 138.82375873 407.28812697 136.15527344 407.26049805 C135.37680557 407.26709946 134.59833771 407.27370087 133.79627991 407.28050232 C127.37959073 407.17198926 122.3364765 405.16276332 117.3359375 401.125 C111.92171338 394.65667915 109.79856385 388.18549414 110.32421875 379.73046875 C111.08671037 377.0352145 111.89748069 374.52357864 112.88671875 371.91796875 C113.15049316 371.19746338 113.41426758 370.47695801 113.68603516 369.73461914 C116.77773108 361.35459085 120.04055198 353.03678558 123.32421875 344.73046875 C118.04421875 344.73046875 112.76421875 344.73046875 107.32421875 344.73046875 Z " fill="#000000" transform="translate(97.67578125,40.26953125)"/>
<path d="M0 0 C2.5741422 0.00849552 5.14604716 -0.02031004 7.7199707 -0.05200195 C26.78455838 -0.13422336 42.02801191 4.85920408 56.10473633 18.28588867 C57.17981445 19.35516602 57.17981445 19.35516602 58.27661133 20.44604492 C58.82833008 20.96295898 59.38004883 21.47987305 59.94848633 22.01245117 C63.65472448 25.82828239 66.03102102 30.38814899 68.46411133 35.07104492 C68.79749512 35.69760986 69.13087891 36.3241748 69.47436523 36.96972656 C75.44235578 48.98229737 75.74081898 61.55599697 75.71020508 74.65307617 C75.71478081 76.38978781 75.72009045 78.12649765 75.72608948 79.86320496 C75.73496734 83.48472496 75.73265964 87.10602384 75.72265625 90.72753906 C75.71118686 95.32311225 75.73137428 99.91791462 75.76057339 104.51338673 C75.77909753 108.09552196 75.7786108 111.67747807 75.77293587 115.25964928 C75.77278455 116.95179003 75.77866798 118.64394444 75.79122734 120.33603859 C75.91961584 140.46649433 71.93024231 158.26330989 57.51098633 173.23901367 C56.77364258 173.96733398 56.03629883 174.6956543 55.27661133 175.44604492 C54.66301758 176.08155273 54.04942383 176.71706055 53.41723633 177.37182617 C40.17968688 190.12852447 23.15034287 192.98045056 5.55322266 192.89208984 C2.97908046 192.88359432 0.4071755 192.91239989 -2.16674805 192.9440918 C-21.48731198 193.0262501 -36.93657403 187.93611848 -50.99291992 174.24291992 C-66.58476362 158.27187545 -70.37195514 140.14134104 -70.25463867 118.57104492 C-70.25734303 116.78995554 -70.26123321 115.00886761 -70.26623535 113.2277832 C-70.27208616 109.51979323 -70.2637119 105.81219229 -70.24487305 102.10424805 C-70.2220861 97.39426691 -70.2352332 92.68519807 -70.2591629 87.97525024 C-70.27374161 84.30478261 -70.26896019 80.63452487 -70.25865173 76.96405029 C-70.25601763 75.22922655 -70.25913472 73.4943826 -70.26856995 71.75958252 C-70.35407928 51.62859337 -66.16071211 33.99421381 -51.58276367 19.20776367 C-44.35908915 12.23079934 -37.26724674 6.81796981 -27.72338867 3.44604492 C-27.02431396 3.18637939 -26.32523926 2.92671387 -25.60498047 2.65917969 C-17.16134024 -0.09434116 -8.7875807 -0.04412523 0 0 Z M-40.53588867 31.93432617 C-51.7646026 44.82729592 -53.19581494 58.75914816 -53.15698242 75.12573242 C-53.1615551 76.82764898 -53.16686386 78.52956371 -53.17286682 80.23147583 C-53.18175522 83.78338157 -53.17942429 87.33506196 -53.16943359 90.88696289 C-53.15795558 95.40442367 -53.1781592 99.92110135 -53.20735073 104.4384594 C-53.2258326 107.94927791 -53.22539651 111.45991294 -53.21971321 114.97076797 C-53.21956142 116.63468651 -53.22548572 118.29861864 -53.23800468 119.96249008 C-53.34171725 136.00386821 -50.57206447 149.58475658 -39.50463867 161.91870117 C-26.97356609 174.1039487 -11.88264013 176.84112147 4.97216797 176.67431641 C20.42297702 176.30018374 33.87592427 172.68644103 45.31176758 161.67651367 C54.21511361 151.56953438 58.36790065 140.43393282 58.43774414 127.07641602 C58.44270905 126.35208374 58.44767395 125.62775146 58.45278931 124.88146973 C58.46734683 122.49413079 58.47420371 120.10685839 58.47973633 117.71948242 C58.48256371 116.8993227 58.48539108 116.07916298 58.48830414 115.23414993 C58.50327429 110.89022756 58.51251628 106.54633819 58.5168457 102.20239258 C58.52231387 97.74077306 58.54631296 93.27946126 58.57481766 88.81793785 C58.59355509 85.36556147 58.5986556 81.91325741 58.60018158 78.4608345 C58.60318581 76.81758576 58.61113782 75.17433761 58.62436676 73.53113937 C58.75178781 56.48101695 55.79554675 42.43192227 43.72583008 29.70385742 C21.64531165 9.34892975 -19.53884599 11.59344107 -40.53588867 31.93432617 Z " fill="#000000" transform="translate(405.723388671875,31.553955078125)"/>
<path d="M0 0 C2.29838783 0.02683323 4.59189564 0.00012047 6.89013672 -0.03173828 C20.01476778 -0.0642473 29.97429553 2.89735395 39.60888672 12.26904297 C50.4149861 24.0189906 51.27122273 36.58593822 51.23388672 51.89404297 C51.23845988 53.55111909 51.24376878 55.20819333 51.24977112 56.86526489 C51.25865763 60.32301583 51.25633081 63.78053526 51.24633789 67.23828125 C51.23486036 71.63468187 51.25506362 76.03027775 51.28425503 80.4265728 C51.3027423 83.84474632 51.30229975 87.26273148 51.29661751 90.68094254 C51.29646579 92.30020399 51.30238461 93.91947945 51.31490898 95.53869247 C51.40280998 108.76372594 50.37525937 121.58421742 40.80029297 131.65185547 C40.15189453 132.34021484 39.50349609 133.02857422 38.83544922 133.73779297 C29.54495238 142.77628718 19.4713816 145.36601787 6.89013672 145.33544922 C5.75680908 145.31973877 5.75680908 145.31973877 4.60058594 145.30371094 C2.3021981 145.27687771 0.0086903 145.30359047 -2.28955078 145.33544922 C-14.68897156 145.36407219 -26.05653408 142.63704703 -35.19970703 133.65185547 C-45.60990147 121.70257684 -46.81639529 108.95827838 -46.73095703 93.83935547 C-46.73365924 92.13647237 -46.73754768 90.43359078 -46.74255371 88.73071289 C-46.74841458 85.18051303 -46.73999711 81.6307187 -46.72119141 78.08056641 C-46.69840368 73.56188157 -46.71154527 69.04414751 -46.73548126 64.52549744 C-46.75003233 61.01469948 -46.74529098 57.50412175 -46.73497009 53.99331665 C-46.73232842 52.32858158 -46.73548089 50.66382558 -46.74488831 48.99911499 C-46.80774682 34.75474324 -44.91737235 22.80621874 -35.19970703 11.65185547 C-25.34201689 1.96449259 -13.23282627 -0.18343649 0 0 Z M-23.19970703 24.65185547 C-27.23651389 29.95079052 -29.32835083 34.40536691 -29.31323242 41.13305664 C-29.31315689 42.25399216 -29.31308136 43.37492767 -29.31300354 44.52983093 C-29.30784225 45.73927872 -29.30268097 46.9487265 -29.29736328 48.19482422 C-29.29594833 49.43355789 -29.29453339 50.67229156 -29.29307556 51.94856262 C-29.28842305 55.23817084 -29.27944093 58.52773007 -29.26837158 61.81732178 C-29.25813332 65.1755717 -29.25357277 68.5338288 -29.24853516 71.89208984 C-29.23749848 78.47869759 -29.2207547 85.06527252 -29.19970703 91.65185547 C-21.84805534 95.57395252 -16.27657156 96.80753188 -7.89892578 96.81982422 C-7.10372025 96.82315262 -6.30851471 96.82648102 -5.48921204 96.82991028 C-3.81076635 96.83495912 -2.13231069 96.83731924 -0.45385742 96.8371582 C2.09392131 96.83933931 4.6412629 96.85750176 7.18896484 96.87646484 C8.82633317 96.8794004 10.46370353 96.88138411 12.10107422 96.88232422 C13.22960564 96.89310249 13.22960564 96.89310249 14.38093567 96.90409851 C21.34467621 96.8745072 28.10247989 95.99550214 33.80029297 91.65185547 C34.54268716 89.20668957 34.54268716 89.20668957 34.41552734 86.3894043 C34.42483276 85.31431107 34.43413818 84.23921783 34.44372559 83.13154602 C34.42733032 81.96906845 34.41093506 80.80659088 34.39404297 79.60888672 C34.39408325 78.41132248 34.39412354 77.21375824 34.39416504 75.97990417 C34.38879788 73.44203456 34.37116471 70.90416604 34.34228516 68.36645508 C34.30064291 64.49687342 34.30119825 60.62904398 34.30810547 56.75927734 C34.29760555 54.29246845 34.28466316 51.8256685 34.26904297 49.35888672 C34.26884155 48.2065303 34.26864014 47.05417389 34.26843262 45.86689758 C34.13799748 36.92478451 32.74912789 29.94084975 26.53857422 23.19091797 C14.36791189 12.41509559 -11.77453316 13.27646449 -23.19970703 24.65185547 Z M-28.19970703 111.65185547 C-27.57310466 112.94482732 -26.94193795 114.23558791 -26.30883789 115.52539062 C-25.95784531 116.24441559 -25.60685272 116.96344055 -25.245224 117.70425415 C-22.90852287 122.05708853 -18.9558435 124.75237093 -14.63720703 126.96435547 C-4.10350909 129.93539848 12.02952379 130.97052792 21.93701172 125.46435547 C26.96711685 122.04276825 29.98044749 117.99329355 32.80029297 112.65185547 C29.51063958 111.66590563 26.54072243 111.53074832 23.11376953 111.53833008 C21.40244843 111.53844337 21.40244843 111.53844337 19.65655518 111.53855896 C18.4303949 111.54372025 17.20423462 111.54888153 15.94091797 111.55419922 C14.05164581 111.55632164 14.05164581 111.55632164 12.12420654 111.55848694 C8.78364178 111.56313474 5.44314576 111.57211265 2.1026001 111.58319092 C-1.30936083 111.59343948 -4.72132888 111.59799193 -8.13330078 111.60302734 C-14.82212183 111.61405584 -21.51091046 111.63079358 -28.19970703 111.65185547 Z " fill="#000000" transform="translate(406.19970703125,55.34814453125)"/>
<path d="M0 0 C1.71123047 -0.02900391 1.71123047 -0.02900391 3.45703125 -0.05859375 C11.75761426 -0.00982417 11.75761426 -0.00982417 15.25 2.9765625 C16.78664674 6.23233279 17.09325592 8.06546451 16.5 11.625 C15.25 14.2734375 15.25 14.2734375 12.5 16.625 C8.32844966 17.39525255 4.23046178 17.32170274 0 17.25 C-1.14082031 17.26933594 -2.28164063 17.28867188 -3.45703125 17.30859375 C-11.75761426 17.25982417 -11.75761426 17.25982417 -15.25 14.2734375 C-16.78664674 11.01766721 -17.09325592 9.18453549 -16.5 5.625 C-13.19655329 -1.37417771 -6.74903036 -0.11439035 0 0 Z " fill="#000000" transform="translate(408.5,127.375)"/>
<path d="M0 0 C2.12890625 0.484375 2.12890625 0.484375 4.69140625 2.609375 C6.38310394 5.99277038 6.75086556 7.75261914 6.12890625 11.484375 C4.69140625 14.359375 4.69140625 14.359375 2.12890625 16.484375 C-1.01513516 17.19971653 -3.72705234 17.19971653 -6.87109375 16.484375 C-9.93971731 13.93966278 -10.71933038 12.39495519 -11.37109375 8.484375 C-10.2071041 1.5004371 -6.65313004 -0.39458432 0 0 Z " fill="#000000" transform="translate(290.87109375,343.515625)"/>
</svg>
