<?xml version="1.0" encoding="UTF-8"?>
<svg version="1.1" xmlns="http://www.w3.org/2000/svg" width="512" height="512">
<path d="M0 0 C1.07881943 -0.00671722 2.15763885 -0.01343445 3.26914978 -0.02035522 C6.82946399 -0.0393262 10.38958959 -0.04325903 13.94995117 -0.04541016 C16.43088355 -0.05183877 18.91181518 -0.05856718 21.39274597 -0.06558228 C26.59192665 -0.07755285 31.79104089 -0.08126332 36.99023438 -0.08007812 C43.64142533 -0.07987497 50.29203913 -0.10717475 56.94315052 -0.14162254 C62.06737716 -0.16389677 67.19150102 -0.16791549 72.3157711 -0.16685867 C74.76729492 -0.16921391 77.21882161 -0.17803299 79.67029762 -0.19352341 C83.10471873 -0.21319268 86.53821925 -0.20734071 89.97265625 -0.1953125 C90.97815521 -0.20655151 91.98365417 -0.21779053 93.0196228 -0.22937012 C102.84931948 -0.14220988 111.04809576 3.50428643 118.18041992 10.29052734 C124.32427379 17.78269303 127.67356757 25.6408144 127.54370117 35.36865234 C127.54444893 36.46944122 127.54444893 36.46944122 127.54521179 37.59246826 C127.54289019 39.12856789 127.53327622 40.66467272 127.51660156 42.20068359 C127.49283736 44.54868477 127.49607603 46.89555996 127.50268555 49.24365234 C127.497113 50.74365909 127.49000578 52.24366109 127.48120117 53.74365234 C127.48211258 54.44161926 127.48302399 55.13958618 127.48396301 55.85870361 C127.41099243 60.8697356 127.41099243 60.8697356 126.18318176 63.11047363 C124.84170002 66.02692112 124.89943756 68.41370091 124.86157227 71.61962891 C124.84170258 72.90065491 124.82183289 74.18168091 124.80136108 75.50152588 C124.78948557 76.89473295 124.77782265 78.28794184 124.76635742 79.68115234 C124.7476416 81.11034255 124.72806787 82.53952175 124.70767212 83.96868896 C124.65638844 87.72344471 124.61674276 91.47823626 124.57952881 95.2331543 C124.53946544 99.06747265 124.48838377 102.90164252 124.43823242 106.73583984 C124.34151777 114.25396707 124.25709892 121.77216625 124.18041992 129.29052734 C125.40035645 129.27481689 126.62029297 129.25910645 127.87719727 129.24291992 C132.4432097 129.18824105 137.00919372 129.15404028 141.57543945 129.12573242 C143.54423912 129.11073174 145.51300585 129.09032451 147.48168945 129.06420898 C150.3266619 129.02743919 153.17118905 129.01071348 156.01635742 128.99755859 C156.8834433 128.98207474 157.75052917 128.96659088 158.64389038 128.95063782 C169.87066658 128.94760977 180.17698334 132.70112087 188.44604492 140.39990234 C198.40174806 151.09306497 200.48902753 161.82673205 200.44784546 176.1050415 C200.45237657 177.26737139 200.45690768 178.42970129 200.4615761 179.62725329 C200.47199886 182.83131326 200.47355411 186.035231 200.47118735 189.2393024 C200.47077738 192.70365404 200.48183549 196.16797283 200.49130249 199.63230896 C200.5078743 206.41131468 200.5134103 213.19028561 200.51452725 219.9693099 C200.51547952 225.48290951 200.51959874 230.99649769 200.5259285 236.51009369 C200.54353035 252.16226813 200.552769 267.81441521 200.55126755 283.46659961 C200.55118764 284.30938932 200.55110772 285.15217902 200.55102539 286.02050781 C200.55094363 286.86433347 200.55086187 287.70815913 200.55077763 288.57755527 C200.54996499 302.24818484 200.56909987 315.91870416 200.59730212 329.58930185 C200.6260705 343.64588165 200.63984025 357.70240774 200.63811457 371.75901771 C200.63745204 379.64282119 200.64288402 387.52650908 200.66447067 395.41028595 C200.68273458 402.12324815 200.68698725 408.83604235 200.67345183 415.54901871 C200.66694833 418.96945947 200.66670902 422.38957843 200.68415833 425.80998802 C200.69966322 429.52963558 200.69026671 433.2484482 200.67489624 436.96807861 C200.68518337 438.03299286 200.69547049 439.09790711 200.70606935 440.19509149 C200.59043772 452.93174437 197.05850276 463.47418672 188.00463867 472.44677734 C182.00851703 478.00956582 182.00851703 478.00956582 177.68041992 479.47802734 C174.89313821 481.05144214 174.89313821 481.05144214 174.73510742 484.00146484 C174.61257851 486.28689551 174.51192589 488.57357872 174.43041992 490.86083984 C173.93790866 497.61747873 171.81421915 503.20536573 166.74291992 507.79052734 C160.7325067 512.5877017 154.74958529 512.65573084 147.36791992 512.66552734 C146.40821289 512.69001953 145.44850586 512.71451172 144.4597168 512.73974609 C136.50467649 512.77232646 131.1007303 511.14594193 125.36791992 505.54052734 C120.20439614 497.86900629 120.18041992 493.18958426 120.18041992 483.29052734 C70.68041992 483.29052734 21.18041992 483.29052734 -29.81958008 483.29052734 C-29.81958008 486.92052734 -29.81958008 490.55052734 -29.81958008 494.29052734 C-31.12509542 500.62349309 -33.90854061 505.11791115 -38.94067383 509.13427734 C-44.71946243 512.69045494 -50.03708109 512.65677486 -56.63208008 512.66552734 C-57.59178711 512.69001953 -58.55149414 512.71451172 -59.5402832 512.73974609 C-67.49532351 512.77232646 -72.8992697 511.14594193 -78.63208008 505.54052734 C-82.79468645 499.35608359 -83.85709703 494.98556031 -83.88208008 487.66552734 C-84.06393835 482.96371628 -84.06393835 482.96371628 -86.81958008 479.40380859 C-88.55695516 478.43712886 -90.32504591 477.52405665 -92.11645508 476.66162109 C-99.98796727 472.66898991 -104.78775617 465.3753911 -107.81958008 457.29052734 C-109.84944271 450.62660954 -110.10460862 444.52395082 -110.08027649 437.58280945 C-110.08410204 436.41992285 -110.08792758 435.25703625 -110.09186906 434.05891067 C-110.10037371 430.84872595 -110.09997631 427.63868831 -110.09568846 424.42849982 C-110.09321476 420.95940117 -110.10224342 417.49032907 -110.10972595 414.02124023 C-110.12245755 407.23140081 -110.12426853 400.44160096 -110.12192569 393.6517516 C-110.12014049 388.13048366 -110.1218965 382.60922771 -110.12615013 377.0879612 C-110.12674532 376.30124311 -110.12734051 375.51452503 -110.12795373 374.70396701 C-110.12916553 373.10557732 -110.13037966 371.50718764 -110.13159611 369.90879796 C-110.14246592 354.92778228 -110.14031193 339.94678913 -110.13421126 324.96577219 C-110.12904375 311.27434729 -110.14029417 297.58299357 -110.15930948 283.89158275 C-110.1787034 269.81922521 -110.18694109 255.74690132 -110.18318623 241.67453033 C-110.1812764 233.77962102 -110.18374041 225.88477227 -110.19790077 217.98987389 C-110.20983543 211.26806592 -110.21119623 204.54635579 -110.1991106 197.82454642 C-110.19323622 194.39833865 -110.19208221 190.97230965 -110.20411301 187.54611397 C-110.21458776 183.82364337 -110.20647314 180.10164984 -110.19380188 176.37919617 C-110.20117616 175.30777412 -110.20855045 174.23635207 -110.2161482 173.13246268 C-110.12938389 160.97559165 -107.05398484 150.21764375 -98.81567383 141.06396484 C-89.2446942 131.92102545 -78.99744299 129.11857173 -66.14379883 129.19287109 C-65.21863968 129.19428604 -64.29348053 129.19570099 -63.34028625 129.19715881 C-60.39585081 129.2027402 -57.4514924 129.21528929 -54.50708008 129.22802734 C-52.50643014 129.23304475 -50.505779 129.23760724 -48.50512695 129.24169922 C-43.60991514 129.25270353 -38.71476066 129.26995537 -33.81958008 129.29052734 C-33.90398254 121.01488128 -33.99886529 112.73944992 -34.10710716 104.46408463 C-34.15704012 100.62143815 -34.20337031 96.77881877 -34.24145508 92.93603516 C-34.27834597 89.22711046 -34.32471603 85.51841405 -34.37764359 81.80968475 C-34.39616737 80.39515947 -34.4112828 78.9805853 -34.42292404 77.56598663 C-34.4398202 75.58376972 -34.46998931 73.60167942 -34.50073242 71.61962891 C-34.51405609 70.49155823 -34.52737976 69.36348755 -34.54110718 68.20123291 C-34.81668336 65.32080492 -35.45119431 63.7826126 -36.81958008 61.29052734 C-37.0346908 58.76089754 -37.14737671 56.34400571 -37.15551758 53.81396484 C-37.16550278 52.72603134 -37.16550278 52.72603134 -37.1756897 51.61611938 C-37.18579922 50.08134486 -37.19050724 48.54652653 -37.19018555 47.01171875 C-37.19452725 44.69373338 -37.23077227 42.37770333 -37.26879883 40.06005859 C-37.35986824 28.14161062 -35.40120732 18.10951874 -26.81958008 9.29052734 C-18.10893796 2.09786358 -11.14001072 -0.00998149 0 0 Z M-15.81958008 21.29052734 C-19.41383056 26.05048068 -20.95149099 29.46993913 -20.91723633 35.39599609 C-20.91401367 36.37890625 -20.91079102 37.36181641 -20.9074707 38.37451172 C-20.8990918 39.39867188 -20.89071289 40.42283203 -20.88208008 41.47802734 C-20.87756836 42.51378906 -20.87305664 43.54955078 -20.8684082 44.61669922 C-20.85662034 47.17466655 -20.8386849 49.7326042 -20.81958008 52.29052734 C-15.53958008 52.29052734 -10.25958008 52.29052734 -4.81958008 52.29052734 C-4.71645508 50.24865234 -4.61333008 48.20677734 -4.50708008 46.10302734 C-4.26791085 41.36747659 -3.97822859 37.95716468 -0.81958008 34.29052734 C4.16864052 32.50195978 8.78919044 32.00114106 14.04003906 32.03173828 C14.792202 32.02823364 15.54436493 32.024729 16.31932068 32.02111816 C18.78483539 32.01237576 21.25005897 32.0181227 23.71557617 32.02490234 C25.43997757 32.02355368 27.16437859 32.02161147 28.88877869 32.019104 C32.49392332 32.01616301 36.09896853 32.02041786 39.70410156 32.02978516 C44.31631654 32.04118767 48.92829892 32.03460868 53.54050541 32.02264023 C57.09819785 32.01540124 60.65583546 32.01771878 64.21352959 32.02289581 C65.91392482 32.02422622 67.61432509 32.02260599 69.31471443 32.01793671 C71.69334162 32.01283692 74.07159578 32.02062952 76.45019531 32.03173828 C77.49537827 32.02566559 77.49537827 32.02566559 78.56167603 32.01947021 C83.50729253 32.06208942 88.08495244 32.55634736 91.99291992 35.79052734 C95.59110084 40.33559798 94.80113176 46.76375702 95.18041992 52.29052734 C100.46041992 52.29052734 105.74041992 52.29052734 111.18041992 52.29052734 C111.28906688 48.78968089 111.36804817 45.29225563 111.43041992 41.79052734 C111.48069336 40.31712891 111.48069336 40.31712891 111.53198242 38.81396484 C111.61723536 32.41999457 110.99161256 27.55751818 107.18041992 22.29052734 C105.13842843 20.19105045 105.13842843 20.19105045 102.80541992 18.85302734 C102.07581055 18.37994141 101.34620117 17.90685547 100.59448242 17.41943359 C95.05092188 14.82705658 88.99110516 15.14204846 82.99731445 15.14526367 C82.092453 15.14190506 81.18759155 15.13854645 80.25531006 15.13508606 C77.27460341 15.12561478 74.29395316 15.12363492 71.31323242 15.12255859 C69.23346941 15.11934353 67.15370663 15.11597927 65.07394409 15.11247253 C60.7179919 15.10649096 56.36205952 15.10463166 52.00610352 15.10522461 C46.43562718 15.10532622 40.86527835 15.09167112 35.29483223 15.0744524 C31.00018739 15.06331252 26.70557319 15.06130601 22.41091537 15.06183434 C20.35770096 15.06065733 18.30448568 15.05625131 16.25128555 15.04850197 C13.37487195 15.03866129 10.49873285 15.04159615 7.62231445 15.04760742 C6.78153351 15.04198792 5.94075256 15.03636841 5.07449341 15.03057861 C-2.76362499 15.07202408 -9.56404726 16.17236413 -15.81958008 21.29052734 Z M11.18041992 47.29052734 C10.85041992 51.25052734 10.52041992 55.21052734 10.18041992 59.29052734 C9.24359557 61.32088695 8.25571231 63.3299799 7.18041992 65.29052734 C6.75197426 68.47693497 6.75197426 68.47693497 6.83984375 71.84667969 C6.8402063 73.14532959 6.84056885 74.44397949 6.84094238 75.78198242 C6.85604461 77.14681439 6.87154407 78.51164202 6.88745117 79.87646484 C6.89047241 81.12854736 6.89349365 82.38062988 6.89660645 83.6706543 C6.91227042 88.33569615 6.95415433 93.00062026 6.99291992 97.66552734 C7.05479492 108.10177734 7.11666992 118.53802734 7.18041992 129.29052734 C32.26041992 129.29052734 57.34041992 129.29052734 83.18041992 129.29052734 C83.24229492 118.85427734 83.30416992 108.41802734 83.36791992 97.66552734 C83.39523193 94.37890137 83.42254395 91.09227539 83.45068359 87.70605469 C83.45944681 85.09619514 83.46709114 82.4863315 83.47338867 79.87646484 C83.48122879 79.20378571 83.48906891 78.53110657 83.49714661 77.83804321 C83.5192441 75.84102847 83.52043855 73.84381661 83.52099609 71.84667969 C83.52765793 70.72305023 83.53431976 69.59942078 83.54118347 68.44174194 C83.37712546 65.25171477 83.37712546 65.25171477 81.72163391 62.63076782 C80.18041992 59.29052734 80.18041992 59.29052734 79.18041992 47.29052734 C56.74041992 47.29052734 34.30041992 47.29052734 11.18041992 47.29052734 Z M-17.81958008 68.29052734 C-17.81958008 88.42052734 -17.81958008 108.55052734 -17.81958008 129.29052734 C-14.84958008 129.29052734 -11.87958008 129.29052734 -8.81958008 129.29052734 C-8.81958008 109.16052734 -8.81958008 89.03052734 -8.81958008 68.29052734 C-11.78958008 68.29052734 -14.75958008 68.29052734 -17.81958008 68.29052734 Z M99.18041992 68.29052734 C99.18041992 88.42052734 99.18041992 108.55052734 99.18041992 129.29052734 C102.15041992 129.29052734 105.12041992 129.29052734 108.18041992 129.29052734 C108.18041992 109.16052734 108.18041992 89.03052734 108.18041992 68.29052734 C105.21041992 68.29052734 102.24041992 68.29052734 99.18041992 68.29052734 Z M-88.81958008 154.29052734 C-92.45430631 159.37914407 -93.94077289 163.96944732 -93.95380116 170.15888405 C-93.958259 171.14299881 -93.96271684 172.12711356 -93.96730977 173.14104998 C-93.96712541 174.21982484 -93.96694105 175.29859969 -93.9667511 176.4100647 C-93.97042779 177.5579885 -93.97410447 178.70591231 -93.97789258 179.88862169 C-93.98701001 183.07552844 -93.99162705 186.26240492 -93.99428189 189.44932246 C-93.99818922 192.8864298 -94.00776727 196.32352228 -94.01649475 199.76062012 C-94.03624721 208.06162749 -94.0463239 216.36263606 -94.05522254 224.66366106 C-94.0596075 228.57443385 -94.06497378 232.4852053 -94.07021141 236.39597702 C-94.0872226 249.39919313 -94.10171623 262.4024084 -94.10896015 275.40563393 C-94.11086999 278.77921169 -94.11279033 282.15278945 -94.11474609 285.52636719 C-94.11522983 286.36483544 -94.11571357 287.2033037 -94.11621197 288.06718008 C-94.12451028 301.64638442 -94.14984431 315.22550062 -94.18232677 328.80466647 C-94.21541616 342.75145621 -94.23341062 356.69820118 -94.23660439 370.64503038 C-94.23876777 378.47348839 -94.24749108 386.30181787 -94.27306557 394.13023758 C-94.29479829 400.798017 -94.3028104 407.46563666 -94.29309878 414.13344748 C-94.28856144 417.53323643 -94.29040667 420.93269591 -94.30986023 424.33243942 C-94.3275557 428.02493276 -94.32048319 431.7165941 -94.30732727 435.40908813 C-94.32378114 437.00717392 -94.32378114 437.00717392 -94.34056741 438.63754427 C-94.25754364 448.31065713 -91.8656725 455.94728372 -84.89379883 462.81787109 C-78.6962936 467.21798309 -73.2314049 467.72668763 -65.84437561 467.6782074 C-64.85581949 467.68359294 -63.86726337 467.68897847 -62.84875101 467.69452721 C-59.54471034 467.70880553 -56.24107038 467.70170322 -52.93701172 467.69458008 C-50.56474994 467.70028368 -48.19249091 467.7072479 -45.82023621 467.71537781 C-40.05059573 467.73146183 -34.28108037 467.7334097 -28.51142222 467.7281649 C-23.82057089 467.72411863 -19.1297517 467.72557219 -14.4389019 467.73091316 C-13.43633309 467.7320358 -13.43633309 467.7320358 -12.41351036 467.73318111 C-11.05557294 467.73471263 -9.69763553 467.73625098 -8.33969813 467.73779608 C4.3860091 467.75151439 17.11165481 467.74608808 29.83736063 467.73461086 C41.47131989 467.72467857 53.10512012 467.7376202 64.73905485 467.76154505 C76.69486284 467.78594595 88.65059678 467.79554154 100.60642916 467.78889233 C107.31471279 467.78540237 114.02285613 467.78795302 120.73112297 467.80514336 C127.03900822 467.82060216 133.34658961 467.81666834 139.65446281 467.79783821 C141.96835268 467.79414949 144.282265 467.79726898 146.59613419 467.807724 C149.75718403 467.82091558 152.91722523 467.80940169 156.07823181 467.79173279 C156.99176373 467.80133779 157.90529565 467.8109428 158.84651035 467.82083887 C165.82824307 467.74065949 171.02046601 465.9527186 176.38745117 461.43115234 C176.91725586 460.80724609 177.44706055 460.18333984 177.99291992 459.54052734 C178.53561523 458.92693359 179.07831055 458.31333984 179.63745117 457.68115234 C184.24820605 450.53740049 184.61466951 443.95725853 184.56809998 435.6832428 C184.57617828 433.95517219 184.57617828 433.95517219 184.58441979 432.19219106 C184.59870072 428.34082723 184.59159504 424.48980702 184.58447266 420.63842773 C184.58853353 417.87355155 184.5970399 415.10869279 184.60527039 412.34382629 C184.62244145 405.61881138 184.62330196 398.89388997 184.61805748 392.16885883 C184.61401153 386.70143965 184.61546438 381.23404804 184.62080574 375.76663017 C184.62155416 374.98766073 184.62230258 374.20869128 184.62307369 373.40611671 C184.6246052 371.82350655 184.62614355 370.24089641 184.62768865 368.65828627 C184.64140747 353.82658779 184.63598027 338.9949421 184.62450344 324.16324484 C184.6145708 310.60300852 184.62751333 297.04290865 184.65143763 283.48269338 C184.67583646 269.54819955 184.68543464 255.61376924 184.67878491 241.67925447 C184.67529454 233.86040461 184.67751271 226.04165968 184.69503593 218.222826 C184.7097677 211.56717425 184.71038067 204.91170132 184.69296502 198.25605304 C184.68446053 194.86237549 184.68446475 191.46927914 184.69761658 188.07557678 C184.71080243 184.39168188 184.69929857 180.70865322 184.68162537 177.02479553 C184.69123037 175.95922064 184.70083538 174.89364576 184.71073145 173.79578072 C184.61773766 164.36493737 181.88426702 156.99437444 175.18041992 150.29052734 C170.34537301 146.89292681 165.87876397 145.16932893 159.9936409 145.15909958 C159.16156215 145.15525843 158.3294834 145.15141729 157.47219014 145.14745975 C156.56325277 145.14832623 155.6543154 145.14919271 154.71783447 145.15008545 C153.74817584 145.14711433 152.7785172 145.1441432 151.77947497 145.14108205 C148.52151304 145.13239173 145.26358784 145.13088651 142.00561523 145.12939453 C139.6732068 145.1247666 137.34079913 145.11974197 135.00839233 145.11434937 C128.66531942 145.10122107 122.32225709 145.09477957 115.97917271 145.09033871 C112.01714752 145.08740871 108.05512523 145.08330404 104.0931015 145.07883453 C93.11951962 145.06672561 82.14594027 145.05634356 71.17235184 145.05295944 C70.47021334 145.05273988 69.76807484 145.05252031 69.04465942 145.05229409 C68.34085787 145.05207581 67.63705633 145.05185753 66.91192746 145.05163264 C65.48579995 145.05118918 64.05967243 145.05074262 62.63354492 145.05029297 C61.9261391 145.05007154 61.21873327 145.04985011 60.4898909 145.04962197 C49.03036892 145.04567493 37.57091056 145.02822327 26.11141315 145.00493345 C14.34103619 144.98120526 2.57069113 144.96875692 -9.19971013 144.96759152 C-15.80630108 144.96654296 -22.41280229 144.96062396 -29.01937103 144.94277191 C-35.23441133 144.92630472 -41.44929428 144.92412927 -47.6643486 144.93291092 C-49.9443771 144.93368201 -52.224414 144.92932914 -54.50442123 144.91945267 C-57.61948836 144.9067512 -60.73399674 144.91260055 -63.84906006 144.92303467 C-65.19908178 144.91095006 -65.19908178 144.91095006 -66.57637668 144.89862132 C-75.55320981 144.96883527 -82.66989796 147.57894534 -88.81958008 154.29052734 Z M-67.81958008 483.29052734 C-68.49040047 491.41473405 -68.49040047 491.41473405 -66.56958008 494.79052734 C-63.06351676 497.79572448 -59.30467189 497.5141181 -54.78442383 497.44677734 C-52.13044795 497.23572558 -50.14019212 496.58733995 -47.81958008 495.29052734 C-44.98752978 491.64337711 -44.98752978 491.64337711 -45.81958008 483.29052734 C-53.07958008 483.29052734 -60.33958008 483.29052734 -67.81958008 483.29052734 Z M136.18041992 483.29052734 C135.50959953 491.41473405 135.50959953 491.41473405 137.43041992 494.79052734 C140.9352563 497.79467281 144.69622976 497.51861433 149.21557617 497.44287109 C151.90564145 497.23429744 153.85327603 496.65943552 156.18041992 495.29052734 C159.23794632 491.50501847 158.18041992 488.56037078 158.18041992 483.29052734 C150.92041992 483.29052734 143.66041992 483.29052734 136.18041992 483.29052734 Z " fill="#000000" transform="translate(210.819580078125,-0.29052734375)"/>
<path d="M0 0 C6.03533416 4.35051813 9.28493274 9.82181772 11 17 C11.75831181 24.12153271 11.53698085 31.32814926 11.50170898 38.47900391 C11.50549558 40.66451871 11.51099842 42.85003111 11.51808167 45.03553772 C11.53200732 50.950686 11.52088734 56.86554247 11.50437045 62.78067446 C11.49048993 68.97889703 11.49698332 75.17710318 11.50050354 81.37533569 C11.50320288 91.78054491 11.48975236 102.18563859 11.46655273 112.59082031 C11.44287598 123.28390128 11.43555437 133.97681971 11.44604492 144.66992188 C11.45864851 157.57790821 11.4561521 170.48579711 11.44038582 183.39377975 C11.43463322 188.31624375 11.43470298 193.23865664 11.43945122 198.16112137 C11.44422865 203.95768142 11.43408732 209.75403052 11.41249657 215.55055046 C11.40693953 217.67576702 11.40645343 219.8010039 11.41144943 221.92622185 C11.41742061 224.83081838 11.40486184 227.73477387 11.38768005 230.63931274 C11.3936901 231.47687029 11.39970014 232.31442783 11.40589231 233.1773659 C11.30993559 242.12003409 8.20018439 249.49701591 2 256 C-5.10436933 261.33596571 -12.40239109 261.60780012 -21 261 C-27.46856777 259.63536859 -32.77629981 256.35959029 -36.4453125 250.81640625 C-40.33418962 244.04976007 -41.14886431 238.91993083 -41.14717102 231.12033081 C-41.15084771 230.21333659 -41.1545244 229.30634238 -41.1583125 228.37186348 C-41.16934515 225.32586552 -41.17319249 222.27990167 -41.17700195 219.23388672 C-41.18326694 217.05250439 -41.18991378 214.87112313 -41.19691467 212.68974304 C-41.21795405 205.51973209 -41.22831727 198.34972092 -41.23828125 191.1796875 C-41.24232892 188.71088779 -41.24644584 186.2420882 -41.25063133 183.77328873 C-41.26968309 172.17405874 -41.2839139 160.57483512 -41.2922433 148.97559249 C-41.29321182 147.64095489 -41.29418607 146.30631729 -41.29516602 144.97167969 C-41.29564976 144.3096577 -41.2961335 143.64763572 -41.2966319 142.96555246 C-41.30441185 132.9138362 -41.32624383 122.8622185 -41.35668945 112.81054688 C-41.39194942 101.13120695 -41.41328702 89.45194703 -41.41702431 77.77255261 C-41.41937401 71.59287054 -41.42832433 65.41336518 -41.45348549 59.23373032 C-41.4767841 53.41754252 -41.48099204 47.60164757 -41.47072411 41.78542519 C-41.47022907 39.65458642 -41.47653997 37.52373314 -41.49028015 35.39293861 C-41.50803546 32.47546776 -41.50087477 29.55904374 -41.48774719 26.64157104 C-41.49871644 25.80574647 -41.50968568 24.96992189 -41.52098733 24.1087693 C-41.43576315 16.22048407 -39.1359849 9.09951923 -33.875 3.125 C-24.04908458 -5.73717958 -11.29327244 -6.39635767 0 0 Z M-22 15 C-25.53006664 19.46651182 -25.42482736 23.40029563 -25.38095093 28.84375 C-25.3856309 29.73470871 -25.39031087 30.62566742 -25.39513266 31.54362488 C-25.40709917 34.52923464 -25.39761887 37.51438682 -25.38818359 40.5 C-25.39224855 42.64038359 -25.39759 44.78076507 -25.40411377 46.92114258 C-25.41780211 52.73509862 -25.41248239 58.54889514 -25.40297651 64.362854 C-25.39538782 70.44373 -25.40242333 76.52459222 -25.40713501 82.60546875 C-25.41259486 92.81773331 -25.4053949 103.02993281 -25.39111328 113.2421875 C-25.37478637 125.05344354 -25.38007471 136.86454423 -25.3965925 148.67579651 C-25.4102008 158.8117862 -25.41213022 168.9477291 -25.40427649 179.08372498 C-25.39959638 185.13966417 -25.39898445 191.19553032 -25.40888596 197.25146484 C-25.41754375 202.94452191 -25.41155528 208.63737844 -25.39420319 214.33041382 C-25.39023202 216.42141385 -25.39138312 218.51243071 -25.39799118 220.60342407 C-25.40617172 223.4545949 -25.39592716 226.30512044 -25.38095093 229.15625 C-25.38764309 229.98650192 -25.39433526 230.81675385 -25.40123022 231.67216492 C-25.35432698 236.26612996 -24.98752424 239.27878891 -22 243 C-18.33091443 245.44605705 -15.26381231 245.83946402 -11 245 C-8.30894802 242.82425584 -6.54467072 241.08934144 -5 238 C-4.89752345 235.16438851 -4.85662911 232.35308088 -4.85955811 229.51701355 C-4.85658698 228.62861811 -4.85361586 227.74022268 -4.8505547 226.82490617 C-4.84184144 223.83012012 -4.84035724 220.83537392 -4.83886719 217.84057617 C-4.83424087 215.70063694 -4.82921647 213.56069854 -4.82382202 211.42076111 C-4.81067804 205.59428367 -4.80424917 199.76781776 -4.79981136 193.94132781 C-4.79688385 190.30397049 -4.79277967 186.66661636 -4.78830719 183.02926064 C-4.774627 171.65695497 -4.7649629 160.28465653 -4.7611053 148.9123432 C-4.75662311 135.76960005 -4.73906987 122.62696083 -4.7101047 109.48424929 C-4.68851193 99.33559269 -4.6784023 89.18696537 -4.67706418 79.03828603 C-4.67601443 72.97222709 -4.67007047 66.90626577 -4.65224457 60.84023094 C-4.63580545 55.13492399 -4.63358815 49.42978847 -4.64238358 43.72446632 C-4.64315618 41.62862312 -4.63878193 39.53277085 -4.62892532 37.43695068 C-4.61627146 34.57907359 -4.62204692 31.7218097 -4.63250732 28.86393738 C-4.62445092 28.0316391 -4.61639452 27.19934081 -4.60809398 26.34182137 C-4.64764765 21.73150604 -5.03030164 18.75325144 -8 15 C-13.15065149 11.17002838 -16.84934851 11.17002838 -22 15 Z " fill="#000000" transform="translate(271,182)"/>
<path d="M0 0 C6.66183661 5.4034897 9.65185095 11.09084419 10.796875 19.5234375 C10.93737443 22.49029829 10.93619139 25.45278297 10.93058777 28.42256165 C10.93285333 29.30746896 10.93511888 30.19237628 10.93745309 31.10409898 C10.94377299 34.06330915 10.94296502 37.02247329 10.94213867 39.98168945 C10.94513142 42.10587625 10.94853421 44.23006251 10.95231628 46.35424805 C10.96114877 52.12084497 10.96349409 57.88742705 10.96413207 63.65403008 C10.964843 67.25793821 10.96697815 70.86184256 10.96962929 74.46574974 C10.97888024 87.0418662 10.98296449 99.61797205 10.98217773 112.1940918 C10.98157701 123.91152916 10.9921284 135.62892048 11.0079214 147.3463462 C11.0210028 157.41107026 11.02636138 167.47577929 11.02572232 177.54051179 C11.02546751 183.54960543 11.02830948 189.55865814 11.03890038 195.5677433 C11.0485914 201.22055972 11.04865359 206.87329616 11.04138374 212.52611542 C11.04033915 214.59770258 11.04269332 216.66929475 11.0487442 218.74087334 C11.05648487 221.57512986 11.05180556 224.40911164 11.04411316 227.24336243 C11.04925672 228.05738992 11.05440029 228.8714174 11.05969971 229.71011239 C11.00470617 238.91935188 9.64806232 246.61005547 2.96875 253.375 C-3.79439063 259.64768387 -9.70748839 261.06576097 -18.87890625 260.8984375 C-26.48201546 260.04074245 -32.1395202 256.3915675 -36.94921875 250.5625 C-40.2173 245.24805011 -41.57774853 240.91001845 -41.59080505 234.6723175 C-41.59619059 234.01987397 -41.60157613 233.36743043 -41.60712487 232.69521588 C-41.62132913 230.52879134 -41.61432006 228.36298435 -41.60717773 226.1965332 C-41.61288505 224.63550326 -41.61985071 223.07447749 -41.62797546 221.51345825 C-41.64587609 217.28847183 -41.6447451 213.06369342 -41.63903308 208.83868051 C-41.63593865 205.30952501 -41.64203607 201.78040933 -41.64807183 198.25125951 C-41.66210345 189.92845882 -41.66056537 181.60576084 -41.64916992 173.28295898 C-41.63767237 164.69575609 -41.65179484 156.10886491 -41.6785664 147.52170306 C-41.70070363 140.14489266 -41.70736577 132.76818027 -41.70148998 125.391339 C-41.69811659 120.98700086 -41.70056158 116.58286284 -41.71774101 112.17855263 C-41.73317813 108.04075571 -41.72929103 103.90342246 -41.71043587 99.76564407 C-41.70674187 98.24667768 -41.70988205 96.72767715 -41.72032166 95.20874214 C-41.73347828 93.13649208 -41.72203487 91.06578949 -41.70433044 88.99360657 C-41.70412116 87.83386479 -41.70391188 86.67412302 -41.70369625 85.47923756 C-41.09262571 81.87095536 -40.11492286 80.68384387 -37.203125 78.5234375 C-33.44963038 78.05425067 -31.16464047 77.99207369 -27.828125 79.8359375 C-24.72752288 83.05579354 -25.0783959 86.45783969 -25.07855225 90.69699097 C-25.07470772 92.63600784 -25.07470772 92.63600784 -25.07078552 94.61419678 C-25.07285549 96.04992683 -25.07497824 97.48565681 -25.07714844 98.92138672 C-25.07575372 100.43093926 -25.07385443 101.9404914 -25.07148743 103.45004272 C-25.0669894 106.70268951 -25.06513432 109.95532367 -25.06502533 113.20797348 C-25.06388562 118.35117546 -25.05105219 123.49430557 -25.03546143 128.63748169 C-25.03160215 129.93915891 -25.03160215 129.93915891 -25.0276649 131.26713264 C-25.02239834 133.04167562 -25.01711286 134.81621855 -25.01180887 136.59076142 C-24.97668694 148.56556436 -24.95014856 160.540278 -24.95263672 172.51513672 C-24.95422463 180.59150928 -24.93820628 188.66763692 -24.90193009 196.74393094 C-24.88345825 201.01818347 -24.87413774 205.29202699 -24.88640594 209.56631088 C-24.89783393 213.58680294 -24.88616033 217.6065624 -24.85677147 221.62695694 C-24.85012549 223.10194829 -24.85200709 224.57700659 -24.86306953 226.05197144 C-24.87692518 228.06659299 -24.85711097 230.08136205 -24.83563232 232.09591675 C-24.83416576 233.22306028 -24.8326992 234.35020382 -24.8311882 235.51150322 C-23.99853874 239.50454952 -22.35178174 241.01160121 -19.203125 243.5234375 C-15.703125 244.35677083 -15.703125 244.35677083 -12.203125 243.5234375 C-9.04358195 240.98206591 -7.48771614 239.37721091 -6.203125 235.5234375 C-6.1026758 232.68782344 -6.05970005 229.87666505 -6.06268311 227.04081726 C-6.05971198 226.16452362 -6.05674086 225.28822999 -6.0536797 224.385382 C-6.04498082 221.43749444 -6.04348345 218.48964744 -6.04199219 215.54174805 C-6.03736487 213.4328401 -6.03234033 211.32393299 -6.02694702 209.21502686 C-6.01381304 203.47738164 -6.00737616 197.73974812 -6.00293636 192.00209022 C-6.00000736 188.41916035 -5.99590289 184.83623369 -5.99143219 181.25330544 C-5.97775488 170.04812309 -5.96808926 158.84294807 -5.9642303 147.63775796 C-5.95974826 134.69369594 -5.94219452 121.74973946 -5.9132297 108.80570954 C-5.89162948 98.80648509 -5.88152691 88.80729036 -5.88018918 78.80804282 C-5.87914 72.83306914 -5.8732081 66.85819463 -5.85536957 60.88324547 C-5.83891755 55.26328206 -5.83671948 49.64349267 -5.84550858 44.02351379 C-5.84628048 41.96034085 -5.84191616 39.89715867 -5.83205032 37.83400917 C-5.81937427 35.01813403 -5.82518408 32.20287926 -5.83563232 29.38700867 C-5.82757592 28.56997819 -5.81951952 27.75294772 -5.81121898 26.91115874 C-5.85344056 22.04802534 -6.55396525 18.7581184 -9.203125 14.5234375 C-11.92203715 12.29004538 -13.19977328 12.52314349 -16.765625 12.8359375 C-20.16565617 13.44203971 -20.16565617 13.44203971 -23.203125 14.5234375 C-24.78947864 18.20622817 -24.35636207 22.44657335 -24.37890625 26.39453125 C-24.40209851 27.95378963 -24.42621561 29.51303448 -24.45117188 31.07226562 C-24.48629795 33.51905478 -24.51564913 35.96534267 -24.52905273 38.41235352 C-24.54455635 40.78202096 -24.58476588 43.15024654 -24.62890625 45.51953125 C-24.62699783 46.24675888 -24.62508942 46.97398651 -24.62312317 47.72325134 C-24.73963096 52.57997184 -25.69140337 55.15143425 -29.203125 58.5234375 C-32.8929192 59.77953765 -34.46699329 59.86696563 -38.015625 58.2109375 C-40.203125 56.5234375 -40.203125 56.5234375 -41.203125 54.5234375 C-41.32674124 51.70011756 -41.39156995 48.90250417 -41.40625 46.078125 C-41.41195007 45.23428253 -41.41765015 44.39044006 -41.42352295 43.52102661 C-41.432981 41.73050187 -41.43951012 39.93995965 -41.44335938 38.14941406 C-41.45301288 35.43002124 -41.48400624 32.71140116 -41.515625 29.9921875 C-41.52216047 28.25000447 -41.5274088 26.50781605 -41.53125 24.765625 C-41.5435968 23.960112 -41.5559436 23.154599 -41.56866455 22.32467651 C-41.54027411 15.0049914 -39.83707126 8.5176224 -34.79296875 2.90625 C-24.87323112 -5.72172818 -11.11331241 -7.44828385 0 0 Z " fill="#000000" transform="translate(355.203125,182.4765625)"/>
<path d="M0 0 C6.92959492 7.12758335 8.33578425 13.5307431 8.34140015 23.24356079 C8.34797353 24.6224281 8.34797353 24.6224281 8.3546797 26.02915132 C8.36805911 29.11660426 8.37424466 32.20402866 8.38037109 35.29150391 C8.38827275 37.50244272 8.39654174 39.71338024 8.40515137 41.92431641 C8.43136462 49.19171925 8.44667856 56.45912784 8.4609375 63.7265625 C8.46629751 66.22879414 8.47167502 68.73102573 8.47706985 71.23325729 C8.49869775 81.64237495 8.51758525 92.05149198 8.52869225 102.4606266 C8.53162176 105.16043731 8.53458345 107.86024798 8.53759766 110.56005859 C8.53834371 111.23105242 8.53908976 111.90204625 8.53985842 112.59337322 C8.55250496 123.45667442 8.58572038 134.31981168 8.62739949 145.18303628 C8.66987418 156.34546461 8.69298637 167.5078341 8.69861281 178.67034853 C8.70226499 184.93391143 8.7142728 191.19719637 8.74671555 197.46068192 C8.77681212 203.3557066 8.78310199 209.25028534 8.77133179 215.14537048 C8.77111119 217.30524229 8.77940479 219.46513489 8.79698563 221.62493515 C8.96936432 244.0267094 8.96936432 244.0267094 1.4471035 252.12327003 C-4.14742966 257.47694535 -9.55314002 259.41230795 -17.1875 259.6875 C-25.22633728 259.4662476 -30.78229423 257.39981534 -36.6875 251.9375 C-43.04467454 245.0652766 -43.9637496 237.16484986 -44.015625 228.09765625 C-44.02132507 227.31990341 -44.02702515 226.54215057 -44.03289795 225.74082947 C-44.04231336 224.10107775 -44.04886812 222.4613074 -44.05273438 220.8215332 C-44.06245507 218.32404461 -44.09351631 215.82737447 -44.125 213.33007812 C-44.13152969 211.73177569 -44.1367803 210.1334674 -44.140625 208.53515625 C-44.1529718 207.79435318 -44.1653186 207.05355011 -44.17803955 206.29029846 C-44.15778604 201.53816453 -43.35089074 198.27581355 -40.8125 194.25 C-37.72076248 192.70413124 -35.21820448 192.95640479 -31.8125 193.25 C-29.61962891 194.75024414 -29.61962891 194.75024414 -27.8125 197.25 C-27.4181173 200.14270162 -27.25456666 202.6674567 -27.2734375 205.55859375 C-27.26164459 206.36232925 -27.24985168 207.16606476 -27.23770142 207.99415588 C-27.20245102 210.55880108 -27.1932751 213.12263244 -27.1875 215.6875 C-27.17112776 218.24855174 -27.14901036 220.80924133 -27.11587524 223.37013245 C-27.09633605 224.96162105 -27.08690051 226.55327499 -27.08895874 228.1448822 C-27.04010491 233.25201675 -26.68551902 237.23823883 -23.125 241.0625 C-19.76944997 242.78562029 -17.53232635 242.77208089 -13.8125 242.25 C-11.12776266 240.27659075 -9.15697258 238.69331464 -8.35814786 235.3462981 C-8.17772083 232.99155184 -8.16541259 230.68503921 -8.20449829 228.32359314 C-8.1995206 227.42376176 -8.19454291 226.52393038 -8.18941438 225.59683138 C-8.17883498 222.58091186 -8.20399983 219.56635597 -8.22900391 216.55053711 C-8.22877722 214.38882827 -8.22636347 212.22711872 -8.22192383 210.06541443 C-8.21621182 204.19353171 -8.24152896 198.32214444 -8.27259874 192.45035625 C-8.30012063 186.31031054 -8.30013766 180.1702644 -8.30331421 174.03016663 C-8.31252098 163.71948664 -8.34006383 153.40899203 -8.38037109 143.09838867 C-8.43719329 128.54979581 -8.45951918 114.00129632 -8.47565579 99.4526099 C-8.48810682 89.38391679 -8.50878736 79.31523788 -8.5310359 69.24656224 C-8.53639999 66.80281473 -8.54153634 64.35906671 -8.54644823 61.91531825 C-8.56074357 54.94994148 -8.58016092 47.98461805 -8.60792542 41.01928139 C-8.61565301 38.90690022 -8.6217122 36.79451222 -8.62600327 34.68212128 C-8.63221227 31.80451489 -8.64456147 28.92700053 -8.65859985 26.04942322 C-8.65909761 25.20847656 -8.65959537 24.3675299 -8.66010821 23.5011 C-8.67306336 18.28957788 -8.67306336 18.28957788 -9.8125 13.25 C-12.85876008 11.36848642 -14.78287542 11.24896054 -18.375 11.375 C-22.13700411 12.33260105 -23.48322977 13.20403124 -25.8125 16.25 C-26.89995623 19.51236868 -26.93720177 21.88286367 -26.93707275 25.31639099 C-26.93963577 26.58527161 -26.94219879 27.85415222 -26.94483948 29.16148376 C-26.94276953 30.57046516 -26.94064678 31.97944649 -26.93847656 33.38842773 C-26.9398713 34.87004652 -26.94177059 36.35166491 -26.94413757 37.83328247 C-26.94863521 41.02536273 -26.95049067 44.21743013 -26.95059967 47.40951347 C-26.95173927 52.45582723 -26.96457156 57.50206771 -26.98016357 62.5483551 C-26.98273643 63.39971289 -26.98530928 64.25107067 -26.9879601 65.12822717 C-26.99322661 66.86912733 -26.99851209 68.61002743 -27.00381613 70.35092747 C-27.03894402 82.1002554 -27.06547535 93.84949215 -27.06298828 105.59887695 C-27.06140104 113.52325486 -27.07740213 121.447383 -27.11369491 129.3716808 C-27.13217689 133.5659793 -27.14147842 137.75986068 -27.12921906 141.95419121 C-27.11780238 145.89835371 -27.12943786 149.84176857 -27.15885353 153.78583145 C-27.1655068 155.23382909 -27.1636055 156.68189489 -27.15255547 158.12986565 C-27.13872908 160.10542501 -27.15848968 162.08113465 -27.17999268 164.05662537 C-27.18219252 165.71553881 -27.18219252 165.71553881 -27.1844368 167.40796566 C-27.8125 170.25 -27.8125 170.25 -30.12546921 172.64099216 C-32.8125 174.25 -32.8125 174.25 -36.4375 174.1875 C-40.95535714 172.93253968 -40.95535714 172.93253968 -42.8125 170.25 C-43.88965709 167.01852873 -43.94096556 164.68562216 -43.94621277 161.28645325 C-43.95047775 160.04018158 -43.95474274 158.79390991 -43.95913696 157.50987244 C-43.95878743 156.12612912 -43.95832589 154.74238583 -43.95776367 153.35864258 C-43.96075548 151.90321771 -43.96415807 150.44779363 -43.96794128 148.99237061 C-43.97678583 145.03552149 -43.97911966 141.07869399 -43.97975707 137.12183595 C-43.98046762 134.64847415 -43.98260208 132.17511786 -43.98525429 129.70175743 C-43.99451103 121.06899034 -43.99858899 112.43623869 -43.99780273 103.8034668 C-43.99720268 95.76410435 -44.00773941 87.72480916 -44.0235464 79.68546373 C-44.03664023 72.77917504 -44.04198582 65.87290827 -44.04134732 58.96660727 C-44.04109277 54.84382654 -44.04392028 50.72110551 -44.05452538 46.59833717 C-44.06423673 42.71678619 -44.06426479 38.83535157 -44.05700874 34.95379639 C-44.05596649 33.53326433 -44.05830438 32.11272492 -44.0643692 30.69220543 C-44.10725578 19.94639329 -43.88787059 9.98986425 -36.3125 1.5859375 C-25.46170037 -8.61180475 -12.01043916 -7.47316214 0 0 Z " fill="#000000" transform="translate(189.8125,183.75)"/>
</svg>
