<?xml version="1.0" encoding="UTF-8"?>
<svg version="1.1" xmlns="http://www.w3.org/2000/svg" width="512" height="512">
<path d="M0 0 C8.34007765 7.89696809 13.30798116 13.7448925 13.8671875 25.5390625 C13.62226787 33.10707894 11.73115022 38.76815646 6.66015625 44.44140625 C-0.33739165 50.9018963 -6.81175679 52.25827938 -16.19921875 52 C-25.4998277 50.94004233 -30.88718305 45.80887587 -37.12109375 39.22265625 C-40.47336427 35.80934287 -44.11364667 32.87011312 -47.859375 29.90234375 C-50.13390564 28.05702894 -52.32145308 26.16876818 -54.5078125 24.22265625 C-110.68279711 -25.15664776 -190.19628671 -46.51838562 -263.6875 -42.08984375 C-313.77552766 -38.34285507 -363.90801485 -22.61620496 -405.6953125 5.6015625 C-406.42379395 6.09253418 -407.15227539 6.58350586 -407.90283203 7.08935547 C-419.73057156 15.12834291 -430.76932769 23.84483185 -441.3515625 33.47265625 C-444.14522644 36.01023433 -446.97443487 38.50289631 -449.828125 40.97265625 C-451.06635325 42.05286792 -452.2906749 43.14924436 -453.5 44.26171875 C-460.70177796 50.77532682 -466.47763221 52.24895267 -476.18359375 52.01171875 C-483.12111281 51.20144122 -488.41024104 48.34171936 -493.1328125 43.2265625 C-498.32661389 36.32601617 -499.05305084 30.94012015 -499.2890625 22.39453125 C-497.84758192 13.1861257 -492.66058826 6.79524735 -486.0703125 0.5390625 C-485.35883057 -0.1528418 -484.64734863 -0.84474609 -483.91430664 -1.55761719 C-478.42440684 -6.84092453 -472.70192961 -11.71260314 -466.6953125 -16.3984375 C-465.63791195 -17.27669168 -464.58338106 -18.15840865 -463.53125 -19.04296875 C-432.47390518 -44.9262949 -395.79064574 -64.23428549 -357.6953125 -77.3984375 C-356.87401855 -77.68412598 -356.05272461 -77.96981445 -355.20654297 -78.26416016 C-328.31020785 -87.50055427 -300.01789599 -93.08497475 -271.6953125 -95.3984375 C-270.66543213 -95.48520752 -270.66543213 -95.48520752 -269.61474609 -95.57373047 C-175.61409002 -103.18319986 -82.33348503 -71.17666022 0 0 Z " fill="#1D1D1B" transform="translate(498.6953125,158.3984375)"/>
<path d="M0 0 C1.37788193 0.00081573 1.37788193 0.00081573 2.78359985 0.00164795 C62.40396997 0.16321902 115.52657076 22.97800662 159.6875 62.375 C160.43 63.02082031 161.1725 63.66664063 161.9375 64.33203125 C167.50763296 69.45799412 171.09831291 75.20278897 172.16796875 82.77734375 C172.52289966 91.6122457 171.01589331 98.53254572 165.04296875 105.21484375 C158.04496405 111.67575554 151.56235673 113.042981 142.171875 112.765625 C133.03255924 111.74103803 127.52733192 106.52241759 121.12548828 100.37841797 C94.95831338 75.54622649 61.06499161 60.89404751 25.6875 55.375 C24.62345947 55.20299072 23.55941895 55.03098145 22.46313477 54.85375977 C18.55886843 54.3586892 14.7250283 54.19689199 10.796875 54.171875 C9.69005119 54.16128555 9.69005119 54.16128555 8.56086731 54.15048218 C-34.44484063 53.83258014 -72.75382384 64.55174273 -107.6875 90.4375 C-108.34169922 90.91993164 -108.99589844 91.40236328 -109.66992188 91.89941406 C-113.69019956 94.93818664 -117.25497203 98.21338372 -120.77197266 101.82006836 C-127.58959946 108.70144159 -134.43070518 112.47674789 -144.125 112.875 C-151.77376372 112.68804828 -157.41765777 110.85637703 -163.15234375 105.73046875 C-169.61239137 98.73340006 -170.97498054 92.25533674 -170.70703125 82.8671875 C-169.24765723 69.94956005 -158.45553544 61.73991475 -149.0625 53.875 C-137.66316241 44.8073451 -126.00862486 36.52671536 -113.3125 29.375 C-112.65556152 29.00133301 -111.99862305 28.62766602 -111.32177734 28.24267578 C-77.17032204 8.9682684 -39.06808924 -0.08748467 0 0 Z " fill="#1D1D1B" transform="translate(255.3125,182.625)"/>
<path d="M0 0 C0.64453125 0.48855469 1.2890625 0.97710937 1.953125 1.48046875 C7.73868566 5.97056692 11.68604818 12.05814455 14 19 C14.89304715 28.75031804 13.16336841 35.16190713 7.875 43.25 C2.16816635 48.70871045 -4.58374859 51.72876362 -12.49609375 52.125 C-21.55829143 51.672597 -27.25052194 47.65831244 -34 42 C-50.86245104 28.93160044 -67.86560109 22.60087132 -89.4609375 24.5234375 C-94.50450469 25.20259335 -99.18832376 26.36150932 -104 28 C-104.80566406 28.25394531 -105.61132812 28.50789063 -106.44140625 28.76953125 C-115.81870731 32.06588588 -124.08231026 38.21830064 -131.375 44.875 C-137.36793989 50.2686459 -144.02573451 52.17879519 -152 52 C-160.52398343 50.67175447 -167.04411214 46.73375309 -172.375 40 C-176.10708093 33.11000444 -176.95841506 26.77489766 -176 19 C-173.94611895 12.86381818 -170.85767644 8.27938163 -166 4 C-165.5565625 3.505 -165.113125 3.01 -164.65625 2.5 C-146.00917415 -18.04983869 -114.43654352 -28.37536324 -87.515625 -29.93359375 C-54.88794743 -30.54989433 -25.01027015 -21.31349664 0 0 Z " fill="#1D1D1B" transform="translate(337,320)"/>
<path d="M0 0 C8.1707596 4.3506642 13.84265542 10.36422503 16.6796875 19.32421875 C18.06007164 26.71913377 17.7223539 34.70924729 14.0625 41.375 C8.41700748 48.82617991 2.92228831 54.23968365 -6.40625 56.08984375 C-14.49628177 57.00122079 -22.39034105 55.77675717 -29 50.83203125 C-35.99404924 45.00794245 -40.25325887 39.11373837 -41.1953125 29.8359375 C-41.57137824 20.93571503 -39.2948046 13.9417661 -33.6875 7 C-25.31576997 -1.9310482 -11.35448421 -4.72613246 0 0 Z " fill="#1D1D1B" transform="translate(267.9375,393.625)"/>
</svg>
