<?xml version="1.0" standalone="no"?>
<!DOCTYPE svg PUBLIC "-//W3C//DTD SVG 20010904//EN"
 "http://www.w3.org/TR/2001/REC-SVG-20010904/DTD/svg10.dtd">
<svg version="1.0" xmlns="http://www.w3.org/2000/svg"
 width="512.000000pt" height="512.000000pt" viewBox="0 0 512.000000 512.000000"
 preserveAspectRatio="xMidYMid meet">

<g transform="translate(0.000000,512.000000) scale(0.100000,-0.100000)"
fill="#000000" stroke="none">
<path d="M3111 5104 c-80 -21 -145 -60 -206 -125 -78 -82 -116 -166 -122 -273
-9 -142 28 -246 123 -346 256 -268 703 -126 765 243 52 311 -252 584 -560 501z"/>
<path d="M2739 4086 c-92 -33 -160 -100 -190 -190 -10 -28 -16 -52 -14 -54 2
-2 20 1 41 7 21 6 39 9 41 7 2 -2 -88 -52 -199 -111 -296 -157 -310 -166 -340
-222 -14 -26 -98 -222 -187 -434 -179 -429 -183 -445 -138 -530 63 -119 216
-144 317 -53 32 29 57 81 191 403 l154 369 115 61 c299 159 306 162 275 134
-17 -16 -87 -76 -156 -134 -169 -143 -160 -115 -194 -648 l-26 -405 22 -450
23 -451 -248 -534 c-174 -375 -249 -547 -253 -581 -11 -90 39 -187 121 -235
94 -55 206 -42 286 34 47 43 65 78 311 611 144 311 266 579 271 595 6 20 1
189 -13 487 -13 252 -20 460 -17 463 3 3 29 3 56 -1 l51 -6 135 -407 136 -406
50 -580 c27 -319 54 -603 60 -632 28 -135 171 -221 305 -183 56 16 132 81 156
135 11 24 19 64 19 100 0 33 -23 328 -51 655 l-51 595 -112 340 -112 340 30
445 c16 245 30 447 32 449 1 2 17 -13 35 -34 18 -20 49 -45 70 -55 20 -11 200
-60 399 -110 277 -69 370 -89 398 -84 93 16 161 87 170 174 8 81 -4 117 -56
169 l-47 47 -325 83 c-179 45 -332 89 -340 96 -8 7 -71 78 -139 157 l-123 143
-2 95 c-1 81 -5 102 -28 146 -15 27 -45 67 -68 88 -77 69 -102 75 -403 97
-317 22 -389 23 -438 5z"/>
<path d="M1590 2046 c-79 -171 -144 -313 -146 -315 -1 -1 -57 22 -124 53 -143
66 -188 71 -256 31 -51 -30 -11 49 -384 -760 -268 -582 -272 -590 -268 -646 5
-71 33 -111 101 -145 29 -15 53 -28 55 -29 2 -2 -4 -17 -12 -34 -9 -16 -16
-47 -16 -68 0 -141 194 -181 249 -52 18 45 24 46 82 19 24 -11 59 -20 78 -20
55 0 118 36 145 83 47 83 595 1283 601 1318 7 40 -13 100 -46 136 -14 14 -19
28 -14 42 3 12 69 156 146 322 76 166 137 305 134 309 -2 4 -22 10 -44 13 -21
2 -61 16 -89 30 l-49 25 -143 -312z"/>
</g>
</svg>
