<?xml version="1.0" encoding="UTF-8"?>
<svg version="1.1" xmlns="http://www.w3.org/2000/svg" width="512" height="512">
<path d="M0 0 C2.52040664 0.01611263 5.03921081 0.00001365 7.55957031 -0.01904297 C22.29537801 -0.03834296 36.84958368 1.7207829 51.08300781 5.64111328 C52.24086792 5.95471802 52.24086792 5.95471802 53.42211914 6.2746582 C84.884215 15.11268473 112.01506648 31.99378562 135.52050781 54.39111328 C136.29910156 55.11685547 137.07769531 55.84259766 137.87988281 56.59033203 C169.20304662 86.63613278 189.61032805 132.51952115 190.88076782 175.84466553 C190.93214327 179.18731393 190.93689712 182.52768908 190.91162109 185.87060547 C190.89550846 188.39101211 190.91160745 190.90981628 190.93066406 193.43017578 C190.9824726 233.54555068 176.39722204 273.0645551 151.52050781 304.39111328 C151.07594238 304.95137207 150.63137695 305.51163086 150.17333984 306.08886719 C124.88792822 337.60093845 91.39237648 359.82260379 52.45800781 370.70361328 C51.64581787 370.93387207 50.83362793 371.16413086 49.99682617 371.40136719 C34.41380693 375.53078397 18.84069302 376.94891966 2.77050781 376.82861328 C1.9009848 376.8255719 1.03146179 376.82253052 0.1355896 376.81939697 C-13.74620138 376.74786675 -26.97381641 375.80107935 -40.47949219 372.39111328 C-41.33881348 372.18744141 -42.19813477 371.98376953 -43.08349609 371.77392578 C-68.74938627 365.60840332 -92.93830874 353.98527636 -113.47949219 337.39111328 C-113.99431152 336.97780762 -114.50913086 336.56450195 -115.03955078 336.13867188 C-154.54951491 304.23554567 -179.97224461 259.1116493 -185.47949219 208.39111328 C-185.88851568 202.56810865 -185.91472362 196.74652879 -185.87060547 190.91162109 C-185.85449283 188.39121446 -185.87059182 185.87241028 -185.88964844 183.35205078 C-185.94145697 143.23667588 -171.35620641 103.71767146 -146.47949219 72.39111328 C-146.03492676 71.83085449 -145.59036133 71.2705957 -145.13232422 70.69335938 C-113.79763307 31.64234311 -69.70462053 7.21375495 -20.05456543 0.67071533 C-13.38780466 -0.0531631 -6.69864583 -0.05064893 0 0 Z M-95.47949219 57.39111328 C-96.35992187 58.04982422 -97.24035156 58.70853516 -98.14746094 59.38720703 C-128.47230895 83.08269388 -147.94550067 115.38476704 -157.47949219 152.39111328 C-157.6602832 153.07206055 -157.84107422 153.75300781 -158.02734375 154.45458984 C-163.77377155 177.20039054 -162.68188055 205.88913307 -156.47949219 228.39111328 C-156.2163623 229.34840332 -155.95323242 230.30569336 -155.68212891 231.29199219 C-149.97293919 251.30808175 -141.11107297 269.81646192 -128.47949219 286.39111328 C-127.82078125 287.27154297 -127.16207031 288.15197266 -126.48339844 289.05908203 C-99.77258782 323.24286045 -60.63524423 345.4169239 -17.63476562 351.14160156 C24.29529593 355.99576138 66.82312917 345.07196478 100.52050781 319.39111328 C101.4009375 318.73240234 102.28136719 318.07369141 103.18847656 317.39501953 C130.47355438 296.07477409 150.07076505 267.15914695 159.77050781 233.95361328 C160.00479492 233.15656982 160.23908203 232.35952637 160.48046875 231.53833008 C164.42358724 217.31170565 166.08420093 203.42009657 165.95800781 188.70361328 C165.95430176 187.92119263 165.9505957 187.13877197 165.94677734 186.3326416 C165.85969087 173.35345774 164.98517527 160.96076772 161.52050781 148.39111328 C161.25737793 147.43382324 160.99424805 146.4765332 160.72314453 145.49023438 C155.01395482 125.47414481 146.15208859 106.96576465 133.52050781 90.39111328 C132.86179687 89.51068359 132.20308594 88.63025391 131.52441406 87.72314453 C116.53436992 68.53928841 98.1235362 53.47544658 76.52050781 42.39111328 C75.60301758 41.91399902 75.60301758 41.91399902 74.66699219 41.42724609 C20.59057366 13.63394184 -47.36215553 20.72077788 -95.47949219 57.39111328 Z " fill="#000000" transform="translate(253.4794921875,67.60888671875)"/>
<path d="M0 0 C5.74823012 3.04041076 8.06955766 6.74597211 10.96484375 12.46484375 C11.40030014 13.30031235 11.83575653 14.13578094 12.28440857 14.99656677 C15.2691236 20.94493167 17.27099883 26.86408984 19.06640625 33.25390625 C22.44731569 44.29594122 26.25133903 55.99504797 36 63 C52.63414095 70.38368911 72.96210922 71.12837799 90.92134094 72.0431366 C102.45686468 72.71887357 102.45686468 72.71887357 107 77 C109.10673571 80.16010357 109.31888057 81.15912525 109.375 84.8125 C109.40335938 85.64394531 109.43171875 86.47539062 109.4609375 87.33203125 C108.29659846 94.07138347 102.75417403 98.31884833 97.9375 102.6875 C96.44038494 104.10308731 94.94437609 105.51984508 93.44921875 106.9375 C90.51725424 109.69620441 87.55346836 112.40370271 84.51416016 115.04296875 C68.71321863 127.33277995 68.71321863 127.33277995 59.6953125 143.96484375 C60.00056176 148.35280181 61.47634074 152.34816926 62.93457031 156.47167969 C65.09683144 163.63231163 66.07714784 171.08076422 67.28204346 178.45184326 C67.74263353 181.20595202 68.23788801 183.95161697 68.74365234 186.69775391 C69.0532844 188.42867079 69.36270068 190.15962629 69.671875 191.890625 C69.82079193 192.67434479 69.96970886 193.45806458 70.12313843 194.26553345 C71.04058513 199.56097888 71.3631597 204.74351475 70 210 C67.41197709 213.18525896 65.21264398 215.63699682 61.06542969 216.31738281 C52.89549016 216.78071272 47.25818462 213.6419759 40.25 209.75 C39.0684406 209.11301298 37.88588867 208.47786388 36.70239258 207.84448242 C33.70243639 206.23266704 30.71623913 204.59709013 27.73370361 202.95330811 C25.01504933 201.45840717 22.28641815 199.9819897 19.55859375 198.50390625 C15.84834341 196.49052681 12.14562897 194.46444208 8.44921875 192.42578125 C7.67368652 192.00506348 6.8981543 191.5843457 6.09912109 191.15087891 C4.3049767 190.16720867 2.53451248 189.14055448 0.76953125 188.10546875 C-3.3862347 186.44667924 -6.57785686 187.39558917 -10.62695312 189.11645508 C-11.50287109 189.57947021 -12.37878906 190.04248535 -13.28125 190.51953125 C-14.27793701 191.0417627 -15.27462402 191.56399414 -16.30151367 192.10205078 C-17.35701416 192.66649902 -18.41251465 193.23094727 -19.5 193.8125 C-20.59481689 194.38983887 -21.68963379 194.96717773 -22.81762695 195.56201172 C-32.08622017 200.46636134 -41.29475798 205.48149557 -50.48046875 210.5390625 C-51.9866358 211.36000528 -53.4931063 212.1803918 -55 213 C-56.08925781 213.59683594 -57.17851562 214.19367188 -58.30078125 214.80859375 C-62.56750185 216.69187853 -66.42783937 216.66801048 -71 216 C-74.52535915 214.30027327 -76.38991594 213.19744115 -78.17147827 209.70068359 C-80.72344142 201.38219928 -77.40337711 190.75418514 -75.8984375 182.375 C-75.48683645 180.01695199 -75.07538228 177.65887834 -74.6640625 175.30078125 C-74.01709932 171.62889478 -73.36744615 167.95750958 -72.71484375 164.28662109 C-72.08157308 160.71309748 -71.45823031 157.13794903 -70.8359375 153.5625 C-70.63704926 152.46147949 -70.43816101 151.36045898 -70.23324585 150.22607422 C-70.05621124 149.20400879 -69.87917664 148.18194336 -69.69677734 147.12890625 C-69.5376889 146.23244385 -69.37860046 145.33598145 -69.21469116 144.41235352 C-68.90503939 140.9329856 -69.24011918 138.95473575 -71.43312073 136.1993866 C-72.35289955 135.28507622 -72.35289955 135.28507622 -73.29125977 134.35229492 C-73.98610977 133.65444382 -74.68095978 132.95659271 -75.39686584 132.2375946 C-76.15406418 131.49274307 -76.91126251 130.74789154 -77.69140625 129.98046875 C-78.47007553 129.20367264 -79.24874481 128.42687653 -80.05101013 127.62654114 C-81.70279621 125.98148134 -83.35817798 124.34002528 -85.0168457 122.7019043 C-87.53518985 120.2144749 -90.04293618 117.71676414 -92.54882812 115.21679688 C-94.15823816 113.61656772 -95.76824577 112.0169393 -97.37890625 110.41796875 C-98.12193497 109.67918991 -98.86496368 108.94041107 -99.63050842 108.179245 C-103.74930094 104.11564936 -107.9542406 100.21526296 -112.35777283 96.46113586 C-115.37173156 93.77953172 -116.78030189 91.67693622 -117.30859375 87.64453125 C-117.5169173 83.370742 -117.43611545 80.74762649 -115.25 77 C-111.44976153 73.62201025 -108.12794239 72.6940781 -103.13330078 71.94677734 C-101.95172394 71.76674164 -100.77014709 71.58670593 -99.55276489 71.4012146 C-98.2798056 71.21467316 -97.00684631 71.02813171 -95.6953125 70.8359375 C-94.3701177 70.63748524 -93.04499454 70.43855408 -91.71994019 70.23916626 C-88.94493627 69.82310773 -86.16928951 69.41174838 -83.39306641 69.00390625 C-79.84573739 68.48256284 -76.29998081 67.95131947 -72.75462532 67.41673851 C-70.01839886 67.00499076 -67.28152689 66.59767711 -64.54442978 66.19176102 C-62.6043606 65.90349653 -60.66473956 65.6122212 -58.72512817 65.32089233 C-57.53724701 65.14716095 -56.34936584 64.97342957 -55.12548828 64.79443359 C-54.08498322 64.64058197 -53.04447815 64.48673035 -51.97244263 64.32821655 C-48.95619498 63.99516306 -46.03195997 63.94247835 -43 64 C-42.62020996 62.75581299 -42.24041992 61.51162598 -41.84912109 60.22973633 C-39.88057137 54.33923646 -37.18039525 48.87479342 -34.4140625 43.32421875 C-33.60586563 41.69284721 -33.60586563 41.69284721 -32.78134155 40.02851868 C-31.64644019 37.74360077 -30.50833257 35.46027286 -29.3671875 33.1784668 C-27.62484723 29.68719388 -25.9019557 26.18675621 -24.1796875 22.68554688 C-23.07148838 20.4603515 -21.96215233 18.23572189 -20.8515625 16.01171875 C-20.33993561 14.96690842 -19.82830872 13.92209808 -19.30117798 12.84562683 C-15.09223847 4.5069555 -10.29628846 -1.93499214 0 0 Z M-5 42 C-5.23945847 42.4922406 -5.47891693 42.9844812 -5.72563171 43.49163818 C-8.22585171 48.62507294 -10.74308956 53.74989996 -13.27026367 58.87011719 C-14.21050791 60.78073236 -15.14642805 62.69348193 -16.07788086 64.60839844 C-17.41943583 67.36448896 -18.77648182 70.11246625 -20.13671875 72.859375 C-20.54838791 73.71368103 -20.96005707 74.56798706 -21.38420105 75.44818115 C-23.65491401 79.99217946 -25.56251751 83.23498121 -30 86 C-33.00390625 86.90625 -33.00390625 86.90625 -36.5625 87.5 C-37.22145264 87.61400146 -37.88040527 87.72800293 -38.55932617 87.84545898 C-43.41647851 88.65865711 -48.29427717 89.32632046 -53.171875 90.00390625 C-54.4292749 90.17921875 -55.6866748 90.35453125 -56.98217773 90.53515625 C-59.51690783 90.88412795 -62.05289296 91.22411263 -64.59008789 91.5546875 C-65.7630542 91.71324219 -66.93602051 91.87179688 -68.14453125 92.03515625 C-69.20003174 92.1731665 -70.25553223 92.31117676 -71.34301758 92.45336914 C-74.21242362 92.87031167 -74.21242362 92.87031167 -77 95 C-76.5887941 95.40676468 -76.1775882 95.81352936 -75.75392151 96.23262024 C-71.48186756 100.46048752 -67.21682213 104.69533077 -62.95581055 108.93432617 C-61.36385551 110.51621274 -59.77011154 112.09630108 -58.17456055 113.67456055 C-55.88379768 115.94111267 -53.59950891 118.21401643 -51.31640625 120.48828125 C-50.59973282 121.19463211 -49.88305939 121.90098297 -49.14466858 122.6287384 C-48.15375465 123.61942574 -48.15375465 123.61942574 -47.14282227 124.63012695 C-46.55880142 125.20970657 -45.97478058 125.78928619 -45.37306213 126.38642883 C-42.26268379 130.04162891 -42.76032381 134.47383653 -43 139 C-43.32408906 141.76553217 -43.80334501 144.48969817 -44.3125 147.2265625 C-44.44567627 147.97787445 -44.57885254 148.7291864 -44.71606445 149.50326538 C-45.13757346 151.87838962 -45.56789087 154.25178317 -46 156.625 C-46.43149293 159.00545092 -46.86085045 161.38619755 -47.28393555 163.76815796 C-47.54598065 165.24271653 -47.81279712 166.71643806 -48.08520508 168.18911743 C-48.79547015 172.17697478 -49.13272949 175.95096048 -49 180 C-44.66582466 178.66272708 -40.77298396 176.97996277 -36.75390625 174.8828125 C-35.00303711 173.97208984 -35.00303711 173.97208984 -33.21679688 173.04296875 C-32.31562134 172.56996338 -32.31562134 172.56996338 -31.39624023 172.08740234 C-29.57312034 171.13057387 -27.74687132 170.17996125 -25.91992188 169.23046875 C-24.75138672 168.62074219 -23.58285156 168.01101563 -22.37890625 167.3828125 C-20.6930542 166.50544434 -20.6930542 166.50544434 -18.97314453 165.61035156 C-16.64218295 164.34782712 -14.47935151 163.01839398 -12.27734375 161.5546875 C-7.62415792 159.34733594 -4.0552265 159.0108388 1 160 C5.68702621 161.83124401 10.04628551 164.18550439 14.4375 166.625 C15.58798828 167.24246094 16.73847656 167.85992187 17.92382812 168.49609375 C22.37888612 170.89400032 26.80844512 173.33544087 31.22705078 175.79980469 C32.21560059 176.34797852 33.20415039 176.89615234 34.22265625 177.4609375 C35.09801025 177.95126465 35.97336426 178.4415918 36.87524414 178.94677734 C38.90341052 180.14804082 38.90341052 180.14804082 41 180 C40.36752175 169.64511883 38.61740933 159.61435943 36.72851562 149.42578125 C33.84708227 133.41408453 33.84708227 133.41408453 36.07910156 128.74047852 C38.70264564 124.99756008 41.82335596 121.93068696 45.07421875 118.73046875 C45.7580513 118.04946609 46.44188385 117.36846344 47.1464386 116.66682434 C49.322126 114.50229232 51.50467917 112.34483576 53.6875 110.1875 C55.16777681 108.71725897 56.64759976 107.24656082 58.12695312 105.77539062 C61.74606557 102.17827698 65.37134984 98.58749105 69 95 C66.15986966 93.10657977 65.18884478 92.69291389 61.9909668 92.26977539 C61.18970871 92.15948502 60.38845062 92.04919464 59.56291199 91.93556213 C58.70039322 91.82405319 57.83787445 91.71254425 56.94921875 91.59765625 C55.11782188 91.34452156 53.28644221 91.09126243 51.45507812 90.83789062 C48.57213188 90.448542 45.68876318 90.06266765 42.80493164 89.67993164 C40.01839086 89.30729477 37.23384679 88.92178952 34.44921875 88.53515625 C33.59277267 88.42567154 32.7363266 88.31618683 31.85392761 88.2033844 C21.12744523 86.7024377 21.12744523 86.7024377 17.6730957 82.31446838 C16.34164739 80.2545523 15.15277714 78.16474092 14 76 C13.6424765 75.33234619 13.284953 74.66469238 12.91659546 73.97680664 C11.84769956 71.92437664 10.81562956 69.85707749 9.79296875 67.78125 C9.42271072 67.03790405 9.0524527 66.29455811 8.67097473 65.52868652 C7.50599728 63.1876658 6.3466572 60.84390713 5.1875 58.5 C4.39164961 56.89825183 3.59542888 55.29668762 2.79882812 53.6953125 C0.86160427 49.79898515 -1.07057412 45.90019432 -3 42 C-3.66 42 -4.32 42 -5 42 Z " fill="#000000" transform="translate(260,140)"/>
<path d="M0 0 C33.56002783 11.46860404 63.56852546 29.14480684 89.73681641 53.02856445 C91.41590096 54.5566903 93.10918714 56.06932928 94.81494141 57.56762695 C100.05683327 62.18397583 104.73859798 66.92937534 109.21337891 72.2824707 C110.02291016 73.20415039 110.83244141 74.12583008 111.66650391 75.07543945 C123.03607687 88.08046109 132.71165913 102.26083793 141.21337891 117.2824707 C141.58027832 117.92055664 141.94717773 118.55864258 142.32519531 119.21606445 C156.8375495 144.62998336 164.96749231 172.64758126 170.21337891 201.2824707 C170.34760254 201.99790039 170.48182617 202.71333008 170.62011719 203.45043945 C172.31750936 212.86607197 172.49214052 222.36370565 172.65087891 231.9074707 C172.68544189 233.13046875 172.72000488 234.3534668 172.75561523 235.61352539 C172.80090839 245.36169511 172.80090839 245.36169511 169.81103516 249.0559082 C165.7449876 252.54109182 163.00006972 252.69046235 157.76025391 252.62231445 C153.47123022 252.05000608 152.01612718 250.57569992 149.21337891 247.2824707 C147.19974631 241.76928352 146.94723816 236.74890536 146.83837891 230.9699707 C145.26162642 186.38401747 129.9855457 142.03050183 103.21337891 106.2824707 C102.77703125 105.69208008 102.34068359 105.10168945 101.89111328 104.4934082 C66.0948517 56.34080745 12.89994035 25.72165873 -45.99755859 15.82543945 C-54.47479469 14.61066026 -62.85653155 14.0320965 -71.41357422 13.76489258 C-78.1277171 13.49052899 -84.44919169 13.23032854 -89.78662109 8.7824707 C-92.29764357 5.29778645 -92.48961768 1.89846243 -92.28662109 -2.30737305 C-91.46980946 -6.2446604 -89.70902158 -8.0038717 -86.78662109 -10.7175293 C-65.68867677 -21.26650146 -20.89903424 -6.81181339 0 0 Z " fill="#000000" transform="translate(335.78662109375,15.717529296875)"/>
<path d="M0 0 C2.89028599 1.310028 3.8469335 2.47014686 6 5 C8.01354981 10.51296051 8.26665388 15.53367191 8.375 21.3125 C9.04159432 40.53721754 12.32557345 59.62491791 18 78 C18.23525391 78.77408203 18.47050781 79.54816406 18.71289062 80.34570312 C31.64521733 122.07719536 57.58059836 160.95618442 92 188 C92.99773437 188.80308594 93.99546875 189.60617187 95.0234375 190.43359375 C131.94067783 219.85895856 179.48175836 237.65017372 226.77539062 238.67285156 C233.40720953 238.8421877 239.80422347 239.20752936 245.0625 243.5 C247.51130485 246.9812278 247.70120282 250.42117278 247.5 254.58984375 C246.68318836 258.5271311 244.92240049 260.28634241 242 263 C220.86104773 273.56947613 175.91608517 259.07291733 155.01049805 252.1809082 C130.5665293 243.76543237 107.88862568 232.22794646 87 217 C86.41879395 216.5771875 85.83758789 216.154375 85.23876953 215.71875 C78.02140859 210.4231226 71.30920447 204.72327269 64.78515625 198.59765625 C62.29707763 196.27707802 59.76074019 194.03741665 57.1875 191.8125 C53.06791297 188.15719559 49.53365359 184.21458075 46 180 C45.18917969 179.07703125 44.37835938 178.1540625 43.54296875 177.203125 C32.64464913 164.73514572 23.2199094 151.18299128 15.02490234 136.79882812 C14.03532292 135.06199601 13.02773978 133.33545982 12.01953125 131.609375 C-1.99975035 106.64889758 -9.87103315 78.9966782 -15 51 C-15.13422363 50.28457031 -15.26844727 49.56914062 -15.40673828 48.83203125 C-17.10413045 39.41639874 -17.27876162 29.91876505 -17.4375 20.375 C-17.47206299 19.15200195 -17.50662598 17.92900391 -17.54223633 16.66894531 C-17.58752949 6.92077559 -17.58752949 6.92077559 -14.59765625 3.2265625 C-10.02106985 -0.69622585 -5.87676605 -0.7841697 0 0 Z " fill="#000000" transform="translate(21,244)"/>
</svg>
