<?xml version="1.0" encoding="UTF-8"?>
<svg version="1.1" xmlns="http://www.w3.org/2000/svg" width="512" height="512">
<path d="M0 0 C13.3808329 12.37402266 20.76274728 28.48320278 21.625 46.625 C20.63767877 69.37631525 9.47234045 86.53369394 -3.75 104.1875 C-2.8933374 104.4561084 -2.0366748 104.7247168 -1.15405273 105.00146484 C4.19095088 106.86376331 9.21014065 109.38517306 14.28100586 111.88037109 C15.54634323 112.49902368 16.8155653 113.10979661 18.08862305 113.71240234 C27.19604816 118.02501866 35.1667582 122.52587401 39.25 132.1875 C39.8553949 135.06587604 40.3843265 137.91472925 40.85720825 140.81488037 C41.00592499 141.69470085 41.15464172 142.57452134 41.30786502 143.48100305 C41.80534322 146.43392465 42.29351815 149.38830813 42.78173828 152.34277344 C43.13617001 154.45852535 43.49115377 156.57418485 43.84664917 158.6897583 C44.81126668 164.44093659 45.76764949 170.19345637 46.7222352 175.94630718 C47.72198439 181.96503548 48.72805603 187.98270735 49.73312378 194.00054932 C51.42066732 204.11124603 53.10273126 214.22284339 54.78173828 224.33496094 C56.72230598 236.02186442 58.67219744 247.70718374 60.6269666 259.39171958 C62.30481248 269.42247015 63.97759185 279.45405605 65.64615428 289.48635507 C66.64277686 295.47855635 67.64114513 301.47045249 68.6440773 307.46160126 C69.58730066 313.09780346 70.52415268 318.73502872 71.4561348 324.37310028 C71.79896448 326.44064282 72.14399448 328.50782191 72.49140167 330.57460022 C72.96587122 333.39950288 73.43230038 336.22562177 73.89675903 339.05218506 C74.03546893 339.86659868 74.17417883 340.6810123 74.31709206 341.52010512 C76.41238804 354.44391794 76.41238804 354.44391794 73.25 359.1875 C69.40550585 361.7504961 66.68765447 361.88449161 62.25 361.1875 C57.36865607 359.66717942 52.67423759 357.72994162 47.953125 355.78125 C46.55564734 355.21627036 45.15766698 354.65253273 43.75921631 354.08996582 C40.07942418 352.60587074 36.40653811 351.10539002 32.73492432 349.60119629 C29.06807205 348.1020899 25.39515303 346.61802371 21.72265625 345.1328125 C19.56997308 344.26104604 17.41741608 343.38896866 15.26487732 342.5168457 C13.85069175 341.94391846 12.43643615 341.37116406 11.02210999 340.79858398 C4.32594958 338.08661978 -2.36384749 335.36636844 -9.00585938 332.5234375 C-9.92159729 332.1380481 -10.83733521 331.75265869 -11.78082275 331.35559082 C-13.4033709 330.67127089 -15.02018363 329.97306864 -16.62884521 329.25671387 C-17.33301575 328.96252563 -18.03718628 328.6683374 -18.76269531 328.36523438 C-19.3470636 328.11076538 -19.93143188 327.85629639 -20.5335083 327.59411621 C-27.66016553 326.28672834 -34.83211261 329.33516224 -41.46118164 331.62158203 C-42.50449142 331.97446289 -43.54780121 332.32734375 -44.62272644 332.69091797 C-46.87726825 333.45431213 -49.13067229 334.22107307 -51.38304329 334.99084854 C-54.94920324 336.20864655 -58.51885528 337.41563058 -62.08970642 338.61959839 C-72.23807456 342.04306839 -82.38067533 345.48333839 -92.51879883 348.93701172 C-98.72861448 351.05231487 -104.94368924 353.15168277 -111.16171074 355.24276352 C-113.52749773 356.04170153 -115.89137225 356.84632617 -118.25325203 357.6567421 C-121.55377735 358.78895214 -124.86005554 359.90253085 -128.16821289 361.01220703 C-129.14035736 361.35085785 -130.11250183 361.68950867 -131.11410522 362.03842163 C-140.53819948 365.15719643 -147.23229746 362.88577077 -156.34765625 359.75341797 C-157.39082001 359.40053711 -158.43398376 359.04765625 -159.50875854 358.68408203 C-161.76580973 357.91999269 -164.02196496 357.15325273 -166.27731323 356.38415146 C-169.84800087 355.16759209 -173.42165247 353.96015976 -176.99633789 352.75540161 C-187.15682772 349.32991747 -197.31337362 345.89298097 -207.46386719 342.43798828 C-213.67899739 340.32262177 -219.89936793 338.22315858 -226.12277222 336.13223648 C-228.49131982 335.33321488 -230.85798438 334.52858863 -233.22268677 333.7182579 C-236.52809891 332.58598812 -239.83926971 331.47240714 -243.15234375 330.36279297 C-244.61291702 329.85481674 -244.61291702 329.85481674 -246.10299683 329.33657837 C-254.82343536 326.45526077 -260.76932771 327.91549555 -269.03686523 331.33032227 C-269.83458344 331.65233612 -270.63230164 331.97434998 -271.45419312 332.30612183 C-273.17644064 333.00228655 -274.89728579 333.70192876 -276.6168499 334.40469551 C-279.34255115 335.51777322 -282.0724287 336.61995492 -284.8037262 337.71922302 C-292.56530021 340.84510961 -300.31941602 343.98924893 -308.06958008 347.14331055 C-312.81920446 349.07537805 -317.57411723 350.99390764 -322.33244514 352.9044323 C-324.13939525 353.63318735 -325.94423932 354.36718781 -327.74685478 355.10659981 C-330.27090638 356.14174734 -332.80131978 357.15960476 -335.33374023 358.17407227 C-336.4382679 358.63457726 -336.4382679 358.63457726 -337.56510925 359.10438538 C-342.51269455 361.05879344 -346.42342858 361.64333264 -351.75 361.1875 C-354.75 359.1875 -354.75 359.1875 -356.75 356.1875 C-357.08732845 350.32846307 -356.38816064 344.84742979 -355.41694641 339.07910156 C-355.27346636 338.19586338 -355.1299863 337.3126252 -354.98215836 336.40262222 C-354.50246769 333.46008083 -354.01360646 330.51914114 -353.5246582 327.578125 C-353.17759315 325.4619557 -352.83104367 323.34570179 -352.48497009 321.22937012 C-351.5449121 315.49286342 -350.59632847 309.75779931 -349.6452105 304.02311707 C-349.05094825 300.43850734 -348.45828743 296.85363646 -347.86614037 293.26867676 C-345.79923164 280.75734223 -343.72456691 268.24731789 -341.64379883 255.73828125 C-339.70555463 244.08458577 -337.78566172 232.42796454 -335.8739751 220.76988602 C-334.23049339 210.75313567 -332.57329698 200.73871538 -330.90562886 190.72596359 C-329.91043991 184.74905389 -328.9209987 178.77132873 -327.94570351 172.7911377 C-327.02816489 167.16763919 -326.0936067 161.54723197 -325.14599037 155.9287262 C-324.80159113 153.86904168 -324.46326494 151.80833086 -324.13154221 149.74656677 C-323.67686068 146.92662449 -323.20018104 144.11124474 -322.7179718 141.29589844 C-322.5297069 140.07837072 -322.5297069 140.07837072 -322.33763868 138.83624649 C-320.83231739 130.34632299 -316.82866546 124.17743113 -309.75 119.1875 C-306.77762144 117.4745467 -303.72973612 115.95533314 -300.64453125 114.45703125 C-299.76584885 114.02170578 -298.88716644 113.58638031 -297.9818573 113.13786316 C-295.17911425 111.75090379 -292.37115896 110.374934 -289.5625 109 C-285.90054491 107.19764411 -282.24087801 105.39068777 -278.58203125 103.58203125 C-277.22901413 102.91435226 -277.22901413 102.91435226 -275.84866333 102.23318481 C-268.13647988 98.41302948 -260.5181001 94.42808531 -252.9206543 90.38549805 C-252.22241547 90.02225433 -251.52417664 89.65901062 -250.80477905 89.28475952 C-249.43380386 88.55265376 -248.0819956 87.78348524 -246.75210571 86.97915649 C-241.42092754 83.90863919 -237.70306472 83.977653 -231.75 85.1875 C-228.61964782 86.14810245 -225.63647493 87.37162107 -222.62524414 88.65332031 C-221.76217148 89.00941376 -220.89909882 89.3655072 -220.00987244 89.73239136 C-218.15007725 90.50079462 -216.29232042 91.27414671 -214.43644905 92.05197906 C-211.49374464 93.28294798 -208.54427227 94.49609515 -205.59214783 95.70428467 C-197.20447514 99.13908955 -188.82557059 102.59440094 -180.4621582 106.08789062 C-175.33342628 108.228758 -170.1932493 110.33977192 -165.04470634 112.43251801 C-163.0917477 113.23310942 -161.14333804 114.04489557 -159.19984627 114.86820221 C-156.47857881 116.02002176 -153.74428005 117.13321219 -151.00415039 118.23925781 C-150.21267609 118.58509918 -149.42120178 118.93094055 -148.60574341 119.28726196 C-142.2121761 121.79521781 -138.00357668 120.70174586 -131.75 118.1875 C-130.70170013 117.80535843 -129.65340027 117.42321686 -128.57333374 117.02949524 C-127.67176544 116.66309433 -126.77019714 116.29669342 -125.84130859 115.91918945 C-124.8009848 115.49898026 -123.76066101 115.07877106 -122.68881226 114.64582825 C-121.60298859 114.20196274 -120.51716492 113.75809723 -119.3984375 113.30078125 C-117.68837021 112.6079731 -117.68837021 112.6079731 -115.9437561 111.90116882 C-112.33577533 110.4383296 -108.73036532 108.96927189 -105.125 107.5 C-102.6657378 106.50103107 -100.20589983 105.5034892 -97.74609375 104.50585938 C-91.74546583 102.07113585 -85.74693091 99.63131437 -79.75 97.1875 C-80.1631395 96.56849319 -80.57627899 95.94948639 -81.00193787 95.3117218 C-81.54326859 94.50027206 -82.0845993 93.68882233 -82.64233398 92.8527832 C-83.17922348 92.0481514 -83.71611298 91.24351959 -84.26927185 90.414505 C-96.1741362 72.50967048 -101.95981523 53.91443413 -98.0625 32.390625 C-97.14691831 29.20134879 -96.06903741 26.23079633 -94.75 23.1875 C-94.34910156 22.259375 -93.94820313 21.33125 -93.53515625 20.375 C-86.07122076 5.14424469 -72.51048479 -5.98203164 -56.75 -11.8125 C-36.95426612 -18.02292632 -15.89472699 -12.60862613 0 0 Z M-78.125 14.0625 C-86.07697461 24.73017963 -91.38622565 37.68393656 -89.75 51.1875 C-86.38444755 70.7881388 -77.00071453 86.23648293 -63.625 100.6875 C-52.86873763 112.58850516 -46.02065858 128.55596331 -39.75 143.1875 C-37.63428162 140.53190866 -36.12367872 138.05294346 -34.83984375 134.9140625 C-28.36680528 119.55194969 -20.04185592 107.9388487 -9.51464844 95.15625 C4.05494472 78.51475251 13.01467646 61.16777382 11.25 39.1875 C8.64748663 25.3489858 0.74225153 12.66657604 -10.8125 4.5625 C-32.73096203 -10.23230721 -60.96099562 -6.3357664 -78.125 14.0625 Z M-232.75 96.1875 C-233.78370739 99.28862216 -234.06083246 101.87349347 -234.32250977 105.12768555 C-234.42253799 106.34872482 -234.52256622 107.5697641 -234.62562561 108.82780457 C-234.73096589 110.1599363 -234.83622417 111.49207452 -234.94140625 112.82421875 C-235.05175145 114.18759261 -235.16242791 115.5509397 -235.27342224 116.91426086 C-235.56441792 120.49950526 -235.85091236 124.08509566 -236.13647461 127.67077637 C-236.42876297 131.33086716 -236.72530181 134.99061327 -237.02148438 138.65039062 C-237.60181953 145.82909628 -238.17740039 153.00817274 -238.75 160.1875 C-237.73679687 160.71424316 -236.72359375 161.24098633 -235.6796875 161.78369141 C-234.32799377 162.49356528 -232.97643862 163.20370308 -231.625 163.9140625 C-230.95984375 164.25896729 -230.2946875 164.60387207 -229.609375 164.95922852 C-214.47117274 172.94574331 -204.90943287 184.95749666 -199.77734375 201.28125 C-194.79236725 220.38646227 -198.47398512 237.90461908 -207.75 254.9375 C-211.24679146 260.77310405 -215.44065203 265.89729495 -219.76831055 271.12182617 C-238.31179221 292.99842964 -238.31179221 292.99842964 -246.75 319.1875 C-233.87771747 323.49368052 -221.00436854 327.79665596 -208.12963295 332.09549713 C-202.15197036 334.09153632 -196.17468643 336.08869446 -190.19824219 338.08837891 C-184.4349562 340.01669664 -178.67070937 341.94211544 -172.90577316 343.86549377 C-170.70211397 344.60128243 -168.49880817 345.33813034 -166.29585648 346.07603455 C-163.21980243 347.10619701 -160.14253438 348.13264899 -157.06494141 349.15820312 C-155.68714256 349.62106468 -155.68714256 349.62106468 -154.2815094 350.09327698 C-153.44575882 350.37094406 -152.61000824 350.64861115 -151.74893188 350.93469238 C-151.02071543 351.17804573 -150.29249897 351.42139908 -149.54221535 351.67212677 C-147.74045628 352.27962085 -147.74045628 352.27962085 -145.75 352.1875 C-145.75 278.9275 -145.75 205.6675 -145.75 130.1875 C-188.1365286 107.405708 -188.1365286 107.405708 -232.75 96.1875 Z M-249.47558594 99.93798828 C-250.37083984 100.37707268 -250.37083984 100.37707268 -251.28417969 100.82502747 C-257.5448176 103.89989769 -263.79291576 107.00032817 -270.04003906 110.10253906 C-273.00252401 111.57266329 -275.9687005 113.03489676 -278.93847656 114.49023438 C-282.52501095 116.24788204 -286.10442117 118.01930176 -289.67926788 119.80059433 C-291.0403607 120.47595138 -292.40384652 121.14650869 -293.76976776 121.81204605 C-295.68897299 122.74843779 -297.5985055 123.70232593 -299.50683594 124.66064453 C-301.13779205 125.46672653 -301.13779205 125.46672653 -302.80169678 126.28909302 C-308.38070996 129.88140927 -310.80609008 133.58152689 -312.28866529 139.98811412 C-313.04587299 143.59805696 -313.68128991 147.22147939 -314.28128052 150.86051941 C-314.42183015 151.69687166 -314.56237978 152.53322391 -314.70718849 153.39492017 C-315.17391373 156.17708204 -315.63603754 158.95998756 -316.09814453 161.74291992 C-316.43314466 163.74585851 -316.76841786 165.74875144 -317.10394287 167.75160217 C-318.01182007 173.17640236 -318.91558292 178.60188038 -319.81837702 184.02752852 C-320.57267583 188.55843616 -321.32898777 193.0890068 -322.08529747 197.61957914 C-323.86887976 208.30408547 -325.64913185 218.98914297 -327.42724609 229.67456055 C-329.26215786 240.70097369 -331.10239183 251.72648913 -332.94528496 262.75157088 C-334.52787772 272.2204559 -336.10732983 281.68986102 -337.68422019 291.15969735 C-338.6258754 296.81456202 -339.56869347 302.46922644 -340.51446915 308.12340355 C-341.40292305 313.43580733 -342.2874506 318.74885008 -343.16893768 324.06241417 C-343.49325953 326.01336364 -343.81896723 327.9640833 -344.1461525 329.9145546 C-344.59207918 332.57424 -345.0330153 335.23470601 -345.47268677 337.89543152 C-345.60361477 338.66916381 -345.73454277 339.44289609 -345.86943829 340.24007481 C-346.47302965 343.92559658 -346.90053809 347.45055331 -346.75 351.1875 C-319.50346191 341.11908722 -292.56298533 330.35190024 -265.75 319.1875 C-271.17599678 301.78222502 -280.60893436 287.3282242 -292.1875 273.375 C-307.14308724 255.27889189 -317.89417342 235.42480208 -315.75 211.1875 C-313.25739473 194.43095051 -305.18862971 180.47342536 -291.8125 169.875 C-287.38365309 166.77042217 -282.70662395 164.3369002 -277.75 162.1875 C-277.0384375 161.87683594 -276.326875 161.56617188 -275.59375 161.24609375 C-269.62603213 159.07123882 -263.67959599 158.86720665 -257.3984375 158.609375 C-256.46990967 158.56731934 -255.54138184 158.52526367 -254.5847168 158.48193359 C-252.30663496 158.37938329 -250.02845329 158.28136901 -247.75 158.1875 C-247.19499251 152.23283655 -246.64383128 146.27783287 -246.09594727 140.32250977 C-245.90978163 138.3045128 -245.72263791 136.28660577 -245.53442383 134.26879883 C-244.38298499 121.91616294 -243.37315159 109.57874982 -242.75 97.1875 C-244.99480191 97.1875 -247.54825218 98.99111508 -249.47558594 99.93798828 Z M-135.75 130.1875 C-135.75 188.9275 -135.75 247.6675 -135.75 308.1875 C-130.8 307.1975 -130.8 307.1975 -125.75 306.1875 C-122.74917545 305.76563342 -119.76772221 305.47953763 -116.75 305.1875 C-116.75 307.4975 -116.75 309.8075 -116.75 312.1875 C-123.0708786 314.69199907 -129.09673235 316.37297246 -135.75 318.1875 C-135.75 329.4075 -135.75 340.6275 -135.75 352.1875 C-129.25176946 350.41525531 -122.86161201 348.65752602 -116.48730469 346.53955078 C-115.73926071 346.29355133 -114.99121674 346.04755188 -114.22050476 345.7940979 C-111.78673954 344.99300389 -109.35430175 344.18796046 -106.921875 343.3828125 C-105.20241019 342.81591332 -103.48286517 342.2492574 -101.76324463 341.68283081 C-97.25720771 340.19783481 -92.75230077 338.70943968 -88.24761963 337.22033691 C-83.70355584 335.71893956 -79.15835117 334.22100438 -74.61328125 332.72265625 C-62.34371063 328.676774 -62.34371063 328.676774 -50.07800293 324.61920166 C-47.15713696 323.65151258 -44.23416879 322.6905452 -41.30969238 321.73382568 C-39.92812933 321.27945526 -38.54657766 320.82505022 -37.16503906 320.37060547 C-35.9501178 319.97291962 -34.73519653 319.57523376 -33.48345947 319.16549683 C-30.87021411 318.45023742 -30.87021411 318.45023742 -29.75 317.1875 C-29.77377539 314.83956131 -29.87470119 312.53426941 -30.02392578 310.19262695 C-30.07102251 309.40815595 -30.11811924 308.62368494 -30.16664314 307.81544209 C-31.04237262 293.89924853 -32.23209996 280.00246029 -33.3671875 266.10546875 C-33.43077532 265.32587366 -33.49436315 264.54627858 -33.55987787 263.7430594 C-34.16080487 256.3759545 -34.7633583 249.00898481 -35.37051201 241.64239025 C-36.14242854 232.27582382 -36.90555188 222.90863225 -37.6568917 213.5403921 C-38.18895977 206.91505458 -38.7308262 200.29056254 -39.28000939 193.66662198 C-39.60671583 189.72295803 -39.92913657 185.77905442 -40.24102402 181.83418846 C-40.53354204 178.13699399 -40.83817837 174.44099766 -41.15215302 170.74556541 C-41.31882082 168.7471025 -41.47276085 166.74759087 -41.62631226 164.74807739 C-41.72996094 163.55557877 -41.83360962 162.36308014 -41.94039917 161.13444519 C-42.0248271 160.10052737 -42.10925503 159.06660955 -42.19624138 158.00136089 C-42.81841994 154.83983191 -43.97889057 152.85690073 -45.75 150.1875 C-46.81449099 147.94820807 -47.853839 145.69688037 -48.875 143.4375 C-57.92736071 123.64531487 -57.92736071 123.64531487 -70.75 106.1875 C-92.66118436 98.88377188 -114.3294257 121.55017165 -135.75 130.1875 Z M-11.75 111.1875 C-13.64717536 113.55129242 -13.64717536 113.55129242 -15.4375 116.6875 C-15.78345215 117.26556396 -16.1294043 117.84362793 -16.48583984 118.43920898 C-19.9026577 124.25150489 -22.91634094 130.25775285 -25.8515625 136.32421875 C-27.03646225 138.77071666 -28.27194444 141.13477364 -29.5859375 143.51953125 C-30.40964844 145.02580078 -30.40964844 145.02580078 -31.25 146.5625 C-31.7346875 147.41585937 -32.219375 148.26921875 -32.71875 149.1484375 C-35.68650584 157.89432402 -33.33672897 168.48656092 -32.55664062 177.55126953 C-32.42820525 179.07978867 -32.30013829 180.6083388 -32.17240906 182.13691711 C-31.82697425 186.2584154 -31.47642933 190.3794645 -31.1249218 194.5004487 C-30.75756652 198.8176631 -30.39497281 203.1352774 -30.03186035 207.45285034 C-29.34459381 215.61618283 -28.6530844 223.77915004 -27.96002626 231.94199264 C-27.17076069 241.24043886 -26.38626192 250.53928534 -25.60215092 259.83816743 C-23.99004749 278.95505981 -22.3719988 298.07144479 -20.75 317.1875 C-14.1461095 319.88533451 -7.54194461 322.58249651 -0.93760681 325.27923584 C1.29937148 326.19274413 3.53629162 327.10639484 5.77314758 328.02020264 C34.75240588 342.89118594 34.75240588 342.89118594 65.25 351.1875 C64.59719371 340.79332637 62.7814052 330.58363568 61.07885742 320.32324219 C60.74992634 318.32320037 60.4213062 316.32310739 60.0929718 314.32296753 C59.2043807 308.91767183 58.31044267 303.51327469 57.41474319 298.10915279 C56.85473925 294.72997303 56.29559702 291.35065171 55.73668861 287.97129059 C53.98606669 277.38858793 52.23196989 266.80646941 50.47313327 256.22512889 C48.44538741 244.02560329 46.42941557 231.82420803 44.42345923 219.62108111 C42.86961953 210.17292353 41.30521156 200.72655368 39.73280412 191.28146863 C38.79484045 185.64584394 37.86139472 180.00955915 36.93901634 174.37136078 C36.07202603 169.07348566 35.19194254 163.77795147 34.30178642 158.48392105 C33.97773378 156.5429086 33.65838358 154.60110423 33.34412766 152.6584816 C32.91385627 150.00330316 32.46659702 147.35152266 32.01506042 144.69989014 C31.89510167 143.93402989 31.77514291 143.16816965 31.65154904 142.37910151 C30.61701539 136.47565059 28.82768224 131.1422247 23.875 127.38647461 C23.00875 126.95858643 22.1425 126.53069824 21.25 126.08984375 C20.28545898 125.6009668 19.32091797 125.11208984 18.32714844 124.60839844 C17.31168945 124.11887695 16.29623047 123.62935547 15.25 123.125 C14.21649414 122.6084082 13.18298828 122.09181641 12.11816406 121.55957031 C10.08215244 120.54380751 8.04220944 119.5358792 5.99804688 118.53662109 C3.70698018 117.41184901 1.43464412 116.26227373 -0.828125 115.08203125 C-6.02986223 112.15140507 -6.02986223 112.15140507 -11.75 111.1875 Z M-297.5625 188.5 C-306.77639799 200.87232638 -308.34595285 215.43015925 -306.32421875 230.32421875 C-302.79580145 244.80588239 -294.05754382 256.45470417 -284.82421875 267.77734375 C-273.18367928 282.07496288 -264.9555722 296.17112549 -257.75 313.1875 C-257.09 313.1875 -256.43 313.1875 -255.75 313.1875 C-255.49943848 312.63513672 -255.24887695 312.08277344 -254.99072266 311.51367188 C-247.72103911 295.59619697 -240.41764486 280.71656724 -228.265625 267.953125 C-220.24027308 259.13022258 -214.06011502 249.32552001 -209.75 238.1875 C-209.24146484 236.90552734 -209.24146484 236.90552734 -208.72265625 235.59765625 C-204.68524747 223.52264105 -205.22420269 209.08720729 -210.078125 197.40234375 C-217.315047 183.48648673 -227.79014557 173.96768635 -242.75 169.1875 C-264.99654 163.51448379 -283.102188 171.2166336 -297.5625 188.5 Z " fill="#000000" transform="translate(396.75,80.8125)"/>
<path d="M0 0 C7.81890324 6.31476928 11.30128371 14.0150283 12.41796875 23.90234375 C12.7995079 33.6720584 9.90359419 41.96403443 3.41796875 49.33984375 C-4.16825087 55.88313676 -12.75458207 59.01910428 -22.75 58.68359375 C-32.64023588 57.48312374 -39.73975429 53.02210753 -46.11328125 45.54296875 C-52.28559036 37.43284167 -52.58242253 28.15618315 -51.58203125 18.33984375 C-50.07528159 11.72213074 -46.90322411 5.65148223 -41.58203125 1.33984375 C-28.01074219 -6.70105406 -13.97925231 -8.98817282 0 0 Z M-34.95703125 8.52734375 C-39.69909102 13.60812207 -42.17754476 19.0084582 -42.68359375 25.97265625 C-42.44729127 31.48032185 -40.67719246 36.36855358 -38.01953125 41.15234375 C-31.60343432 46.91037946 -25.00909998 49.1660492 -16.4140625 48.7578125 C-10.55865521 47.89363515 -6.96251793 45.68965295 -2.76953125 41.58984375 C1.24119457 35.63105111 3.59117577 29.64572385 2.41796875 22.33984375 C0.82646012 16.23906068 -1.43792396 11.40016815 -6.51171875 7.5234375 C-15.62698902 2.31225468 -26.33961623 2.00367406 -34.95703125 8.52734375 Z " fill="#000000" transform="translate(377.58203125,97.66015625)"/>
<path d="M0 0 C6.28090247 6.41482363 8.94003833 14.95714061 9.33203125 23.80859375 C8.93484993 32.99672168 5.32451525 41.69404568 -1.16796875 48.24609375 C-10.31566396 55.4178868 -19.96233026 56.1286914 -31.16796875 55.24609375 C-39.52122527 53.27297658 -46.37029714 47.29608951 -51.04296875 40.24609375 C-55.38376788 32.60219494 -56.47639263 24.34888836 -54.6328125 15.75 C-51.71053443 6.28054156 -45.81442528 -0.65842729 -37.32421875 -5.6796875 C-24.82040986 -11.90894012 -10.53241253 -8.52081662 0 0 Z M-41.16796875 9.24609375 C-45.0970677 14.49302713 -45.85849995 19.74533781 -45.61328125 26.2109375 C-44.66534176 32.6718935 -42.01169765 38.20540749 -36.79296875 42.24609375 C-30.04550133 46.33810625 -23.76324995 46.85576873 -16.16796875 45.24609375 C-10.4918876 43.48801552 -6.69469507 40.49189645 -3.3671875 35.578125 C-0.27730192 29.569455 0.49383093 23.54378352 -1.16796875 16.99609375 C-3.28591017 11.21988988 -6.07561443 6.9916941 -11.5 3.9296875 C-22.4259067 -0.88711008 -32.6842344 0.56954726 -41.16796875 9.24609375 Z " fill="#000000" transform="translate(163.16796875,271.75390625)"/>
<path d="M0 0 C2.3125 1.25 2.3125 1.25 3.3125 2.25 C4.0186039 10.67694488 3.83254292 17.93442852 -0.6875 25.25 C-1.6875 26.25 -1.6875 26.25 -5.25 26.3125 C-6.384375 26.291875 -7.51875 26.27125 -8.6875 26.25 C-9.9375 19.625 -9.9375 19.625 -7.6875 16.25 C-6.97446835 12.54223541 -6.68614685 9.27706305 -6.875 5.5 C-6.6875 2.25 -6.6875 2.25 -5 0.1875 C-2.6875 -0.75 -2.6875 -0.75 0 0 Z " fill="#000000" transform="translate(310.6875,355.75)"/>
<path d="M0 0 C3 -0.375 3 -0.375 6 0 C10.43847978 6.65771967 9.94393535 18.26871999 9 26 C6 28 6 28 3.3125 27.625 C2.1678125 27.315625 2.1678125 27.315625 1 27 C-1.00288865 21.90248422 -1.47826141 17.21659171 -1.75 11.8125 C-1.83314453 10.60303711 -1.83314453 10.60303711 -1.91796875 9.36914062 C-1.96050781 8.59376953 -2.00304687 7.81839844 -2.046875 7.01953125 C-2.08651367 6.31932861 -2.12615234 5.61912598 -2.16699219 4.89770508 C-2 3 -2 3 0 0 Z " fill="#000000" transform="translate(302,305)"/>
<path d="M0 0 C0.66 0.33 1.32 0.66 2 1 C2.04241723 3.33294775 2.04092937 5.66702567 2 8 C-0.48340251 10.48340251 -6.97905185 9.28239662 -10.3125 9.3125 C-11.37146484 9.34150391 -12.43042969 9.37050781 -13.52148438 9.40039062 C-15.05192383 9.41295898 -15.05192383 9.41295898 -16.61328125 9.42578125 C-17.54954346 9.44036377 -18.48580566 9.45494629 -19.45043945 9.4699707 C-22.76445381 8.85908517 -23.96378159 7.6337814 -26 5 C-25.875 2.3125 -25.875 2.3125 -25 0 C-18.44227636 -3.27886182 -7.10434513 -1.03127591 0 0 Z " fill="#000000" transform="translate(229,390)"/>
<path d="M0 0 C1 1 1 1 1.25 3.6875 C1 7 1 7 -0.4375 9.6875 C-2.34744498 13.73658335 -2.49170709 17.17968465 -2.69140625 21.609375 C-3 24 -3 24 -5 26 C-7.5 26.25 -7.5 26.25 -10 26 C-13.13301005 22.86698995 -12.9396634 19.30401112 -13 15 C-12.38693135 9.06393848 -10.7225972 4.6532465 -7 0 C-4.31633121 -1.3418344 -2.84719317 -0.73004953 0 0 Z " fill="#000000" transform="translate(310,256)"/>
<path d="M0 0 C2 3 2 3 1.859375 5.01953125 C0.24090958 8.74935838 -3.50411301 10.22892682 -7 12 C-9.8125 12.9375 -9.8125 12.9375 -12 13 C-15 11 -15 11 -16 9.1875 C-16 7 -16 7 -13.9375 4.4375 C-9.52635854 0.77719112 -5.77050307 -2.24408453 0 0 Z " fill="#000000" transform="translate(345,236)"/>
<path d="M0 0 C1.15628906 0.08765625 2.31257812 0.1753125 3.50390625 0.265625 C6.4375 0.75 6.4375 0.75 8.4375 2.75 C8.6875 5.25 8.6875 5.25 8.4375 7.75 C6.4375 9.75 6.4375 9.75 3.25 10.015625 C1.3628125 10.00789063 1.3628125 10.00789063 -0.5625 10 C-1.820625 10.00515625 -3.07875 10.0103125 -4.375 10.015625 C-7.5625 9.75 -7.5625 9.75 -9.5625 7.75 C-9.875 4.75 -9.875 4.75 -9.5625 1.75 C-5.86918054 -0.71221297 -4.34996392 -0.36938241 0 0 Z " fill="#000000" transform="translate(172.5625,387.25)"/>
</svg>
